<svg xmlns="http://www.w3.org/2000/svg" width="22.281" height="22.285" viewBox="0 0 22.281 22.285">
  <g id="Group_37231" data-name="Group 37231" transform="translate(-1117.85 -903.894)">
    <path id="Path_21001" data-name="Path 21001" d="M1293.682,1080.885l-1.429.6c0,.213,0,.484,0,.755a.8.8,0,1,1-1.591-.009c0-.264,0-.528,0-.75l-1.461-.614c-.155.167-.339.379-.537.576a.794.794,0,1,1-1.12-1.122c.2-.2.409-.384.577-.541l-.615-1.451c-.221,0-.5,0-.778,0a.761.761,0,0,1-.837-.781.774.774,0,0,1,.84-.81c.272,0,.545,0,.778,0l.611-1.459c-.165-.153-.377-.338-.574-.537a.794.794,0,1,1,1.125-1.118c.194.191.377.395.54.566l1.452-.616c0-.212,0-.483,0-.754a.8.8,0,1,1,1.592,0c0,.264,0,.528,0,.754l1.452.609c.149-.157.332-.359.524-.551a.795.795,0,1,1,1.122,1.12c-.185.189-.381.368-.551.532l.609,1.451c.212,0,.467,0,.723,0a.815.815,0,0,1,.894.795.8.8,0,0,1-.884.8c-.256,0-.512,0-.735,0l-.615,1.466c.154.141.362.316.553.508a.8.8,0,1,1-1.123,1.123C1294.037,1081.246,1293.852,1081.056,1293.682,1080.885Zm-2.221-5.739a2.387,2.387,0,1,0,2.384,2.383A2.379,2.379,0,0,0,1291.462,1075.147Z" transform="translate(-156.898 -156.926)" fill="#dee4fe"/>
    <path id="Path_21002" data-name="Path 21002" d="M1194.637,903.894a4.775,4.775,0,1,1-4.781,4.775A4.789,4.789,0,0,1,1194.637,903.894Zm-.018,7.959a3.184,3.184,0,1,0-3.171-3.208A3.176,3.176,0,0,0,1194.619,911.853Z" transform="translate(-67.232)" fill="#dee4fe"/>
    <path id="Path_21003" data-name="Path 21003" d="M1119.455,1079.819h.306q3.729,0,7.457,0a.794.794,0,0,1,.826,1.037.784.784,0,0,1-.747.552c-.381.008-.762,0-1.143,0H1118.8c-.646,0-.952-.3-.945-.938a15.7,15.7,0,0,1,.14-2.874,7.109,7.109,0,0,1,6.3-5.683c1.318-.1,2.649-.049,3.974-.05a.769.769,0,0,1,.749.8.782.782,0,0,1-.8.781c-1.085.007-2.171,0-3.256,0a5.516,5.516,0,0,0-5.332,4.158,5.384,5.384,0,0,0-.161.978C1119.434,1078.985,1119.455,1079.383,1119.455,1079.819Z" transform="translate(0 -156.823)" fill="#dee4fe"/>
  </g>
</svg>
