<svg xmlns="http://www.w3.org/2000/svg" width="19.364" height="19.364" viewBox="0 0 19.364 19.364">
  <g id="Group_35469" data-name="Group 35469" transform="translate(0.558 0.558)">
    <g id="Group_35470" data-name="Group 35470" transform="translate(-0.408 -0.408)">
      <path id="Path_18479" data-name="Path 18479" d="M8.676,0h1.713a.28.28,0,0,0,.063.032,1.734,1.734,0,0,1,1.407,1.45,2.907,2.907,0,0,1,.021.538.162.162,0,0,0,.132.185c.228.079.451.171.675.262.131.054.269.176.385.157s.211-.175.314-.272a1.74,1.74,0,0,1,2.422-.016c.327.3.643.62.945.949A1.686,1.686,0,0,1,17.171,4.8a1.8,1.8,0,0,1-.55.97c-.213.208-.207.209-.088.472q.142.313.264.634c.115.3.112.3.433.3a1.75,1.75,0,0,1,1.7,1.093c.052.13.088.267.132.4v1.713c-.014.039-.03.078-.04.118a1.763,1.763,0,0,1-.913,1.183,1.942,1.942,0,0,1-1.047.191.178.178,0,0,0-.211.147c-.072.223-.166.44-.255.657-.054.131-.175.269-.156.386s.175.211.272.314a1.741,1.741,0,0,1,.016,2.422q-.449.484-.934.933a1.756,1.756,0,0,1-2.525-.149.282.282,0,0,0-.418-.077,4.936,4.936,0,0,1-.683.289c-.284.109-.29.1-.285.408a1.71,1.71,0,0,1-.817,1.571,4.139,4.139,0,0,1-.678.281H8.676c-.057-.019-.114-.041-.172-.057a1.744,1.744,0,0,1-1.085-.816,1.907,1.907,0,0,1-.236-1.129.177.177,0,0,0-.147-.211c-.229-.074-.451-.171-.674-.263-.125-.051-.26-.171-.368-.149s-.212.175-.315.272a1.74,1.74,0,0,1-2.422.016c-.331-.308-.653-.628-.957-.963a1.678,1.678,0,0,1-.408-1.5,1.8,1.8,0,0,1,.55-.97c.213-.208.208-.209.088-.472q-.127-.278-.239-.564c-.145-.367-.143-.368-.531-.374A1.748,1.748,0,0,1,.035,10.47.484.484,0,0,0,0,10.388V8.676c.014-.04.03-.078.04-.119A1.709,1.709,0,0,1,1.3,7.247,2.992,2.992,0,0,1,2,7.185a.186.186,0,0,0,.211-.15A2.769,2.769,0,0,1,2.466,6.4c.19-.3.137-.49-.118-.744a1.7,1.7,0,0,1-.012-2.4c.313-.335.637-.662.977-.969a1.67,1.67,0,0,1,1.471-.4,1.692,1.692,0,0,1,1,.57.3.3,0,0,0,.448.083,3.38,3.38,0,0,1,.544-.236c.4-.158.4-.157.409-.584A1.752,1.752,0,0,1,8.378.091c.1-.033.2-.061.3-.091m.857,1.117c-.2,0-.4,0-.6,0a.628.628,0,0,0-.637.637c-.005.261,0,.521,0,.782a.56.56,0,0,1-.444.588,7.137,7.137,0,0,0-1.66.688.546.546,0,0,1-.728-.1c-.187-.181-.366-.371-.555-.55A.625.625,0,0,0,4,3.171q-.414.4-.816.816a.629.629,0,0,0,0,.943c.173.178.352.35.525.528a.55.55,0,0,1,.1.742,7.111,7.111,0,0,0-.682,1.643.563.563,0,0,1-.6.455c-.254,0-.509,0-.763,0a.627.627,0,0,0-.649.644q-.007.586,0,1.173a.629.629,0,0,0,.646.648c.254,0,.509,0,.763,0a.562.562,0,0,1,.6.452,7.118,7.118,0,0,0,.681,1.644.55.55,0,0,1-.1.743c-.177.183-.362.358-.538.541a.628.628,0,0,0,0,.929q.4.406.8.8a.633.633,0,0,0,.956,0c.174-.169.342-.343.514-.512a.556.556,0,0,1,.757-.1,7.192,7.192,0,0,0,1.626.675.567.567,0,0,1,.465.609c0,.254,0,.509,0,.763a.627.627,0,0,0,.635.64q.6.009,1.191,0a.627.627,0,0,0,.638-.637c.005-.254,0-.509,0-.763a.565.565,0,0,1,.462-.611,7.082,7.082,0,0,0,1.626-.675.554.554,0,0,1,.757.1c.182.177.357.363.541.538a.626.626,0,0,0,.916,0q.414-.4.816-.816a.629.629,0,0,0,.009-.929c-.175-.184-.36-.359-.538-.542a.549.549,0,0,1-.1-.742,7.14,7.14,0,0,0,.682-1.643.564.564,0,0,1,.6-.455c.254,0,.509,0,.763,0a.629.629,0,0,0,.649-.645q.008-.586,0-1.173A.628.628,0,0,0,17.3,8.3c-.254,0-.509,0-.763,0a.564.564,0,0,1-.6-.453A7.145,7.145,0,0,0,15.255,6.2a.549.549,0,0,1,.1-.742c.177-.182.363-.357.538-.542a.629.629,0,0,0-.006-.929q-.4-.406-.8-.8a.632.632,0,0,0-.956.005c-.178.173-.349.353-.528.525a.546.546,0,0,1-.728.1,7.068,7.068,0,0,0-1.66-.689.559.559,0,0,1-.445-.587c0-.261,0-.521,0-.782a.628.628,0,0,0-.635-.639c-.2,0-.4,0-.6,0" transform="translate(0 0)" fill="#dee4ff" stroke="#dee4ff" stroke-width="0.3"/>
      <path id="Path_18480" data-name="Path 18480" d="M108.52,112.66a4.144,4.144,0,1,1,4.142,4.142,4.142,4.142,0,0,1-4.142-4.142m4.147-3.03a3.028,3.028,0,1,0,3.025,3.03,3.023,3.023,0,0,0-3.025-3.03" transform="translate(-103.132 -103.125)" fill="#dee4ff" stroke="#dee4ff" stroke-width="0.3"/>
    </g>
  </g>
</svg>
