<svg xmlns="http://www.w3.org/2000/svg" width="19.368" height="19.368" viewBox="0 0 19.368 19.368">
  <g id="Group_36348" data-name="Group 36348" transform="translate(0.126 0.126)">
    <g id="Group_36349" data-name="Group 36349" transform="translate(0.027 0.027)">
      <path id="Path_19403" data-name="Path 19403" d="M9.31,19.068a4.379,4.379,0,0,1-.772-.343,1.63,1.63,0,0,1-.6-1.851A1.672,1.672,0,0,1,9.494,15.72a11.493,11.493,0,0,1,1.43.031,1.541,1.541,0,0,1,1.246.947.2.2,0,0,0,.221.139c.54-.007,1.08,0,1.62,0a1.676,1.676,0,0,0,1.7-1.695c0-.173,0-.345,0-.539H15.5c-.484,0-.968,0-1.452,0a.551.551,0,0,1-.568-.564q0-3.36,0-6.72a.553.553,0,0,1,.58-.571c.533,0,1.065,0,1.6,0a6.159,6.159,0,0,0-12.271,0h.178c.472,0,.943,0,1.415,0a.561.561,0,0,1,.6.606q0,3.323,0,6.646a.561.561,0,0,1-.6.605q-1.061,0-2.122,0a.568.568,0,0,1-.625-.621c0-.1,0-.21,0-.324a4.762,4.762,0,0,1-.542-.04,1.883,1.883,0,0,1-1.5-1.479C.1,11.822.063,11.493,0,11.172V10.13c.012-.06.022-.12.037-.179A9.3,9.3,0,0,1,.343,8.79,1.668,1.668,0,0,1,1.594,7.728a5.981,5.981,0,0,1,.641-.067,2.67,2.67,0,0,1,0-.283,11.735,11.735,0,0,1,.2-1.711A7.18,7.18,0,0,1,7.809.217C8.212.106,8.636.07,9.05,0h.968a.822.822,0,0,0,.125.03,6.9,6.9,0,0,1,3.369,1.164,7.188,7.188,0,0,1,3.288,5.5c.031.325.032.653.047.987h.166a1.733,1.733,0,0,1,1.622.929,3.348,3.348,0,0,1,.281.724c.072.26.1.532.151.8v1.043c-.012.059-.022.119-.037.178a9,9,0,0,1-.313,1.18,1.7,1.7,0,0,1-1.343,1.084,5.382,5.382,0,0,1-.542.04c0,.493,0,.976,0,1.459a2.793,2.793,0,0,1-2.827,2.837c-.528,0-1.055,0-1.583,0a.235.235,0,0,0-.264.16,1.545,1.545,0,0,1-.781.79c-.149.07-.31.114-.466.171Zm-5.946-5.6h1.1v-5.6h-1.1Zm12.343-5.6H14.613v5.6h1.095ZM2.226,12.5V8.809a2.349,2.349,0,0,0-.355,0c-.361.057-.5.335-.6.639a3.964,3.964,0,0,0-.131,1.638,4.1,4.1,0,0,0,.228.988.671.671,0,0,0,.857.425M16.839,12.5a.682.682,0,0,0,.846-.379,1.894,1.894,0,0,0,.153-.416,4.72,4.72,0,0,0,.091-1.514,2.455,2.455,0,0,0-.255-1.019.649.649,0,0,0-.836-.322ZM10.079,17.95c.192,0,.384.005.575,0a.557.557,0,0,0,0-1.114c-.371-.007-.743-.006-1.114,0a.557.557,0,1,0,0,1.115c.179,0,.359,0,.538,0" transform="translate(-0.003 -0.003)" fill="#dee4ff" stroke="#dee4ff" stroke-width="0.3"/>
    </g>
  </g>
</svg>
