<svg width="72" height="72" viewBox="0 0 72 72" fill="none" xmlns="http://www.w3.org/2000/svg">
<path opacity="0.6" fill-rule="evenodd" clip-rule="evenodd" d="M64 10.2801V14.437C66.1217 14.437 68.1566 15.3034 69.6569 16.8455C71.1571 18.3877 72 20.4793 72 22.6603V63.7767C72 65.9577 71.1571 68.0493 69.6569 69.5915C68.1566 71.1336 66.1217 72 64 72H8C5.87827 72 3.84344 71.1336 2.34315 69.5915C0.842854 68.0493 0 65.9577 0 63.7767V22.6603C0 18.3636 3.34 14.4658 7.252 13.3186L51.252 0.395732C52.7404 -0.0415214 54.3072 -0.11763 55.829 0.173397C57.3509 0.464425 58.7862 1.11464 60.022 2.07285C61.2578 3.03105 62.2604 4.27108 62.9506 5.69528C63.6409 7.11947 64.0002 8.68895 64 10.2801ZM50 37.051C48.4087 37.051 46.8826 37.7008 45.7574 38.8574C44.6321 40.0141 44 41.5828 44 43.2185C44 44.8542 44.6321 46.4229 45.7574 47.5796C46.8826 48.7362 48.4087 49.386 50 49.386C51.5913 49.386 53.1174 48.7362 54.2426 47.5796C55.3679 46.4229 56 44.8542 56 43.2185C56 41.5828 55.3679 40.0141 54.2426 38.8574C53.1174 37.7008 51.5913 37.051 50 37.051ZM56 10.2801C56.0002 9.98989 55.9406 9.7029 55.8252 9.43804C55.7098 9.17318 55.5411 8.93644 55.3302 8.74341C55.1194 8.55037 54.8712 8.40541 54.6019 8.31807C54.3326 8.23072 54.0484 8.20297 53.768 8.23664L53.448 8.30242L32.56 14.437H56V10.2801Z" fill="white"/>
</svg>
