<svg width="93" height="22" viewBox="0 0 93 22" fill="none" xmlns="http://www.w3.org/2000/svg">
<path d="M2.02441 5.71094H7.71383C10.3944 5.71094 12.2544 7.33475 12.2544 9.69189C12.2544 12.049 10.3397 13.6728 7.71383 13.6728H5.36147V17.0776H2.02441V5.71094ZM7.4403 10.7395C8.26088 10.7395 8.80794 10.2681 8.80794 9.69189C8.80794 9.06332 8.26088 8.64427 7.4403 8.64427H5.36147V10.7395H7.4403Z" fill="white"/>
<path d="M13.1846 11.4214C13.1846 8.22612 16.1387 5.55469 19.6399 5.55469C23.141 5.55469 26.0952 8.22612 26.0952 11.4214C26.0952 14.6166 23.141 17.288 19.6399 17.288C16.1387 17.288 13.1846 14.5642 13.1846 11.4214ZM22.6487 11.4214C22.6487 9.79754 21.281 8.48802 19.6399 8.48802C17.9987 8.48802 16.631 9.84993 16.631 11.4214C16.631 13.0452 17.9987 14.4071 19.6399 14.4071C21.281 14.4071 22.6487 12.9928 22.6487 11.4214Z" fill="white"/>
<path d="M36.6534 14.1967V17.0776H27.7363V5.71094H31.0734V14.1967H36.6534Z" fill="white"/>
<path d="M41.467 8.59189V9.84903H47.1017V12.73H41.467V14.1967H47.6487V17.0776H38.0752V5.71094H47.6487V8.59189H41.467Z" fill="white"/>
<path d="M48.4697 15.3499L50.3297 13.2023C51.5333 14.0928 52.8462 14.6166 54.2685 14.6166C55.1985 14.6166 55.6909 14.3023 55.6909 13.8309C55.6909 13.3071 55.2533 13.2023 53.6121 12.8356C51.0409 12.2594 49.0168 11.6309 49.0168 9.27374C49.0168 7.02135 50.8768 5.55469 53.7215 5.55469C55.8003 5.55469 57.3868 6.0785 58.6997 7.07373L57.0038 9.32612C55.9097 8.5404 54.7062 8.17374 53.6121 8.17374C52.7915 8.17374 52.4086 8.48802 52.4086 8.90707C52.4086 9.48326 52.8462 9.69278 54.5421 10.0071C57.3321 10.5833 59.028 11.2642 59.028 13.4642C59.028 15.8737 57.1133 17.288 54.1044 17.288C52.0256 17.288 49.9468 16.6594 48.4697 15.3499Z" fill="white"/>
<path d="M63.4592 8.59189H59.9033V5.71094H70.2974V8.59189H66.7963V17.0776H63.4592V8.59189Z" fill="white"/>
<path d="M88.0765 17.0776L85.5601 13.6728H84.5207V17.0776H81.1836V5.71094H86.873C89.5536 5.71094 91.4136 7.33475 91.4136 9.69189C91.4136 11.3157 90.5383 12.5728 89.0612 13.2538L91.9059 17.13H88.0765V17.0776ZM84.5207 10.7395H86.5995C87.4201 10.7395 87.9671 10.2681 87.9671 9.69189C87.9671 9.06332 87.4201 8.64427 86.5995 8.64427H84.5207V10.7395Z" fill="white"/>
<path d="M74.9472 0.523438L72.2119 8.53772H63.4043L70.5708 13.4615L67.8355 21.4758L74.9472 16.552L82.1137 21.4758L79.3784 13.4615L86.4902 8.64249L77.6825 8.53772L74.9472 0.523438Z" fill="#FED71F"/>
</svg>
