<svg id="Group_33658" data-name="Group 33658" xmlns="http://www.w3.org/2000/svg" width="9.069" height="9.069" viewBox="0 0 9.069 9.069">
  <path id="Path_13374" data-name="Path 13374" d="M19.741,158.689a.34.34,0,0,1-.2-.321c-.067-1.179-.14-2.357-.212-3.535q-.075-1.228-.151-2.457c0-.017,0-.035,0-.058h5.167l-.042.7H24.2c-.354.005-.71-.01-1.062.02a2.193,2.193,0,0,0-1.919,1.8,1.933,1.933,0,0,0-.016.553.793.793,0,0,0,.494.6,1.07,1.07,0,0,0,0,1.137,2.212,2.212,0,0,0-.251.171.837.837,0,0,0-.241.842,1.363,1.363,0,0,0,.241.545Z" transform="translate(-18.838 -149.62)" fill="#fff"/>
  <path id="Path_13375" data-name="Path 13375" d="M168.238,223.465a.341.341,0,0,1-.357.2q-2.758-.006-5.516,0c-.234,0-.333-.1-.326-.337a1.678,1.678,0,0,1,1.613-1.608q1.487-.018,2.975,0a1.674,1.674,0,0,1,1.593,1.435.534.534,0,0,0,.017.066Z" transform="translate(-159.169 -217.779)" fill="#fff"/>
  <path id="Path_13376" data-name="Path 13376" d="M162.734,452.921a2.369,2.369,0,0,1-.381-.174.726.726,0,0,1-.307-.564.272.272,0,0,1,.3-.325h3.664c.625,0,1.251,0,1.876,0a.339.339,0,0,1,.357.2v.177c-.006.022-.013.045-.019.067a.792.792,0,0,1-.512.576c-.052.02-.107.032-.16.047Z" transform="translate(-159.174 -443.852)" fill="#fff"/>
  <path id="Path_13377" data-name="Path 13377" d="M0,1.824a.341.341,0,0,1,.357-.2c.773.006,1.547,0,2.32,0a.166.166,0,0,0,.161-.09c.289-.449.58-.9.876-1.341a1.42,1.42,0,0,1,.2-.2h1.2c.012.008.023.016.035.022a.265.265,0,0,1-.117.508c-.274,0-.549,0-.823,0A.13.13,0,0,0,4.085.6c-.218.34-.44.678-.672,1.033H5.562a.264.264,0,0,1,.265.359.259.259,0,0,1-.228.17.873.873,0,0,1-.1,0q-2.572,0-5.144,0A.342.342,0,0,1,0,1.966Z" fill="#fff"/>
  <path id="Path_13378" data-name="Path 13378" d="M184.57,363.046c-.735,0-1.469,0-2.2,0a.531.531,0,0,1-.42-.854.52.52,0,0,1,.439-.207h2.027q1.186,0,2.372,0a.531.531,0,1,1,0,1.062q-1.106,0-2.213,0" transform="translate(-178.61 -355.571)" fill="#fff"/>
</svg>
