<svg xmlns="http://www.w3.org/2000/svg" width="19.532" height="21.242" viewBox="0 0 19.532 21.242">
  <g id="Group_33809" data-name="Group 33809" transform="translate(0 0)">
    <g id="Group_33759" data-name="Group 33759" transform="translate(0 0)">
      <path id="Path_13582" data-name="Path 13582" d="M16.92,21.242h-.707a.638.638,0,0,0-.112-.04,2.871,2.871,0,0,1-1.48-.7,2.983,2.983,0,0,1-1.012-2.358c0-1.824,0-3.649,0-5.473v-.267H11.843v.254q0,3.193,0,6.385c0,.732,0,1.465.005,2.2H0c0-.1.01-.193.01-.289q0-8.317,0-16.635c0-.629,0-1.258,0-1.887A2.362,2.362,0,0,1,2.459,0Q5.931,0,9.4.006a2.754,2.754,0,0,1,.8.117,2.343,2.343,0,0,1,1.645,2.335q0,3.951,0,7.9v.26c.16,0,.3,0,.434,0a7.867,7.867,0,0,1,1.261.067,2.309,2.309,0,0,1,1.845,2.32c.006,1.708,0,3.415,0,5.123a2.109,2.109,0,0,0,.031.392,1.173,1.173,0,0,0,1.483.894,1.189,1.189,0,0,0,.851-1.232q0-4.1,0-8.193V9.787a2.957,2.957,0,0,1-2.264.037,2.888,2.888,0,0,1-1.621-1.553,2.824,2.824,0,0,1-.132-2,2.964,2.964,0,0,1,1.8-1.944L13.058,1.856,14.32.6a1.223,1.223,0,0,0,.115.152q1.875,1.869,3.751,3.737c.195.195.378.4.564.6a2.923,2.923,0,0,1,.777,2.023c0,3.713.012,7.426,0,11.138a2.856,2.856,0,0,1-1.758,2.73,5.976,5.976,0,0,1-.845.26m-14.53-13h7.07V2.37H2.391Zm14.183.013a1.179,1.179,0,1,0-1.186-1.167,1.189,1.189,0,0,0,1.186,1.167" transform="translate(0 0)" fill="#7399f8"/>
    </g>
  </g>
</svg>
