<svg id="Group_33840" data-name="Group 33840" xmlns="http://www.w3.org/2000/svg" width="7.905" height="9.609" viewBox="0 0 7.905 9.609">
  <g id="Group_33842" data-name="Group 33842" transform="translate(0 0)">
    <path id="Path_13586" data-name="Path 13586" d="M68.239,184.738a.361.361,0,0,1-.209-.378c.005-1.132,0-2.264,0-3.4a.151.151,0,0,1,.086-.153c.648-.371,1.293-.747,1.942-1.117a1,1,0,0,1,.226-.062v.133q0,1.468,0,2.936a.318.318,0,0,0,.094.255.281.281,0,0,0,.4-.018c.059-.056.116-.114.173-.172s.111-.118.178-.19l.276.28c.029.029.057.058.086.086a.283.283,0,0,0,.486-.209q0-.774,0-1.548v-1.533h1.913c.233,0,.339.1.339.336,0,1.457,0,2.914,0,4.372a.362.362,0,0,1-.209.378Z" transform="translate(-66.324 -175.129)" fill="#fff"/>
    <path id="Path_13587" data-name="Path 13587" d="M0,4.2a.439.439,0,0,1,.215-.222c.266-.145.528-.3.8-.45C.99,3.512.972,3.5.953,3.484a1.125,1.125,0,0,1,1.2-1.9c.232.135.457.283.685.424.026.016.053.03.092.052-.01-.294-.018-.574-.03-.853A1.131,1.131,0,0,1,3.71.046,1.119,1.119,0,0,1,5.142,1.058c0,.024,0,.049.005.086l.216-.122.6-.347A.292.292,0,0,1,6.42.794q.259.446.516.892a.289.289,0,0,1-.122.448l-5.6,3.233c-.07.041-.14.083-.212.121a.277.277,0,0,1-.378-.1C.413,5.041.208,4.688,0,4.336V4.2M3.492,2.1c.291-.169.567-.322.835-.487a.563.563,0,0,0,.22-.692.563.563,0,0,0-.6-.357.552.552,0,0,0-.486.536c0,.327.017.654.028,1m-.811.468c-.286-.177-.553-.349-.827-.509a.548.548,0,0,0-.7.133.562.562,0,0,0-.01.7.551.551,0,0,0,.7.154c.277-.15.548-.313.841-.481" transform="translate(0 -0.001)" fill="#fff"/>
    <path id="Path_13588" data-name="Path 13588" d="M181.282,180.738V183.1a.793.793,0,0,0-.274-.113.818.818,0,0,0-.28.107v-2.361Z" transform="translate(-176.196 -176.207)" fill="#fff"/>
  </g>
</svg>
