<svg id="Group_36447" data-name="Group 36447" xmlns="http://www.w3.org/2000/svg" xmlns:xlink="http://www.w3.org/1999/xlink" width="41.643" height="42.24" viewBox="0 0 41.643 42.24">
  <defs>
    <clipPath id="clip-path">
      <rect id="Rectangle_6458" data-name="Rectangle 6458" width="41.643" height="42.24" fill="#fff"/>
    </clipPath>
  </defs>
  <g id="Group_36446" data-name="Group 36446" clip-path="url(#clip-path)">
    <path id="Path_19538" data-name="Path 19538" d="M20.069,23.78c-1.137-1.143-2.2-2.216-3.265-3.281A2.535,2.535,0,1,0,13.136,24c1.392,1.426,2.814,2.823,4.224,4.231.106.105.226.2.447.387-.626.107-1.114.219-1.608.271A14.5,14.5,0,1,1,28.816,12.021a13.823,13.823,0,0,1-.738,7.562,3.984,3.984,0,0,1-.87,1.069c-.05.055-.22.033-.322,0a2.2,2.2,0,0,0-2.321.608c-.106.107-.22.208-.319.322a1.225,1.225,0,0,1-1.433.552,1.844,1.844,0,0,0-1.8.631c-.309.308-.6.638-.944,1.013M22.493,7.233h1.424V5.8H22.492V4.372H21.056V5.8H19.631V7.233h1.424V8.658h1.438ZM9.078,10.865c-.77,0-1.541.011-2.311,0-.436-.008-.8.1-.916.558-.115.441.158.694.5.91,1.178.734,2.337,1.5,3.53,2.21a.565.565,0,0,1,.286.795c-.467,1.512-.9,3.035-1.361,4.549a.794.794,0,0,0,.21.98c.369.276.7.13,1.031-.111,1.379-1,2.771-1.99,4.144-3a.465.465,0,0,1,.664,0c1.373,1.011,2.765,2,4.144,3,.316.23.633.377.994.13.376-.257.36-.613.24-1.009-.47-1.559-.915-3.125-1.394-4.681a.419.419,0,0,1,.214-.581c1.22-.753,2.426-1.528,3.642-2.287.345-.216.616-.474.5-.915-.125-.458-.487-.554-.922-.551-1.571.011-3.141-.006-4.712.013a.478.478,0,0,1-.54-.388c-.565-1.575-1.156-3.141-1.729-4.713-.138-.379-.314-.7-.773-.7s-.631.331-.768.708c-.578,1.586-1.173,3.167-1.744,4.756a.425.425,0,0,1-.484.336c-.815-.018-1.631-.006-2.446-.006M23.911,13.07H22.533v1.41h1.378Z" transform="translate(0 0)" fill="#fff"/>
    <path id="Path_19539" data-name="Path 19539" d="M142.285,184.937l-6.2,6.2c-.533-.54-1.079-1.1-1.627-1.649a6.985,6.985,0,0,0-3.321-1.934,5.769,5.769,0,0,0-1.738-.24,18.4,18.4,0,0,1-7.315-1.169c-1.353-.464-2.74-.832-4.109-1.248a1.489,1.489,0,0,1-1.2-1.817A1.547,1.547,0,0,1,118.722,182q2.55.51,5.1,1.026a2.165,2.165,0,0,0,.448.056.7.7,0,0,0,.6-1.1,2.3,2.3,0,0,0-.331-.37q-4.787-4.79-9.577-9.577a1.27,1.27,0,0,1-.481-1.025,1.082,1.082,0,0,1,1.694-.8,2.742,2.742,0,0,1,.4.362q3.172,3.17,6.341,6.343c.064.064.127.129.192.192.406.4.835.45,1.15.144.342-.332.3-.739-.142-1.18-.553-.558-1.1-1.116-1.666-1.666-.28-.274-.608-.6-.373-.97a3.027,3.027,0,0,1,1.023-.955c.156-.09.58.107.773.289.921.872,1.8,1.783,2.7,2.68.075.075.146.153.225.223a.731.731,0,0,0,1.053.03.72.72,0,0,0-.029-1.052c-.588-.607-1.191-1.2-1.791-1.8-.262-.26-.612-.571-.38-.922a3.552,3.552,0,0,1,1.092-1c.135-.083.542.125.728.3.918.875,1.8,1.784,2.7,2.681.075.075.146.154.225.223a.732.732,0,0,0,1.021.034.7.7,0,0,0,0-1.048c-.595-.622-1.206-1.228-1.823-1.828-.287-.28-.583-.626-.333-.979a3.7,3.7,0,0,1,1.1-.934c.119-.073.473.088.625.238,1.909,1.891,3.816,3.786,5.691,5.711a5.779,5.779,0,0,1,1.508,3.417,7.058,7.058,0,0,0,1.923,4.061c.7.731,1.444,1.415,2.178,2.131" transform="translate(-100.642 -148.897)" fill="#fff"/>
    <rect id="Rectangle_6456" data-name="Rectangle 6456" width="1.389" height="1.397" transform="translate(31.95 7.263)" fill="#fff"/>
    <path id="Path_19540" data-name="Path 19540" d="M270.167,103.61v-1.424H271.6v1.424l.013-.012h-1.463Z" transform="translate(-237.511 -89.839)" fill="#fff"/>
    <path id="Path_19541" data-name="Path 19541" d="M259.892,115.321h-1.424v-1.437h1.425l-.013-.012v1.463Z" transform="translate(-227.237 -100.113)" fill="#fff"/>
    <path id="Path_19542" data-name="Path 19542" d="M282.148,113.883h1.425v1.437h-1.424l.012.013v-1.463Z" transform="translate(-248.056 -100.112)" fill="#fff"/>
    <path id="Path_19543" data-name="Path 19543" d="M271.6,125.866v1.425h-1.438v-1.425l-.012.013h1.463Z" transform="translate(-237.511 -110.657)" fill="#fff"/>
    <path id="Path_19544" data-name="Path 19544" d="M271.616,115.334h-1.463v-1.463h1.463Z" transform="translate(-237.511 -100.112)" fill="#fff"/>
    <path id="Path_19545" data-name="Path 19545" d="M75.24,70.125c1.095,0,2.068,0,3.041,0,.644,0,.8-.112,1.029-.727.437-1.185.874-2.37,1.343-3.643.088.187.15.3.192.411.4,1.088.8,2.177,1.2,3.265.211.573.387.692,1.009.693l2.852,0a.829.829,0,0,1,.152.049l-2.079,1.314c-.729.46-.769.568-.523,1.4.317,1.08.633,2.16.986,3.362-.954-.687-1.807-1.3-2.657-1.913-1.114-.806-1.111-.805-2.211-.006-.852.619-1.709,1.233-2.663,1.921.163-.57.292-1.028.425-1.484.207-.708.405-1.42.632-2.122a.8.8,0,0,0-.392-1.034c-.628-.389-1.25-.786-1.874-1.182-.121-.077-.238-.16-.461-.311" transform="translate(-66.149 -57.81)" fill="#fff"/>
    <rect id="Rectangle_6457" data-name="Rectangle 6457" width="1.463" height="1.463" transform="translate(21.043 5.784)" fill="#fff"/>
  </g>
</svg>
