<svg xmlns="http://www.w3.org/2000/svg" width="18.055" height="18.055" viewBox="0 0 18.055 18.055">
  <path id="agg_inactive" d="M1057.655,826.172v13.31a.8.8,0,0,0-.031.1,2.42,2.42,0,0,1-1.678,1.958c-.15.053-.309.079-.463.118h-13.311a.771.771,0,0,0-.1-.031,2.423,2.423,0,0,1-1.959-1.677c-.053-.15-.079-.309-.117-.465v-13.31c.011-.038.025-.076.033-.115a2.411,2.411,0,0,1,1.5-1.874,5.076,5.076,0,0,1,.641-.183h13.311a.783.783,0,0,0,.1.031,2.419,2.419,0,0,1,1.958,1.678C1057.591,825.858,1057.617,826.017,1057.655,826.172Zm-.98,1.747c0-.479,0-.938,0-1.4a1.472,1.472,0,0,0-1.555-1.542h-1.873c-3.361,0-7.036,0-10.71,0a1.474,1.474,0,0,0-1.557,1.558c0,.4,0,.8,0,1.207,0,.056.006.112.009.174Zm-5.529,5.165h-4.634V836.5h4.634Zm-10.157,3.41h4.514v-3.414h-4.514Zm15.674-3.411h-4.512V836.5h4.512Zm-10.157-1h4.635v-3.169h-4.635Zm.005,5.41v3.173h4.631V837.49Zm-5.52-8.585v3.177h4.511v-3.177Zm11.156,0v3.171h4.512V828.91Zm-11.16,8.584c0,.064-.008.12-.008.177,0,.477,0,.954,0,1.431a1.478,1.478,0,0,0,1.578,1.573q1.379,0,2.758,0h.189v-3.18Zm15.688,0h-4.53v3.171c.063,0,.119.007.175.007.931,0,1.862,0,2.793,0a1.476,1.476,0,0,0,1.562-1.553c0-.4,0-.793,0-1.189Z" transform="translate(-1039.8 -823.8)" fill="#dee4fe" stroke="#dee4fe" stroke-width="0.4"/>
</svg>
