<svg xmlns="http://www.w3.org/2000/svg" width="36" height="36" viewBox="0 0 36 36">
  <g id="Group_35347" data-name="Group 35347" transform="translate(-760 -139)">
    <circle id="Ellipse_1336" data-name="Ellipse 1336" cx="18" cy="18" r="18" transform="translate(760 139)" fill="#e8fffd"/>
    <path id="Path_74994" data-name="Path 74994" d="M1189.928,924c.341.064.682.13,1.024.192a15.72,15.72,0,0,0,3.046.338,13.321,13.321,0,0,0,2.962-.431.845.845,0,0,1,.956.332.855.855,0,0,1,.013,1.014q-1.051,1.739-2.1,3.48c-.035.059-.068.119-.092.16.369.217.747.4,1.084.644a5.8,5.8,0,0,1,2.5,4.631c.1,1.755.2,3.508.3,5.262.034.593.07,1.185.1,1.778a.431.431,0,0,1-.47.482c-.582,0-1.164,0-1.746,0h-9.69c-.442,0-.585-.157-.559-.593.088-1.493.17-2.986.259-4.478.062-1.028.073-2.063.212-3.081a5.652,5.652,0,0,1,3.4-4.556c.036-.017.073-.033.13-.058-.035-.06-.065-.113-.1-.165-.687-1.147-1.354-2.307-2.071-3.435a.937.937,0,0,1,.483-1.516Zm8.895,17.011c0-.167.007-.313,0-.457q-.132-2.291-.269-4.583c-.043-.72-.056-1.445-.149-2.158a4.951,4.951,0,0,0-5.564-4.232,4.892,4.892,0,0,0-4.16,3.773,14.385,14.385,0,0,0-.212,2.1c-.1,1.532-.184,3.066-.274,4.6-.019.317-.034.635-.051.961Zm-9.115-16.156,2.393,3.988.346-.078c-.216-.681-.427-1.345-.636-2.01a.429.429,0,1,1,.811-.266c.083.248.161.5.24.747l.459,1.438h.4c.006-.019.012-.034.016-.05.122-.491.239-.983.368-1.471a.424.424,0,1,1,.824.2c-.017.085-.04.17-.061.254l-.295,1.167.3.06,2.361-3.911c-.107.021-.163.03-.218.044a12.951,12.951,0,0,1-3.384.421,18.537,18.537,0,0,1-2.888-.359C1190.411,924.972,1190.08,924.918,1189.707,924.855Z" transform="translate(-415.26 -776)" fill="#37b1a8" stroke="#37b1a8" stroke-width="0.3"/>
    <path id="Path_74995" data-name="Path 74995" d="M1261.788,1070.52h-1.5c-.189,0-.379,0-.568,0a.483.483,0,0,1-.508-.482.478.478,0,0,1,.506-.484c.64-.006,1.279,0,1.919,0,.038,0,.076-.005.114-.008a1.06,1.06,0,0,0-.948-.663c-.346,0-.692,0-1.038,0a.489.489,0,0,1-.554-.475c0-.3.209-.49.558-.49q1.8,0,3.6,0c.348,0,.563.194.557.491s-.217.471-.555.471h-.822c.083.213.153.408.237.6a.18.18,0,0,0,.136.07c.169.009.339,0,.509.005a.482.482,0,1,1,.016.964c-.169.01-.34-.005-.509.007a.208.208,0,0,0-.156.094,2.1,2.1,0,0,1-1.8,1.509c-.012,0-.024.009-.107.084a.607.607,0,0,1,.176.079q.809.755,1.61,1.518a.489.489,0,0,1,.128.633.48.48,0,0,1-.772.083c-.408-.376-.809-.76-1.212-1.141q-.7-.658-1.4-1.316a.482.482,0,0,1-.172-.576.5.5,0,0,1,.523-.3c.346,0,.692.011,1.038,0A1.113,1.113,0,0,0,1261.788,1070.52Z" transform="translate(-483.078 -911.658)" fill="#37b1a8"/>
  </g>
</svg>
