<svg id="Group_36478" data-name="Group 36478" xmlns="http://www.w3.org/2000/svg" xmlns:xlink="http://www.w3.org/1999/xlink" width="33.823" height="35.579" viewBox="0 0 33.823 35.579">
  <defs>
    <clipPath id="clip-path">
      <rect id="Rectangle_6472" data-name="Rectangle 6472" width="33.823" height="35.579" fill="#fff"/>
    </clipPath>
  </defs>
  <g id="Group_36477" data-name="Group 36477" clip-path="url(#clip-path)">
    <path id="Path_19558" data-name="Path 19558" d="M.013,98.474H33.834v.556q0,10.353,0,20.707a3.734,3.734,0,0,1-2.993,3.907,4.781,4.781,0,0,1-.8.069q-13.486.005-26.973,0c-1.814,0-2.965-1.248-3.049-3.3-.006-.157-.006-.315-.006-.472q0-10.511,0-21.021Zm24.943,4.378c-.431,0-.861-.006-1.292,0a.868.868,0,0,0-.889.971q-.027,1.453,0,2.907c.011.585.311.952.822.967q1.36.041,2.722-.006c.508-.018.762-.345.768-.912q.016-1.493,0-2.986a.856.856,0,0,0-.84-.939c-.43-.012-.861,0-1.292,0M14.349,115.967q0,.687,0,1.375c0,.026,0,.052,0,.079.021.568.331.939.834.947.884.014,1.769.012,2.653,0a.765.765,0,0,0,.814-.859q.041-1.55,0-3.1a.807.807,0,0,0-.781-.879q-1.36-.042-2.722,0c-.491.014-.785.394-.8.947-.01.5,0,1,0,1.493m12.741.021h0c0-.484,0-.969,0-1.454-.008-.62-.308-1-.851-1.013q-1.309-.032-2.618,0a.834.834,0,0,0-.84.9q-.037,1.531,0,3.063a.831.831,0,0,0,.855.882q1.309.015,2.618,0c.534-.007.817-.33.83-.928.01-.484,0-.969,0-1.454M14.349,105.263c0,.485-.006.969,0,1.454.009.58.292.961.8.978.907.03,1.815.028,2.722,0,.5-.016.76-.3.775-.861q.04-1.53,0-3.063a.837.837,0,0,0-.861-.916q-1.292-.013-2.583,0a.857.857,0,0,0-.86.955c-.01.484,0,.969,0,1.453m-8.325,10.7c0,.459,0,.917,0,1.376.007.663.321,1.029.9,1.035q1.222.012,2.445,0a.96.96,0,0,0,.968-1.046q.032-1.434,0-2.869a.849.849,0,0,0-.85-.935c-.873-.02-1.747-.021-2.619,0-.53.014-.83.388-.84.985-.008.485,0,.969,0,1.454m0-10.728c0,.485,0,.97,0,1.454.007.622.3,1,.85,1.015q1.274.037,2.549,0a.944.944,0,0,0,.913-1.025q.034-1.453,0-2.908a.84.84,0,0,0-.867-.911q-1.292-.012-2.585,0a.86.86,0,0,0-.855.963c-.009.471,0,.943,0,1.415" transform="translate(-0.012 -88.136)" fill="#fff"/>
    <path id="Path_19559" data-name="Path 19559" d="M5.9.012c0,.546,0,1.054,0,1.563,0,.643-.01,1.286,0,1.929A1.123,1.123,0,0,0,6.97,4.737,1.113,1.113,0,0,0,8.007,3.514c.014-1,0-1.995,0-2.992V.029H24.849c.006.148.017.288.017.428,0,1.024-.007,2.047.005,3.071A1.173,1.173,0,0,0,25.645,4.7a.951.951,0,0,0,1.132-.476,2.06,2.06,0,0,0,.194-.855c.022-1.1.009-2.2.009-3.28.042-.04.059-.072.076-.071,1.223.015,2.452-.055,3.666.073a3.638,3.638,0,0,1,2.963,3.023,1.517,1.517,0,0,1,.029.233q.006,2.126.007,4.251c0,.063-.011.126-.02.211H.025C.017,7.717,0,7.631,0,7.545,0,6.206,0,4.868,0,3.529A4.2,4.2,0,0,1,.577,1.335,2.416,2.416,0,0,1,2.55.023C3.643-.023,4.739.012,5.9.012" transform="translate(0 0.001)" fill="#fff"/>
  </g>
</svg>
