<svg xmlns="http://www.w3.org/2000/svg" width="10.993" height="11" viewBox="0 0 10.993 11"><defs><style>.a{fill:#797979;}</style></defs><path class="a" d="M144.6,266.3c-.011.029-.023.058-.033.088a.711.711,0,0,1-1.149.321c-.032-.028-.062-.059-.093-.089l-4.12-4.12a1.26,1.26,0,0,1-.087-.109c-.046.044-.077.072-.106.1q-2.075,2.075-4.15,4.151a.713.713,0,0,1-1.084-.927c.032-.038.069-.073.1-.108l4.12-4.12a.1.1,0,1,0-.007-.2l-4.143-4.142a.7.7,0,0,1,.05-1.108,1.764,1.764,0,0,1,.371-.152h.086a1.061,1.061,0,0,1,.62.37q2.015,2.023,4.036,4.039c.027.027.056.053.109.1a.755.755,0,0,1,.076-.11q2.014-2.016,4.028-4.032a1.058,1.058,0,0,1,.62-.37h.086a2.759,2.759,0,0,1,.387.163.723.723,0,0,1,.279.438v.236a1.131,1.131,0,0,1-.347.528q-2.029,2.022-4.053,4.049a.692.692,0,0,1-.123.076c.066.056.1.079.125.107q2.03,2.029,4.06,4.057a1.1,1.1,0,0,1,.337.522Z" transform="translate(-133.61 -255.89)"/></svg>