<svg xmlns="http://www.w3.org/2000/svg" width="36" height="36" viewBox="0 0 36 36">
  <g id="Group_35349" data-name="Group 35349" transform="translate(-1176 -139)">
    <circle id="Ellipse_1338" data-name="Ellipse 1338" cx="18" cy="18" r="18" transform="translate(1176 139)" fill="#ffe6fe"/>
    <path id="Path_75001" data-name="Path 75001" d="M1262.842,894c.39.086.791.139,1.169.263a4.983,4.983,0,1,1-2.274-.216c.1-.014.193-.031.29-.047Zm3.832,4.995a4.237,4.237,0,1,0-4.233,4.247A4.231,4.231,0,0,0,1266.675,898.995Z" transform="translate(-65.257 -746)" fill="#b561b2" stroke="#b561b2" stroke-width="0.4"/>
    <path id="Path_75002" data-name="Path 75002" d="M1120.638,1093.465c.408-.2.812-.391,1.215-.589a6.106,6.106,0,0,1,2.239-.726c.705-.05,1.417-.021,2.125-.01.549.008,1.1.046,1.647.062a1.4,1.4,0,0,1,.238,2.78q-.944.184-1.889.362c-.26.05-.3.166-.2.405a.621.621,0,0,0,.74.405c.5-.052,1-.05,1.5-.059a3.068,3.068,0,0,0,1.927-.7q1.259-1.02,2.518-2.039a1.427,1.427,0,0,1,1.765-.089,1.4,1.4,0,0,1,.139,2.2c-1.058.909-2.125,1.81-3.23,2.659a5.429,5.429,0,0,1-3.534,1.111c-1.24-.034-2.481-.082-3.718-.165a9.93,9.93,0,0,0-2.757.214c-.2.042-.4.076-.624.118,0,.121,0,.243,0,.364a1.19,1.19,0,0,1-1.228,1.209c-.5,0-1,0-1.5,0a1.182,1.182,0,0,1-1.21-1.13c0-.055-.005-.111-.005-.166q0-2.8,0-5.593a1.251,1.251,0,0,1,.389-.983,1.169,1.169,0,0,1,.809-.313c.494,0,.988,0,1.482,0a1.213,1.213,0,0,1,1.114.606C1120.6,1093.417,1120.616,1093.435,1120.638,1093.465Zm.1,5.151c.081-.012.141-.019.2-.03a11.485,11.485,0,0,1,2.714-.306c1.337.074,2.676.128,4.014.189a4.926,4.926,0,0,0,2.77-.653,9.809,9.809,0,0,0,1.18-.857c.811-.656,1.608-1.329,2.411-2a.637.637,0,0,0,.17-.885.659.659,0,0,0-1.026-.123c-.855.689-1.706,1.384-2.564,2.071a3.354,3.354,0,0,1-1.759.764c-.686.07-1.382.047-2.068.12a1.321,1.321,0,0,1-1.458-.844.987.987,0,0,1,.673-1.464c.646-.131,1.3-.248,1.944-.37a.657.657,0,0,0,.585-.675.638.638,0,0,0-.68-.589c-.722-.028-1.444-.05-2.164-.095a5.959,5.959,0,0,0-2.951.438c-.615.286-1.222.588-1.837.874a.233.233,0,0,0-.154.252c0,1.327,0,2.655,0,3.982Zm-.77-1.711q0-1.425,0-2.85c0-.339-.148-.491-.48-.492q-.722,0-1.444,0a.426.426,0,0,0-.484.491q0,2.832,0,5.664c0,.341.154.491.5.492q.7,0,1.407,0c.359,0,.5-.145.5-.51Q1119.972,1098.3,1119.971,1096.905Z" transform="translate(68.205 -934.008)" fill="#b561b2" stroke="#b561b2" stroke-width="0.4"/>
    <path id="Path_75006" data-name="Path 75006" d="M1321.218,944.172l.214.529c.136,0,.289,0,.442,0a.4.4,0,0,1,.438.38.38.38,0,0,1-.446.383.507.507,0,0,0-.606.372,1.484,1.484,0,0,1-1.148.868c-.059.011-.117.025-.2.043l.908.864c.157.149.316.295.471.445a.39.39,0,0,1,.056.587.382.382,0,0,1-.574-.029q-1.024-.965-2.045-1.933a.4.4,0,0,1,.285-.719c.271,0,.543,0,.814,0a.869.869,0,0,0,.771-.475c-.068-.006-.119-.014-.169-.014h-1.333c-.354,0-.542-.137-.539-.39s.189-.381.549-.381h1.464a.782.782,0,0,0-.729-.525c-.29-.008-.58,0-.87-.006a.382.382,0,0,1-.388-.511.369.369,0,0,1,.37-.255q1.481,0,2.962,0a.383.383,0,1,1,0,.765C1321.69,944.179,1321.462,944.172,1321.218,944.172Z" transform="translate(-123.256 -792.879)" fill="#b561b2"/>
  </g>
</svg>
