<svg xmlns="http://www.w3.org/2000/svg" width="36" height="36" viewBox="0 0 36 36">
  <g id="Group_35345" data-name="Group 35345" transform="translate(-392 -139)">
    <circle id="Ellipse_1334" data-name="Ellipse 1334" cx="18" cy="18" r="18" transform="translate(392 139)" fill="#e0f0fd"/>
    <g id="Group_35285" data-name="Group 35285" transform="translate(401.087 147.559)">
      <g id="Group_35277" data-name="Group 35277">
        <path id="Path_74977" data-name="Path 74977" d="M9.116,18.656A8.975,8.975,0,0,1,.159,11.368a8.883,8.883,0,0,1,7.2-10.4A17.224,17.224,0,0,1,9.715.826a.705.705,0,0,1,.681.735.737.737,0,0,1-.724.7c-.494.014-.99,0-1.481.043a7.418,7.418,0,1,0,8.058,8.472,7.04,7.04,0,0,0-.044-2.305c-.107-.58.191-1.011.7-1.022a.751.751,0,0,1,.761.614,8.915,8.915,0,0,1-7.038,10.387c-.5.1-1.008.138-1.513.2" transform="translate(0 -0.774)" fill="#3362cc"/>
        <path id="Path_74979" data-name="Path 74979" d="M193.6,2.659c.4-.394.752-.746,1.106-1.1.437-.437.87-.877,1.31-1.312a.743.743,0,1,1,1.054,1.047q-1.094,1.1-2.2,2.193a2.305,2.305,0,0,1-.2.159l.027.068c.318,0,.636,0,.954,0a1.524,1.524,0,0,1,.388.038.73.73,0,0,1,.522.78.722.722,0,0,1-.671.657c-1.035.013-2.07.015-3.1,0a.7.7,0,0,1-.668-.707q-.014-1.518,0-3.036a.726.726,0,0,1,.749-.7.743.743,0,0,1,.728.725c.007.193,0,.386,0,.579s0,.368,0,.608" transform="matrix(0.999, 0.035, -0.035, 0.999, -180.025, -6.794)" fill="#3362cc"/>
      </g>
    </g>
    <g id="Group_35286" data-name="Group 35286" transform="translate(406.436 153)">
      <g id="Group_35281" data-name="Group 35281">
        <path id="Path_74980" data-name="Path 74980" d="M1.875,5.484c.054.058.085.092.117.124q1.1,1.1,2.2,2.2a.531.531,0,0,1,.044.787.52.52,0,0,1-.765.022c-.234-.226-.461-.459-.691-.689Q1.487,6.636.2,5.348a.519.519,0,0,1-.158-.591.494.494,0,0,1,.52-.37c.552,0,1.1.005,1.656,0a1.635,1.635,0,0,0,1.467-.938,1.409,1.409,0,0,0,.063-.158H3.59c-1.006,0-2.012,0-3.017,0a.533.533,0,0,1-.547-.714A.49.49,0,0,1,.466,2.2C.53,2.2.595,2.2.659,2.2H3.744a1.127,1.127,0,0,0-.053-.143A1.632,1.632,0,0,0,2.233,1.1c-.556-.011-1.113,0-1.669,0A.534.534,0,0,1,.025.386a.474.474,0,0,1,.4-.368A1.3,1.3,0,0,1,.654,0H5.47c.051,0,.1,0,.154,0a.513.513,0,0,1,.5.582.508.508,0,0,1-.542.512c-.676,0-.352,0-1.029,0H4.393c.031.053.057.09.075.131.125.28.258.557.369.842.038.1.076.128.177.127q.777-.008,1.554,0a.53.53,0,0,1,.545.677.5.5,0,0,1-.529.412c-.509,0-1.019.007-1.528,0-.136,0-.189.036-.221.169A2.787,2.787,0,0,1,2.191,5.484c-.094,0-.188,0-.316,0" transform="translate(0 0)" fill="#3362cc"/>
      </g>
    </g>
  </g>
</svg>
