<svg xmlns="http://www.w3.org/2000/svg" xmlns:xlink="http://www.w3.org/1999/xlink" width="43" height="43" viewBox="0 0 43 43">
  <defs>
    <clipPath id="clip-path">
      <rect id="Rectangle_6473" data-name="Rectangle 6473" width="43" height="43" transform="translate(-0.418 0)" fill="#fff"/>
    </clipPath>
  </defs>
  <g id="Group_36480" data-name="Group 36480" transform="translate(1.342 0.923)">
    <g id="Group_36479" data-name="Group 36479" transform="translate(-0.924 -0.924)" clip-path="url(#clip-path)">
      <path id="Path_19560" data-name="Path 19560" d="M106.935,240.1a3.89,3.89,0,0,1-1.958,2.463q-3.874,2.473-7.7,5.026a7.331,7.331,0,0,1-4.226,1.266c-6.6-.023-13.2-.01-19.8-.01h-.561v-.4q0-5.9-.007-11.8a.587.587,0,0,1,.328-.582,13.267,13.267,0,0,1,3.821-1.8,9.137,9.137,0,0,1,7.774,1.575,3.022,3.022,0,0,0,1.99.645c1.951-.046,3.9-.026,5.857-.011a2.913,2.913,0,0,1,2.922,2.735,2.88,2.88,0,0,1-2.861,3.031c-2.049.017-4.1,0-6.146.007a1.228,1.228,0,0,0-1.206,1.691,1.132,1.132,0,0,0,1.041.762c2.377,0,4.763.087,7.129-.087a5.17,5.17,0,0,0,4.445-4.277.9.9,0,0,1,.359-.531c1.312-.855,2.671-1.641,3.957-2.533a3.018,3.018,0,0,1,4.783,1.81.427.427,0,0,0,.055.11Z" transform="translate(-64.354 -207.918)" fill="#fff"/>
      <path id="Path_19561" data-name="Path 19561" d="M76.577,0c.416.078.835.145,1.248.234A10.28,10.28,0,1,1,74.16.106c.2-.032.4-.07.6-.106Zm2.344,7.784a3.585,3.585,0,0,0-.081-.432,3.2,3.2,0,0,0-1.611-1.994.512.512,0,0,1-.336-.486,1.216,1.216,0,0,0-1.218-1.158A1.272,1.272,0,0,0,74.423,4.9a.585.585,0,0,1-.242.394,3.307,3.307,0,0,0,1.439,6.256.826.826,0,1,1-.763.992,1.238,1.238,0,0,0-1.573-.93,1.257,1.257,0,0,0-.789,1.662,3.214,3.214,0,0,0,1.648,2.014.481.481,0,0,1,.3.465,1.226,1.226,0,0,0,2.445.054.585.585,0,0,1,.368-.552A3.283,3.283,0,0,0,76.529,9.2a7.728,7.728,0,0,0-.936-.128.823.823,0,1,1,.843-1.1c.057.139.089.29.157.423a1.239,1.239,0,0,0,1.343.66,1.275,1.275,0,0,0,.986-1.268" transform="translate(-57.84 0.337)" fill="#fff"/>
      <path id="Path_19562" data-name="Path 19562" d="M261.117,31.6c-.635.806-1.256,1.624-1.908,2.417-1.2,1.455-2.409,2.9-3.615,4.342a1.263,1.263,0,0,1-2.152,0q-2.559-3.075-5.123-6.145a1.265,1.265,0,0,1,1.028-2.176c.274.009.548,0,.95,0-.432-.783-.8-1.508-1.227-2.2a1.182,1.182,0,0,1-.178-.915,12.618,12.618,0,0,0-2.821-10.82.6.6,0,0,1-.144-.253A21.145,21.145,0,0,1,258.1,30.042c.436,0,.89.029,1.34-.006a1.534,1.534,0,0,1,1.673.9Z" transform="translate(-218.536 -13.77)" fill="#fff"/>
      <path id="Path_19563" data-name="Path 19563" d="M0,227.294a1.54,1.54,0,0,1,1.661-.917c.836.044,1.675.007,2.513.011a1.249,1.249,0,0,1,1.353,1.365q0,7.295.006,14.589a1.444,1.444,0,0,1-.913,1.372H.908A1.9,1.9,0,0,1,0,242.805Z" transform="translate(0.337 -201.131)" fill="#fff"/>
    </g>
  </g>
</svg>
