<svg xmlns="http://www.w3.org/2000/svg" width="16.856" height="16.856" viewBox="0 0 16.856 16.856">
  <g id="Dashboard" transform="translate(0.1 0.1)">
    <g id="Group_35451" data-name="Group 35451">
      <path id="Path_18467" data-name="Path 18467" d="M284.855,8.686a.2.2,0,0,0-.023.042,1.219,1.219,0,0,1-1.285.99h-4.732c-.108,0-.217,0-.325,0a1.223,1.223,0,0,1-1.27-1.272c0-.526,0-1.052,0-1.577V1.47A1.272,1.272,0,0,1,278.251,0h5.6a1.249,1.249,0,0,1,.727.45,4.5,4.5,0,0,1,.281.591Zm-1.041-3.821q0-1.772,0-3.544c0-.24-.041-.28-.286-.28h-4.991c-.23,0-.278.046-.278.274q0,3.544,0,7.088c0,.225.051.274.28.274h4.991c.238,0,.283-.046.283-.285q0-1.764,0-3.528" transform="translate(-268.2)" fill="#dee4fe" stroke="#dae0fa" stroke-width="0.2"/>
      <path id="Path_18468" data-name="Path 18468" d="M0,214.193c.024-.077.046-.155.074-.231a1.2,1.2,0,0,1,1.137-.8q2.6-.012,5.2,0a1.209,1.209,0,0,1,1.221,1.284q0,2.073,0,4.147v2.8A1.277,1.277,0,0,1,6.6,222.878H1.041a1.272,1.272,0,0,1-.891-.638A3.773,3.773,0,0,1,0,221.87v-7.677m1.041,3.816q0,1.772,0,3.544c0,.243.041.284.281.285H6.313c.237,0,.282-.045.282-.286q0-3.528,0-7.056c0-.249-.045-.3-.292-.3H1.329c-.247,0-.288.043-.288.3q0,1.756,0,3.512" transform="translate(0 -206.223)" fill="#dee4fe" stroke="#dae0fa" stroke-width="0.2"/>
      <path id="Path_18469" data-name="Path 18469" d="M6.6,0a3.565,3.565,0,0,1,.6.3,1.124,1.124,0,0,1,.43.941c0,1.024.007,2.049,0,3.073A1.2,1.2,0,0,1,6.4,5.552q-2.577.012-5.154,0A1.207,1.207,0,0,1,.03,4.6.622.622,0,0,0,0,4.522V1.008C.02.954.041.9.06.844A1.177,1.177,0,0,1,.695.122C.8.074.9.04,1.008,0ZM3.825,1.041H1.29c-.2,0-.249.052-.249.251q0,1.479,0,2.958c0,.209.051.263.256.263H6.336c.205,0,.259-.055.26-.262q0-1.471,0-2.942c0-.218-.05-.268-.267-.268h-2.5" fill="#dee4fe" stroke="#dae0fa" stroke-width="0.2"/>
      <path id="Path_18470" data-name="Path 18470" d="M278.129,346.764a3.1,3.1,0,0,1-.348-.129,1.162,1.162,0,0,1-.681-1.082c-.011-1.046-.014-2.092,0-3.138a1.2,1.2,0,0,1,1.25-1.2c1.247-.006,2.493,0,3.74,0,.444,0,.889,0,1.333,0a1.219,1.219,0,0,1,1.284.99.2.2,0,0,0,.023.042v3.481a4.068,4.068,0,0,1-.26.565,1.217,1.217,0,0,1-.781.476Zm2.783-1.041h2.5c.233,0,.277-.043.277-.272q0-1.463,0-2.926c0-.226-.048-.275-.277-.275h-5.006c-.218,0-.271.052-.271.266q0,1.471,0,2.942c0,.215.052.264.271.264h2.5" transform="translate(-268.077 -330.109)" fill="#dee4fe" stroke="#dae0fa" stroke-width="0.2"/>
    </g>
  </g>
</svg>
