<svg xmlns="http://www.w3.org/2000/svg" width="32" height="32" viewBox="0 0 32 32">
  <path id="Path_75758" data-name="Path 75758" d="M1119,888h2a1.784,1.784,0,0,0,.24.051,15.228,15.228,0,0,1,6.733,2.084,15.794,15.794,0,0,1,7.781,11.108c.109.581.165,1.171.246,1.757v2a1.785,1.785,0,0,0-.052.241,15.416,15.416,0,0,1-2.611,7.582,15.779,15.779,0,0,1-10.551,6.928c-.59.11-1.191.167-1.786.248h-2a1.814,1.814,0,0,0-.24-.052,16.02,16.02,0,0,1-14.521-13.222c-.1-.571-.161-1.151-.239-1.726v-2c.025-.2.053-.409.075-.615a16.028,16.028,0,0,1,13.2-14.144C1117.846,888.142,1118.424,888.079,1119,888Zm7.93,6.205a11.984,11.984,0,0,0-16.711,16.711Zm2.869,2.881L1113.087,913.8a11.987,11.987,0,0,0,16.711-16.711Z" transform="translate(-1104 -888)"/>
</svg>
