<svg id="Expire_Soon" data-name="Expire Soon" xmlns="http://www.w3.org/2000/svg" xmlns:xlink="http://www.w3.org/1999/xlink" width="25.035" height="25.605" viewBox="0 0 25.035 25.605">
  <defs>
    <clipPath id="clip-path">
      <rect id="Rectangle_5936" data-name="Rectangle 5936" width="25.035" height="25.605" fill="#fff"/>
    </clipPath>
  </defs>
  <g id="Group_35485" data-name="Group 35485" clip-path="url(#clip-path)">
    <path id="Path_18512" data-name="Path 18512" d="M274.417,0a1.019,1.019,0,0,1,.694,1.107c-.015,1.548,0,3.1-.005,4.645,0,.746-.315,1.058-1.066,1.059-.45,0-.9,0-1.349,0a.849.849,0,0,1-.91-.884c-.011-1.682-.008-3.363,0-5.045A.915.915,0,0,1,272.466,0Z" transform="translate(-253.998)" fill="#fff"/>
    <path id="Path_18513" data-name="Path 18513" d="M61.9,0a1.009,1.009,0,0,1,.7,1.1c-.016,1.557-.005,3.113-.006,4.67,0,.717-.32,1.039-1.033,1.04q-.637,0-1.274,0a.894.894,0,0,1-1.019-1.029q0-1.823,0-3.646c0-.341.015-.683,0-1.024A1,1,0,0,1,59.952,0Z" transform="translate(-55.389)" fill="#fff"/>
    <path id="Path_18514" data-name="Path 18514" d="M2.221,43.422v.294c0,.892,0,1.783,0,2.675a2.549,2.549,0,0,0,2.65,2.667q.688.005,1.375,0a2.562,2.562,0,0,0,2.667-2.679q0-1.325,0-2.65v-.287h7.206v.273c0,.908,0,1.817,0,2.725A2.538,2.538,0,0,0,18.6,49.048c.582.027,1.167.027,1.749,0a2.522,2.522,0,0,0,2.463-2.568c.009-.917,0-1.833,0-2.75v-.269a2.268,2.268,0,0,1,2.2,2.006c.014.149.018.3.018.449q0,8.887,0,17.774a2.394,2.394,0,0,1-.908,2.013,2.426,2.426,0,0,1-1.566.484q-8.126,0-16.252,0c-1.308,0-2.617,0-3.925,0a2.28,2.28,0,0,1-2.3-1.715A2.768,2.768,0,0,1,0,63.729Q0,54.8,0,45.88A2.28,2.28,0,0,1,1.676,43.53a5.164,5.164,0,0,1,.544-.108M12.491,63.737h8.427a1.021,1.021,0,0,0,1.148-1.157q0-4.525,0-9.05a1.019,1.019,0,0,0-1.155-1.149H4.083A1.026,1.026,0,0,0,2.92,53.55q0,4.513,0,9.025a1.026,1.026,0,0,0,1.17,1.162h8.4" transform="translate(0 -40.582)" fill="#fff"/>
    <path id="Path_18515" data-name="Path 18515" d="M168.495,207.114c.308,0,.617,0,.925,0a.6.6,0,0,1,.657.65c.008.625.007,1.249,0,1.874a.588.588,0,0,1-.623.659q-.974.026-1.949,0a.588.588,0,0,1-.62-.662q-.01-.924,0-1.849a.606.606,0,0,1,.686-.672c.308,0,.616,0,.925,0" transform="translate(-155.965 -193.566)" fill="#fff"/>
    <path id="Path_18516" data-name="Path 18516" d="M168.452,287.643c-.308,0-.617.005-.925,0a.6.6,0,0,1-.659-.65q-.013-.949,0-1.9a.587.587,0,0,1,.621-.637q.974-.023,1.949,0a.587.587,0,0,1,.621.637c.01.641.011,1.283,0,1.924a.594.594,0,0,1-.632.626h-.975" transform="translate(-155.949 -265.84)" fill="#fff"/>
    <path id="Path_18517" data-name="Path 18517" d="M89.5,208.683c0-.316,0-.633,0-.949a.581.581,0,0,1,.633-.643q.962-.011,1.924,0a.557.557,0,0,1,.618.578q.03,1.011,0,2.022a.556.556,0,0,1-.615.582c-.649.016-1.3.018-1.948,0-.41-.012-.605-.245-.611-.665,0-.308,0-.616,0-.924" transform="translate(-83.645 -193.541)" fill="#fff"/>
    <path id="Path_18518" data-name="Path 18518" d="M247.57,208.692c0,.316,0,.633,0,.949a.576.576,0,0,1-.61.641c-.649.018-1.3.017-1.948,0a.574.574,0,0,1-.622-.63q-.021-.961,0-1.923a.581.581,0,0,1,.648-.629q.937-.009,1.874,0a.594.594,0,0,1,.66.668c0,.017,0,.033,0,.05q0,.437,0,.874" transform="translate(-228.394 -193.552)" fill="#fff"/>
    <path id="Path_18519" data-name="Path 18519" d="M89.5,286.04c0-.316-.006-.633,0-.949a.582.582,0,0,1,.617-.636q.974-.022,1.949,0a.562.562,0,0,1,.61.589q.028,1,0,2a.569.569,0,0,1-.627.6q-.962.013-1.924,0a.579.579,0,0,1-.625-.626c-.008-.325,0-.65,0-.974" transform="translate(-83.644 -265.84)" fill="#fff"/>
    <path id="Path_18520" data-name="Path 18520" d="M247.606,286.043c0,.325.006.65,0,.974a.574.574,0,0,1-.605.619q-.987.018-1.974,0a.552.552,0,0,1-.594-.576q-.029-1.011,0-2.023a.561.561,0,0,1,.614-.585c.649-.014,1.3-.015,1.949,0a.581.581,0,0,1,.612.641c.007.316,0,.633,0,.949" transform="translate(-228.43 -265.838)" fill="#fff"/>
  </g>
</svg>
