<svg xmlns="http://www.w3.org/2000/svg" width="40.322" height="31.889" viewBox="0 0 40.322 31.889"><defs><style>.a{fill:#536dfc;}</style></defs><g transform="translate(-135.615 -291.955)"><path class="a" d="M206.507,316.795a3.672,3.672,0,0,1-1.1,1.993,3.138,3.138,0,0,1-1.749.779v-.509q0-7.912,0-15.823a4.653,4.653,0,0,0-3.7-4.739,5.874,5.874,0,0,0-1.25-.114q-6.613-.012-13.225,0a.728.728,0,0,1-.635-.287c-.664-.813-1.362-1.6-2.015-2.418a2.347,2.347,0,0,0-1.982-.92c-3.28.014-6.56.006-9.84.006h-.508a3.074,3.074,0,0,1,1.141-2.063,3.288,3.288,0,0,1,2.186-.742q5.707,0,11.415,0a.888.888,0,0,1,.74.361c.819.991,1.66,1.964,2.473,2.959a.764.764,0,0,0,.669.3c4.605-.008,9.211,0,13.816-.008a3.531,3.531,0,0,1,2.527.892,3.664,3.664,0,0,1,1.034,1.986Z" transform="translate(-30.57 0)"/><path class="a" d="M153.652,353.585q-7.243,0-14.485,0a3.383,3.383,0,0,1-2.863-1.281,3.239,3.239,0,0,1-.684-2.049q-.006-10.51,0-21.019a3.232,3.232,0,0,1,3.316-3.318q5.747-.03,11.494.009a1.061,1.061,0,0,1,.69.35c.825.934,1.624,1.891,2.412,2.856a.984.984,0,0,0,.855.409q6.928-.024,13.855-.009a3.154,3.154,0,0,1,3.083,1.847,3.68,3.68,0,0,1,.341,1.514c.023,5.773.014,11.546.015,17.319a3.329,3.329,0,0,1-3.508,3.377C163.335,353.564,158.493,353.585,153.652,353.585Z" transform="translate(0 -29.751)"/></g></svg>