<svg id="Group_36796" data-name="Group 36796" xmlns="http://www.w3.org/2000/svg" width="21.242" height="21.242" viewBox="0 0 21.242 21.242">
  <g id="Group_33658" data-name="Group 33658" transform="translate(0 0)">
    <path id="Path_13374" data-name="Path 13374" d="M20.5,167.241a.8.8,0,0,1-.468-.753c-.156-2.761-.328-5.521-.5-8.281q-.175-2.877-.355-5.754c0-.041,0-.081,0-.135h12.1l-.1,1.646c-.091,0-.171,0-.25,0-.829.012-1.662-.022-2.487.047a5.137,5.137,0,0,0-4.495,4.214,4.527,4.527,0,0,0-.038,1.3,1.857,1.857,0,0,0,1.157,1.406,2.506,2.506,0,0,0,0,2.664,5.178,5.178,0,0,0-.587.4,1.959,1.959,0,0,0-.565,1.972,3.193,3.193,0,0,0,.566,1.277Z" transform="translate(-18.382 -145.999)" fill="#fb8a34"/>
    <path id="Path_13375" data-name="Path 13375" d="M176.559,225.825a.8.8,0,0,1-.835.462q-6.46-.013-12.92-.006c-.548,0-.779-.239-.764-.789a3.931,3.931,0,0,1,3.779-3.766q3.483-.043,6.968,0a3.921,3.921,0,0,1,3.731,3.362,1.249,1.249,0,0,0,.041.155Z" transform="translate(-155.316 -212.507)" fill="#fb8a34"/>
    <path id="Path_13376" data-name="Path 13376" d="M163.66,454.351a5.544,5.544,0,0,1-.892-.408,1.7,1.7,0,0,1-.72-1.32.637.637,0,0,1,.7-.762h8.582c1.465,0,2.93.009,4.395-.006a.794.794,0,0,1,.835.462v.415c-.015.053-.031.1-.045.158a1.855,1.855,0,0,1-1.2,1.35c-.121.046-.25.074-.375.11Z" transform="translate(-155.321 -433.108)" fill="#fb8a34"/>
    <path id="Path_13377" data-name="Path 13377" d="M0,4.273a.8.8,0,0,1,.836-.462c1.811.013,3.623,0,5.435.011a.389.389,0,0,0,.377-.21C7.324,2.56,8,1.511,8.7.471A3.326,3.326,0,0,1,9.169,0H11.99c.027.018.054.038.082.053A.622.622,0,0,1,11.8,1.244c-.643,0-1.286,0-1.929,0a.3.3,0,0,0-.3.155c-.51.8-1.03,1.587-1.573,2.42h.242q2.4,0,4.79,0a.619.619,0,0,1,.62.842.608.608,0,0,1-.534.4,2.045,2.045,0,0,1-.228,0q-6.024,0-12.049.006A.8.8,0,0,1,0,4.605Z" fill="#fb8a34"/>
    <path id="Path_13378" data-name="Path 13378" d="M188.247,364.473c-1.721,0-3.441,0-5.162,0a1.243,1.243,0,0,1-.984-2,1.219,1.219,0,0,1,1.028-.486q2.374,0,4.747,0,2.778,0,5.556,0a1.244,1.244,0,1,1,0,2.487q-2.591.005-5.183,0" transform="translate(-174.287 -346.965)" fill="#fb8a34"/>
  </g>
</svg>
