<svg id="Group_33759" data-name="Group 33759" xmlns="http://www.w3.org/2000/svg" width="8.835" height="9.609" viewBox="0 0 8.835 9.609">
  <path id="Path_13582" data-name="Path 13582" d="M7.654,9.609h-.32a.289.289,0,0,0-.051-.018,1.3,1.3,0,0,1-.669-.316,1.349,1.349,0,0,1-.458-1.067c0-.825,0-1.65,0-2.476V5.612h-.8v.115q0,1.444,0,2.888c0,.331,0,.663,0,.994H0c0-.044,0-.087,0-.131q0-3.762,0-7.525c0-.285,0-.569,0-.854A1.068,1.068,0,0,1,1.113,0q1.57,0,3.14,0a1.246,1.246,0,0,1,.36.053,1.06,1.06,0,0,1,.744,1.056q0,1.787,0,3.575V4.8c.073,0,.135,0,.2,0a3.558,3.558,0,0,1,.57.031,1.045,1.045,0,0,1,.835,1.049c0,.773,0,1.545,0,2.318a.954.954,0,0,0,.014.177.531.531,0,0,0,.671.4.538.538,0,0,0,.385-.557q0-1.853,0-3.706V4.427a1.338,1.338,0,0,1-1.024.017,1.306,1.306,0,0,1-.733-.7,1.277,1.277,0,0,1-.06-.907,1.341,1.341,0,0,1,.814-.879L5.907.84l.571-.57A.553.553,0,0,0,6.53.338q.848.846,1.7,1.69c.088.088.171.181.255.274a1.322,1.322,0,0,1,.351.915c0,1.679.005,3.359,0,5.038a1.292,1.292,0,0,1-.8,1.235,2.7,2.7,0,0,1-.382.118M1.081,3.73h3.2V1.072h-3.2ZM7.5,3.735a.533.533,0,1,0-.537-.528.538.538,0,0,0,.537.528" transform="translate(0 0)" fill="#fff"/>
</svg>
