<svg id="r_r_icon" data-name="r&amp;r_icon" xmlns="http://www.w3.org/2000/svg" xmlns:xlink="http://www.w3.org/1999/xlink" width="20.83" height="21.242" viewBox="0 0 20.83 21.242">
  <defs>
    <clipPath id="clip-path">
      <rect id="Rectangle_3215" data-name="Rectangle 3215" width="3.823" height="4.381" fill="#42c78c"/>
    </clipPath>
  </defs>
  <g id="Group_33840" data-name="Group 33840" transform="translate(0 0)">
    <g id="Group_33842" data-name="Group 33842" transform="translate(0 0)">
      <path id="Path_13586" data-name="Path 13586" d="M68.492,190.919a.8.8,0,0,1-.462-.836c.011-2.5.007-5.005,0-7.508a.333.333,0,0,1,.191-.339c1.433-.82,2.859-1.651,4.293-2.469a2.208,2.208,0,0,1,.5-.137v.294q0,3.246,0,6.491a.7.7,0,0,0,.208.563.621.621,0,0,0,.877-.04c.131-.123.257-.252.382-.38s.246-.261.394-.419l.609.619c.063.064.125.129.191.19a.625.625,0,0,0,1.074-.462q0-1.711,0-3.422v-3.39h4.23c.516,0,.75.231.75.743,0,3.221,0,6.443.006,9.664a.8.8,0,0,1-.462.836Z" transform="translate(-64.259 -169.677)" fill="#42c78c"/>
      <path id="Path_13587" data-name="Path 13587" d="M0,9.294A.972.972,0,0,1,.476,8.8c.587-.32,1.166-.654,1.772-1-.059-.045-.1-.077-.14-.106A2.486,2.486,0,0,1,4.754,3.495c.513.3,1.01.625,1.515.938.057.035.117.066.2.114C6.45,3.9,6.433,3.28,6.405,2.661A2.5,2.5,0,0,1,8.2.1a2.475,2.475,0,0,1,3.167,2.237c0,.054.007.108.012.191.17-.1.325-.182.478-.27.443-.255.885-.512,1.328-.767a.645.645,0,0,1,1.008.263q.572.985,1.141,1.973a.64.64,0,0,1-.27.991L2.683,11.866c-.156.09-.309.184-.468.267a.612.612,0,0,1-.835-.215C.914,11.144.459,10.363,0,9.585v-.29M7.719,4.65c.644-.374,1.253-.713,1.846-1.077a1.244,1.244,0,0,0,.486-1.529,1.244,1.244,0,0,0-1.318-.79A1.219,1.219,0,0,0,7.658,2.438c-.009.723.038,1.446.061,2.211M5.927,5.684C5.295,5.293,4.7,4.911,4.1,4.559a1.212,1.212,0,0,0-1.553.294,1.243,1.243,0,0,0-.022,1.553,1.219,1.219,0,0,0,1.546.341c.613-.331,1.211-.691,1.859-1.064" transform="translate(0 -0.001)" fill="#42c78c"/>
      <path id="Path_13588" data-name="Path 13588" d="M181.953,180.738v5.232a1.754,1.754,0,0,0-.606-.25,1.807,1.807,0,0,0-.62.237v-5.219Z" transform="translate(-170.711 -170.722)" fill="#42c78c"/>
    </g>
  </g>
  <g id="Group_33841" data-name="Group 33841" transform="translate(13.194 5.447)">
    <g id="Group_33610" data-name="Group 33610" transform="translate(0 0)" clip-path="url(#clip-path)">
      <path id="Path_13169" data-name="Path 13169" d="M3.013,4.382a.558.558,0,0,1-.379-.333,4.055,4.055,0,0,1-.268-.732c-.054-.178-.1-.358-.171-.533a.68.68,0,0,0-.4-.411,1.283,1.283,0,0,0-.468-.078c-.265,0-.53,0-.794,0-.168,0-.289-.1-.284-.229A.243.243,0,0,1,.49,1.856c.03,0,.06,0,.09,0,.314,0,.629,0,.942-.007a1.166,1.166,0,0,0,.672-.209A.6.6,0,0,0,2.4,1.4H.3a.291.291,0,0,1-.287-.149c-.06-.137.047-.278.225-.3a.741.741,0,0,1,.084,0h2.1A.565.565,0,0,0,2.178.622,1.257,1.257,0,0,0,1.6.447C1.522.44,1.445.439,1.37.439H.295A.286.286,0,0,1,.018.3C-.045.163.065.021.246,0,.267,0,.288,0,.31,0h3.2A.3.3,0,0,1,3.8.139c.068.14-.051.292-.238.3s-.385,0-.577,0H2.9a.962.962,0,0,1,.237.505h.234c.069,0,.138,0,.206,0a.239.239,0,0,1,.243.23.252.252,0,0,1-.268.216c-.138,0-.275,0-.413,0-.029,0-.047,0-.058.03a1.167,1.167,0,0,1-.751.645l-.043.016a.1.1,0,0,0,.019.014.921.921,0,0,1,.545.531c.081.2.134.407.2.61s.137.4.21.6a.566.566,0,0,0,.083.138.25.25,0,0,1-.18.39l-.05.014Z" transform="translate(0 -0.001)" fill="#42c78c"/>
    </g>
  </g>
  <g id="Group_33843" data-name="Group 33843" transform="translate(17.007 2.724)">
    <g id="Group_33610-2" data-name="Group 33610" transform="translate(0 0)" clip-path="url(#clip-path)">
      <path id="Path_13169-2" data-name="Path 13169" d="M3.013,4.382a.558.558,0,0,1-.379-.333,4.055,4.055,0,0,1-.268-.732c-.054-.178-.1-.358-.171-.533a.68.68,0,0,0-.4-.411,1.283,1.283,0,0,0-.468-.078c-.265,0-.53,0-.794,0-.168,0-.289-.1-.284-.229A.243.243,0,0,1,.49,1.856c.03,0,.06,0,.09,0,.314,0,.629,0,.942-.007a1.166,1.166,0,0,0,.672-.209A.6.6,0,0,0,2.4,1.4H.3a.291.291,0,0,1-.287-.149c-.06-.137.047-.278.225-.3a.741.741,0,0,1,.084,0h2.1A.565.565,0,0,0,2.178.622,1.257,1.257,0,0,0,1.6.447C1.522.44,1.445.439,1.37.439H.295A.286.286,0,0,1,.018.3C-.045.163.065.021.246,0,.267,0,.288,0,.31,0h3.2A.3.3,0,0,1,3.8.139c.068.14-.051.292-.238.3s-.385,0-.577,0H2.9a.962.962,0,0,1,.237.505h.234c.069,0,.138,0,.206,0a.239.239,0,0,1,.243.23.252.252,0,0,1-.268.216c-.138,0-.275,0-.413,0-.029,0-.047,0-.058.03a1.167,1.167,0,0,1-.751.645l-.043.016a.1.1,0,0,0,.019.014.921.921,0,0,1,.545.531c.081.2.134.407.2.61s.137.4.21.6a.566.566,0,0,0,.083.138.25.25,0,0,1-.18.39l-.05.014Z" transform="translate(0 -0.001)" fill="#42c78c"/>
    </g>
  </g>
</svg>
