<svg xmlns="http://www.w3.org/2000/svg" width="18.282" height="17.699" viewBox="0 0 18.282 17.699">
  <g id="Inventory_white" transform="translate(0 0.025)">
    <g id="Group_35460" data-name="Group 35460" transform="translate(0 -0.025)">
      <path id="Path_18472" data-name="Path 18472" d="M14.281,8.216h1.932a1.93,1.93,0,0,1,2.069,2.008q0,2.734,0,5.468a1.931,1.931,0,0,1-2.075,2c-1.8,0-3.59-.009-5.385,0a2.352,2.352,0,0,1-1.68-.5,2.4,2.4,0,0,1-1.735.5c-1.775-.014-3.549,0-5.324,0A1.933,1.933,0,0,1,0,15.679q0-2.724,0-5.449A1.933,1.933,0,0,1,2.084,8.217h1.88c-.1-2.093-.028-4.18-.043-6.266A1.914,1.914,0,0,1,5.926,0q3.213,0,6.425,0a1.921,1.921,0,0,1,2.012,1.942q.006,2.793,0,5.587a6.089,6.089,0,0,1-.08.685m-7.1-6.951H5.972A.655.655,0,0,0,5.224,2q0,2.743,0,5.487a.658.658,0,0,0,.748.733h6.342a.653.653,0,0,0,.744-.716q0-1.421,0-2.842c0-.908,0-1.816,0-2.724a.6.6,0,0,0-.51-.644c-.476-.035-.958-.009-1.448-.009,0,.63,0,1.248,0,1.865A1.28,1.28,0,0,1,9.781,4.424c-.387,0-.775,0-1.162,0A1.3,1.3,0,0,1,7.183,3.043c0-.584,0-1.169,0-1.777m0,8.221c0,.415,0,.8,0,1.191a1.285,1.285,0,0,1-1.367,1.33c-.6,0-1.2,0-1.795,0a1.291,1.291,0,0,1-1.408-1.37c0-.38,0-.759,0-1.158H2.047a.652.652,0,0,0-.741.719q0,2.753,0,5.506a.657.657,0,0,0,.755.725H7.731a.659.659,0,0,0,.757-.743q0-1.885,0-3.77c0-.592,0-1.184,0-1.776a.627.627,0,0,0-.557-.651c-.24-.023-.485,0-.748,0M11.1,9.48h-.575a.648.648,0,0,0-.731.708q0,2.763,0,5.526a.654.654,0,0,0,.745.716h5.69a.656.656,0,0,0,.747-.733q0-1.135,0-2.27,0-1.638,0-3.276a.619.619,0,0,0-.526-.654,6.538,6.538,0,0,0-.779-.006c0,.407,0,.8,0,1.195a1.284,1.284,0,0,1-1.356,1.321q-.928,0-1.856,0A1.284,1.284,0,0,1,11.1,10.688c0-.394,0-.788,0-1.208M8.5,3.145h1.28V1.274H8.5ZM3.928,10.731H5.861V9.49H3.928Zm8.49,0h1.93V9.484h-1.93Z" transform="translate(0 0)" fill="#fff"/>
    </g>
  </g>
</svg>
