<svg xmlns="http://www.w3.org/2000/svg" width="14.609" height="17.28" viewBox="0 0 14.609 17.28">
  <g id="Invoice_white" transform="translate(-1133.939 -887.9)">
    <path id="Path_21010" data-name="Path 21010" d="M1147.315,888a3.331,3.331,0,0,1,.373.134,1.3,1.3,0,0,1,.757,1.117c.021.242-.085.35-.329.351-.534,0-1.067,0-1.6,0h-.2v.222c0,4.541-.009,9.082.009,13.623a1.469,1.469,0,0,1-1.143,1.634h-10.009a4.023,4.023,0,0,1-.623-.3,1.219,1.219,0,0,1-.508-.953c-.019-.243.085-.35.329-.351.534,0,1.068,0,1.6,0h.2v-.221c0-4.547.009-9.094-.009-13.641a1.463,1.463,0,0,1,1.143-1.617Zm-3.664,16.013h-3.626a.73.73,0,0,1-.166-.007.265.265,0,0,1,0-.52.562.562,0,0,1,.133-.006h3.836c.255,0,.329.07.354.332a.8.8,0,0,0,1.144.653.818.818,0,0,0,.456-.805q0-6.963,0-13.925a1.771,1.771,0,0,1,.278-1.2H1137.6a.81.81,0,0,0-.9.9q0,6.929,0,13.859v.19h1.033c.278,0,.556,0,.834,0a.26.26,0,0,1,.266.264.267.267,0,0,1-.265.266c-.05,0-.1,0-.15,0h-3.784a.751.751,0,0,0,.768.533h8.356a1.064,1.064,0,0,0,.115-.012Zm2.728-14.945h1.473a.773.773,0,0,0-.747-.534A.764.764,0,0,0,1146.379,889.068Z" fill="#fff" stroke="#fff" stroke-width="0.2"/>
    <path id="Path_21011" data-name="Path 21011" d="M1296.847,1146.863a.286.286,0,0,0-.323.246.268.268,0,0,0,.23.282c.076.013.155.013.23.032a.791.791,0,0,1,.212,1.454c-.078.045-.139.08-.156.188a.259.259,0,0,1-.5-.007c-.014-.1-.077-.127-.143-.177a1.411,1.411,0,0,1-.292-.288.246.246,0,0,1,.081-.349.254.254,0,0,1,.346.047c.023.024.039.054.062.078a.25.25,0,0,0,.317.063.246.246,0,0,0,.144-.275.257.257,0,0,0-.234-.225c-.066-.01-.133-.01-.2-.024a.8.8,0,0,1-.624-.679.819.819,0,0,1,.408-.8.356.356,0,0,0,.126-.164.272.272,0,0,1,.526.007.538.538,0,0,0,.128.163,2.9,2.9,0,0,1,.283.275.251.251,0,0,1-.06.366.27.27,0,0,1-.371-.06A1.717,1.717,0,0,0,1296.847,1146.863Z" transform="translate(-154.745 -246.585)" fill="#fff" stroke="#fff" stroke-width="0.2"/>
    <path id="Path_21012" data-name="Path 21012" d="M1345.521,1146.906c-.032.041-.078.15-.154.178a.545.545,0,0,1-.29-.032c-.035-.009-.056-.066-.086-.1a.251.251,0,0,0-.317-.064.246.246,0,0,0-.145.274.258.258,0,0,0,.234.226c.076.012.155.014.23.033a.784.784,0,0,1,.592.669.768.768,0,0,1-.379.777.368.368,0,0,0-.171.2.372.372,0,0,1-.24.185.213.213,0,0,1-.255-.187c-.018-.1-.078-.138-.151-.191a1.268,1.268,0,0,1-.282-.276.248.248,0,0,1,.068-.353.261.261,0,0,1,.359.047c.023.025.038.056.062.078a.252.252,0,0,0,.3.061.248.248,0,0,0,.154-.269.256.256,0,0,0-.226-.233c-.071-.013-.144-.012-.214-.028a.792.792,0,0,1-.215-1.466.229.229,0,0,0,.141-.179.26.26,0,0,1,.505,0,.216.216,0,0,0,.143.176A.6.6,0,0,1,1345.521,1146.906Z" transform="translate(-200.612 -246.581)" fill="#fff" stroke="#fff" stroke-width="0.2"/>
    <path id="Path_21013" data-name="Path 21013" d="M1214.185,966h1.751c.243,0,.367.088.37.262s-.125.271-.378.271h-3.519c-.243,0-.367-.089-.37-.263s.124-.271.378-.271Z" transform="translate(-74.531 -74.529)" fill="#fff" stroke="#fff" stroke-width="0.2"/>
    <path id="Path_21014" data-name="Path 21014" d="M1214.153,1002.519c-.606,0-1.212,0-1.818,0-.183,0-.295-.087-.314-.233a.27.27,0,0,1,.3-.3c.389,0,.778,0,1.167,0h2.469c.2,0,.311.082.331.233.023.172-.107.3-.314.3C1215.365,1002.52,1214.759,1002.519,1214.153,1002.519Z" transform="translate(-74.511 -108.915)" fill="#fff" stroke="#fff" stroke-width="0.2"/>
    <path id="Path_21015" data-name="Path 21015" d="M1214.153,1038.517c-.606,0-1.212,0-1.818,0-.184,0-.3-.085-.315-.232a.27.27,0,0,1,.3-.3c.35,0,.7,0,1.051,0,.856,0,1.713,0,2.569,0,.075,0,.18,0,.219.046a.437.437,0,0,1,.116.282c-.013.142-.136.2-.282.2h-1.835Z" transform="translate(-74.509 -143.312)" fill="#fff" stroke="#fff" stroke-width="0.2"/>
    <path id="Path_21016" data-name="Path 21016" d="M1214.165,1074.531c-.612,0-1.223,0-1.835,0a.266.266,0,0,1-.292-.272.27.27,0,0,1,.289-.26h3.636c.221,0,.347.1.343.273s-.125.26-.339.26Z" transform="translate(-74.53 -177.724)" fill="#fff" stroke="#fff" stroke-width="0.2"/>
    <path id="Path_21017" data-name="Path 21017" d="M1214.16,1110.514h-1.7c-.039,0-.078,0-.117,0-.184-.006-.3-.107-.3-.263a.269.269,0,0,1,.3-.269c.15,0,.3,0,.45,0h3.186c.212,0,.334.1.336.263s-.121.269-.329.27c-.284,0-.567,0-.851,0Z" transform="translate(-74.531 -212.105)" fill="#fff" stroke="#fff" stroke-width="0.2"/>
    <path id="Path_21018" data-name="Path 21018" d="M1255.911,930.529h-1.534c-.21,0-.332-.1-.333-.266s.122-.266.332-.267h3.069c.21,0,.333.1.333.266s-.122.266-.332.267Z" transform="translate(-114.668 -40.127)" fill="#fff" stroke="#fff" stroke-width="0.2"/>
    <path id="Path_21019" data-name="Path 21019" d="M1333.117,966.52c-.25,0-.5,0-.75,0-.2,0-.316-.1-.316-.266s.118-.266.316-.266q.75,0,1.5,0c.2,0,.316.1.316.266s-.12.265-.315.267C1333.618,966.521,1333.368,966.52,1333.117,966.52Z" transform="translate(-189.205 -74.517)" fill="#fff" stroke="#fff" stroke-width="0.2"/>
    <path id="Path_21020" data-name="Path 21020" d="M1333.1,1002.514c-.25,0-.5,0-.75,0a.27.27,0,0,1-.3-.263.267.267,0,0,1,.3-.269q.767,0,1.534,0a.27.27,0,0,1,.3.262c0,.162-.117.268-.312.27C1333.615,1002.516,1333.359,1002.514,1333.1,1002.514Z" transform="translate(-189.204 -108.91)" fill="#fff" stroke="#fff" stroke-width="0.2"/>
    <path id="Path_21021" data-name="Path 21021" d="M1333.118,1038.52c-.25,0-.5,0-.75,0-.2,0-.316-.1-.317-.265s.118-.267.314-.267q.751,0,1.5,0c.2,0,.316.1.317.265s-.119.266-.314.268C1333.619,1038.521,1333.369,1038.52,1333.118,1038.52Z" transform="translate(-189.205 -143.314)" fill="#fff" stroke="#fff" stroke-width="0.2"/>
    <path id="Path_21022" data-name="Path 21022" d="M1333.109,1074.517c-.25,0-.5,0-.751,0-.193,0-.313-.111-.309-.273a.27.27,0,0,1,.305-.259q.759,0,1.518,0c.193,0,.313.11.309.272a.271.271,0,0,1-.306.26C1333.62,1074.519,1333.365,1074.517,1333.109,1074.517Z" transform="translate(-189.203 -177.71)" fill="#fff" stroke="#fff" stroke-width="0.2"/>
    <path id="Path_21023" data-name="Path 21023" d="M1333.118,1110.52c-.25,0-.5,0-.75,0-.2,0-.316-.1-.317-.265s.118-.267.314-.268q.751,0,1.5,0c.2,0,.316.1.317.265s-.119.266-.314.268C1333.619,1110.521,1333.369,1110.52,1333.118,1110.52Z" transform="translate(-189.205 -212.112)" fill="#fff" stroke="#fff" stroke-width="0.2"/>
  </g>
</svg>
