<svg xmlns="http://www.w3.org/2000/svg" width="28.058" height="22.433" viewBox="0 0 28.058 22.433">
  <g id="Group_37231" data-name="Group 37231" transform="translate(0 -5.405)">
    <g id="Group_33935" data-name="Group 33935" transform="translate(0 0.001)">
      <path id="Path_13656" data-name="Path 13656" d="M0,57a1.763,1.763,0,0,1,.343-.068q13.686,0,27.371,0c.361,0,.4.048.289.422A3.359,3.359,0,0,1,25.214,59.9a5.713,5.713,0,0,1-.982.071q-10.206.006-20.412,0a4.142,4.142,0,0,1-2.27-.556A3.493,3.493,0,0,1,.106,57.511c-.031-.092-.07-.181-.106-.271V57m16.1.941H11.958V58.97H16.1Z" transform="translate(0 -32.143)" fill="#fff"/>
      <path id="Path_13657" data-name="Path 13657" d="M18.129,13.506H28.623c.63,0,.8.2.8.975q0,7.881,0,15.762c0,.773-.169.985-.791.985H7.588c-.607,0-.784-.218-.784-.961q0-7.9,0-15.795c0-.754.171-.966.778-.966H18.129M8.789,28.777H27.431V15.968H8.789Z" transform="translate(-4.081 -8.101)" fill="#fff"/>
    </g>
  </g>
</svg>
