<svg width="470" height="321" viewBox="0 0 470 321" fill="none" xmlns="http://www.w3.org/2000/svg">
<path d="M311.569 17H9.43046C6.92935 17 4.53067 18.001 2.76212 19.7827C0.993563 21.5644 5.31537e-08 23.981 5.31537e-08 26.5007V241.498C-0.000131437 242.746 0.243698 243.982 0.717564 245.134C1.19143 246.287 1.88605 247.335 2.76176 248.217C3.63748 249.099 4.67713 249.799 5.82135 250.277C6.96557 250.754 8.19195 251 9.43046 251H311.57C314.071 251 316.469 249.999 318.238 248.217C320.006 246.435 321 244.019 321 241.499V26.5017C321 23.9817 320.006 21.5649 318.238 19.783C316.469 18.0011 314.07 17 311.569 17Z" fill="#3961C1"/>
<path d="M164.335 228.784C168.44 234.651 162.015 241.076 156.147 236.971C155.953 236.833 155.783 236.662 155.647 236.466C151.553 230.601 157.97 224.184 163.834 228.279C164.028 228.416 164.197 228.585 164.334 228.779" fill="#263238"/>
<path d="M312.209 212.209H8.43994V35.069C8.43994 33.0226 9.25287 31.06 10.6999 29.613C12.1469 28.1659 14.1095 27.353 16.1559 27.353H304.493C305.506 27.353 306.51 27.5526 307.446 27.9403C308.382 28.3281 309.232 28.8965 309.949 29.613C310.665 30.3295 311.234 31.1801 311.622 32.1162C312.009 33.0524 312.209 34.0557 312.209 35.069V212.209Z" fill="#1F439B"/>
<path d="M230.044 251.206C230.044 251.306 204.744 251.392 173.544 251.392C142.344 251.392 117.044 251.308 117.044 251.206C117.044 251.104 142.336 251.02 173.544 251.02C204.752 251.02 230.044 251.104 230.044 251.206Z" fill="#263238"/>
<path d="M304.331 34.995H16.676V204.567H304.331V34.995Z" fill="white"/>
<path d="M304.331 34.995H16.676V49.085H304.331V34.995Z" fill="#E0E0E0"/>
<path d="M27.858 42.336C27.8718 42.7386 27.7649 43.1361 27.5512 43.4776C27.3375 43.8191 27.0267 44.089 26.6586 44.2526C26.2905 44.4163 25.8819 44.4663 25.4852 44.3961C25.0885 44.326 24.7218 44.139 24.4321 43.859C24.1424 43.5791 23.9429 43.219 23.8593 42.8249C23.7756 42.4309 23.8116 42.0208 23.9625 41.6473C24.1135 41.2738 24.3726 40.9539 24.7065 40.7287C25.0405 40.5034 25.4342 40.383 25.837 40.383C26.3639 40.3747 26.8725 40.5758 27.2512 40.9422C27.6299 41.3085 27.8478 41.8102 27.857 42.337" fill="white"/>
<path d="M33.8819 42.336C33.8957 42.7386 33.7889 43.1361 33.5752 43.4776C33.3614 43.8191 33.0506 44.089 32.6825 44.2526C32.3144 44.4163 31.9058 44.4663 31.5091 44.3961C31.1124 44.326 30.7457 44.139 30.456 43.859C30.1663 43.5791 29.9669 43.219 29.8832 42.8249C29.7995 42.4309 29.8355 42.0208 29.9864 41.6473C30.1374 41.2738 30.3965 40.9539 30.7305 40.7287C31.0644 40.5034 31.4581 40.383 31.8609 40.383C32.3878 40.3747 32.8964 40.5758 33.2751 40.9422C33.6538 41.3085 33.8717 41.8102 33.8809 42.337" fill="white"/>
<path d="M39.61 42.336C39.6235 42.7386 39.5165 43.1361 39.3026 43.4775C39.0888 43.8189 38.7778 44.0886 38.4096 44.252C38.0414 44.4155 37.6328 44.4653 37.2361 44.3949C36.8395 44.3246 36.4729 44.1374 36.1833 43.8573C35.8938 43.5772 35.6945 43.217 35.611 42.8229C35.5275 42.4288 35.5637 42.0188 35.7149 41.6453C35.866 41.2719 36.1252 40.9522 36.4593 40.7271C36.7934 40.502 37.1871 40.3818 37.59 40.382C38.1168 40.3737 38.6255 40.5748 39.0042 40.9411C39.3829 41.3075 39.6008 41.8092 39.61 42.336Z" fill="white"/>
<path d="M304.386 70.07H16.6221V130.696H304.386V70.07Z" fill="#E0E0E0"/>
<path d="M56.5611 57.32H28.4351V64.484H56.5611V57.32Z" fill="#FC6B37"/>
<path d="M253.594 55.696H233.233V62.86H253.594V55.696Z" fill="#E0E0E0"/>
<path d="M220.307 55.505H199.946V62.669H220.307V55.505Z" fill="#E0E0E0"/>
<path d="M149.769 122.254C149.786 122.763 149.651 123.266 149.38 123.698C149.109 124.13 148.716 124.472 148.25 124.679C147.784 124.886 147.267 124.949 146.765 124.86C146.263 124.771 145.799 124.534 145.433 124.18C145.066 123.825 144.814 123.37 144.708 122.871C144.602 122.372 144.648 121.854 144.839 121.381C145.03 120.908 145.358 120.504 145.78 120.218C146.203 119.933 146.701 119.781 147.211 119.781C147.878 119.77 148.522 120.024 149.002 120.488C149.481 120.952 149.757 121.587 149.769 122.254Z" fill="#FC6B37"/>
<path d="M159.956 122.254C159.973 122.763 159.838 123.266 159.567 123.698C159.296 124.13 158.903 124.472 158.437 124.679C157.971 124.886 157.454 124.949 156.952 124.86C156.45 124.771 155.986 124.534 155.62 124.18C155.253 123.825 155.001 123.37 154.895 122.871C154.789 122.372 154.835 121.854 155.026 121.381C155.217 120.908 155.545 120.504 155.967 120.218C156.39 119.933 156.888 119.781 157.398 119.781C158.065 119.77 158.709 120.024 159.189 120.488C159.668 120.952 159.944 121.587 159.956 122.254Z" fill="white"/>
<path d="M169.676 122.254C169.693 122.763 169.558 123.266 169.287 123.698C169.017 124.13 168.623 124.472 168.157 124.679C167.691 124.886 167.174 124.949 166.672 124.86C166.17 124.771 165.706 124.534 165.34 124.18C164.973 123.825 164.721 123.37 164.615 122.871C164.509 122.372 164.555 121.854 164.746 121.381C164.937 120.908 165.265 120.504 165.688 120.218C166.11 119.933 166.608 119.781 167.118 119.781C167.785 119.77 168.429 120.024 168.909 120.488C169.389 120.952 169.665 121.587 169.676 122.254Z" fill="white"/>
<path d="M116.036 114.897H40.769V122.442H116.036V114.897Z" fill="white"/>
<path d="M90.337 141.718H46.842V179.66H90.337V141.718Z" fill="#E0E0E0"/>
<path d="M177.221 141.038H140.548V177.711H177.221V141.038Z" fill="#E0E0E0"/>
<path d="M263.583 139.91H224.654V178.839H263.583V139.91Z" fill="#E0E0E0"/>
<path d="M88.1561 187.577H50.2141V192.645H88.1561V187.577Z" fill="#E0E0E0"/>
<path d="M176.991 187.577H139.049V192.645H176.991V187.577Z" fill="#E0E0E0"/>
<path d="M263.959 187.705H227.937V192.516H263.959V187.705Z" fill="#E0E0E0"/>
<path d="M292.916 79.119H271.271C270.46 79.119 269.683 78.7969 269.109 78.2236C268.536 77.6503 268.214 76.8728 268.214 76.062V54.417C268.214 53.6061 268.536 52.8285 269.109 52.255C269.683 51.6816 270.46 51.3593 271.271 51.359H292.916C293.727 51.3593 294.505 51.6816 295.078 52.255C295.651 52.8285 295.973 53.6061 295.973 54.417V76.065C295.973 76.8758 295.651 77.6533 295.078 78.2266C294.504 78.7999 293.727 79.122 292.916 79.122" fill="#FF725E"/>
<path d="M286.719 67.662H277.55C277.444 67.662 277.342 67.6199 277.267 67.5448C277.192 67.4698 277.15 67.3681 277.15 67.262C277.15 67.1559 277.192 67.0542 277.267 66.9792C277.342 66.9041 277.444 66.862 277.55 66.862H286.385L287.338 61.473H276.687C276.581 61.473 276.479 61.4309 276.404 61.3558C276.329 61.2808 276.287 61.1791 276.287 61.073C276.287 60.9669 276.329 60.8652 276.404 60.7902C276.479 60.7151 276.581 60.673 276.687 60.673H287.814C287.872 60.6733 287.929 60.6863 287.982 60.711C288.034 60.7356 288.081 60.7714 288.118 60.8158C288.155 60.8603 288.183 60.9123 288.198 60.9682C288.213 61.0242 288.216 61.0828 288.206 61.14L287.111 67.325C287.095 67.417 287.046 67.5003 286.975 67.5604C286.903 67.6205 286.813 67.6536 286.719 67.654" fill="white"/>
<path d="M286.416 69.826L277.684 69.796C277.587 69.7954 277.494 69.7599 277.422 69.6962C277.35 69.6324 277.303 69.5446 277.29 69.449L276.057 59.832H273.602C273.549 59.832 273.497 59.8216 273.449 59.8015C273.4 59.7814 273.356 59.752 273.319 59.7148C273.282 59.6777 273.252 59.6336 273.232 59.5851C273.212 59.5365 273.202 59.4845 273.202 59.432C273.202 59.3795 273.212 59.3274 273.232 59.2789C273.252 59.2304 273.282 59.1863 273.319 59.1491C273.356 59.112 273.4 59.0825 273.449 59.0624C273.497 59.0423 273.549 59.032 273.602 59.032H276.402C276.499 59.0324 276.592 59.0679 276.665 59.1318C276.737 59.1958 276.784 59.284 276.797 59.38L278.032 68.998L286.415 69.027C286.521 69.027 286.623 69.0691 286.698 69.1441C286.773 69.2192 286.815 69.3209 286.815 69.427C286.815 69.5331 286.773 69.6348 286.698 69.7098C286.623 69.7848 286.521 69.827 286.415 69.827" fill="white"/>
<path d="M279.108 72.933C278.814 72.933 278.527 72.8459 278.283 72.6827C278.039 72.5196 277.849 72.2876 277.736 72.0163C277.624 71.745 277.594 71.4464 277.652 71.1583C277.709 70.8702 277.85 70.6056 278.058 70.398C278.266 70.1903 278.53 70.0488 278.818 69.9915C279.106 69.9342 279.405 69.9637 279.676 70.0761C279.948 70.1884 280.18 70.3788 280.343 70.623C280.506 70.8672 280.593 71.1543 280.593 71.448C280.593 71.8418 280.436 72.2193 280.158 72.4978C279.879 72.7762 279.502 72.9327 279.108 72.933ZM279.108 70.759C278.972 70.759 278.839 70.7994 278.725 70.8751C278.612 70.9508 278.524 71.0584 278.471 71.1843C278.419 71.3102 278.406 71.4488 278.432 71.5824C278.459 71.7161 278.524 71.8388 278.621 71.9352C278.717 72.0316 278.84 72.0972 278.974 72.1238C279.107 72.1504 279.246 72.1367 279.372 72.0846C279.498 72.0324 279.605 71.9441 279.681 71.8308C279.757 71.7175 279.797 71.5843 279.797 71.448C279.797 71.2654 279.724 71.0903 279.595 70.9611C279.466 70.832 279.291 70.7593 279.108 70.759Z" fill="white"/>
<path d="M285.136 72.933C284.842 72.933 284.555 72.8459 284.311 72.6827C284.067 72.5196 283.876 72.2876 283.764 72.0163C283.652 71.745 283.622 71.4464 283.679 71.1583C283.737 70.8702 283.878 70.6056 284.086 70.398C284.294 70.1903 284.558 70.0488 284.846 69.9915C285.134 69.9342 285.433 69.9637 285.704 70.0761C285.976 70.1884 286.207 70.3788 286.371 70.623C286.534 70.8672 286.621 71.1543 286.621 71.448C286.621 71.8418 286.464 72.2193 286.186 72.4978C285.907 72.7762 285.53 72.9327 285.136 72.933ZM285.136 70.759C285 70.759 284.866 70.7994 284.753 70.8751C284.64 70.9508 284.551 71.0584 284.499 71.1843C284.447 71.3102 284.434 71.4488 284.46 71.5824C284.487 71.7161 284.552 71.8388 284.649 71.9352C284.745 72.0316 284.868 72.0972 285.001 72.1238C285.135 72.1504 285.274 72.1367 285.4 72.0846C285.525 72.0324 285.633 71.9441 285.709 71.8308C285.784 71.7175 285.825 71.5843 285.825 71.448C285.825 71.2654 285.752 71.0903 285.623 70.9611C285.494 70.832 285.319 70.7593 285.136 70.759Z" fill="white"/>
<path d="M280.382 67.662C280.281 67.6622 280.183 67.6238 280.108 67.5546C280.034 67.4853 279.989 67.3904 279.982 67.289L279.609 61.304C279.603 61.1987 279.638 61.0952 279.708 61.0159C279.778 60.9367 279.876 60.8882 279.981 60.881C280.033 60.8772 280.086 60.8839 280.135 60.9006C280.185 60.9173 280.231 60.9438 280.27 60.9784C280.31 61.0131 280.342 61.0552 280.364 61.1023C280.387 61.1495 280.4 61.2007 280.403 61.253L280.776 67.239C280.782 67.3442 280.746 67.4474 280.677 67.5265C280.607 67.6055 280.509 67.6538 280.404 67.661H280.379" fill="white"/>
<path d="M283.734 67.662H283.712C283.607 67.6556 283.509 67.6079 283.438 67.5295C283.368 67.4511 283.332 67.3481 283.337 67.243L283.671 61.258C283.673 61.2055 283.685 61.1539 283.707 61.1063C283.73 61.0587 283.761 61.0161 283.801 60.981C283.84 60.9459 283.885 60.919 283.935 60.902C283.985 60.885 284.037 60.8782 284.09 60.882C284.195 60.8885 284.293 60.9361 284.363 61.0145C284.434 61.0929 284.47 61.1959 284.465 61.301L284.131 67.287C284.125 67.3889 284.08 67.4846 284.006 67.5545C283.931 67.6244 283.833 67.6632 283.731 67.663" fill="white"/>
<path d="M277.026 64.669C276.92 64.669 276.818 64.6269 276.743 64.5519C276.668 64.4768 276.626 64.3751 276.626 64.269C276.626 64.1629 276.668 64.0612 276.743 63.9862C276.818 63.9112 276.92 63.869 277.026 63.869L287.263 63.778C287.367 63.7819 287.466 63.8246 287.54 63.8977C287.614 63.9709 287.658 64.0691 287.663 64.173C287.663 64.2781 287.622 64.3789 287.548 64.4538C287.474 64.5286 287.374 64.5714 287.269 64.573L277.028 64.673L277.026 64.669Z" fill="white"/>
<path d="M254.562 97.907L214.168 112.247C213.801 112.361 213.405 112.328 213.062 112.156C212.718 111.984 212.455 111.686 212.326 111.325C212.198 110.963 212.214 110.565 212.372 110.216C212.53 109.866 212.817 109.59 213.173 109.447L252.395 95.522L248.042 69.539L200.69 86.349C200.505 86.4184 200.308 86.4502 200.111 86.4427C199.914 86.4352 199.72 86.3885 199.541 86.3053C199.362 86.2221 199.202 86.1041 199.069 85.9582C198.936 85.8123 198.834 85.6413 198.767 85.4554C198.701 85.2694 198.673 85.0721 198.684 84.8751C198.695 84.678 198.745 84.4852 198.831 84.3077C198.918 84.1302 199.039 83.9717 199.187 83.8415C199.335 83.7112 199.508 83.6118 199.695 83.549L248.718 66.149C248.922 66.0765 249.14 66.0497 249.357 66.0704C249.573 66.0912 249.781 66.1589 249.969 66.269C250.156 66.3791 250.316 66.5288 250.439 66.7076C250.562 66.8864 250.645 67.09 250.681 67.304L255.531 96.265C255.589 96.6094 255.523 96.9631 255.346 97.2641C255.169 97.565 254.892 97.7941 254.563 97.911" fill="white"/>
<path d="M256.608 107.913H256.602L218.083 121.436C217.743 121.555 217.371 121.546 217.037 121.412C216.702 121.278 216.428 121.026 216.265 120.705L195.637 79.974L184.513 83.923C184.146 84.0367 183.75 84.0042 183.407 83.8323C183.063 83.6604 182.8 83.3624 182.671 83.0006C182.543 82.6389 182.559 82.2415 182.717 81.8915C182.875 81.5415 183.162 81.2662 183.518 81.123L195.876 76.736C196.217 76.6146 196.59 76.6218 196.926 76.7562C197.262 76.8907 197.537 77.143 197.7 77.466L218.33 118.206L255.619 105.114C255.986 105.001 256.382 105.034 256.724 105.207C257.067 105.379 257.33 105.678 257.457 106.039C257.585 106.401 257.568 106.798 257.41 107.148C257.251 107.497 256.964 107.772 256.608 107.914" fill="white"/>
<path d="M229.272 133.03C228.048 133.464 226.722 133.526 225.463 133.207C224.204 132.888 223.067 132.203 222.198 131.238C221.328 130.273 220.764 129.072 220.577 127.786C220.389 126.501 220.588 125.189 221.146 124.016C221.705 122.843 222.599 121.862 223.715 121.197C224.831 120.533 226.119 120.214 227.416 120.281C228.713 120.348 229.962 120.798 231.003 121.575C232.044 122.352 232.832 123.42 233.266 124.644C233.846 126.286 233.752 128.091 233.003 129.663C232.254 131.235 230.912 132.446 229.272 133.03ZM225.872 123.452C225.201 123.69 224.615 124.121 224.189 124.692C223.763 125.263 223.515 125.947 223.478 126.658C223.441 127.37 223.616 128.076 223.98 128.688C224.345 129.3 224.883 129.79 225.526 130.096C226.169 130.402 226.888 130.511 227.593 130.408C228.298 130.305 228.956 129.996 229.485 129.518C230.014 129.041 230.389 128.418 230.564 127.727C230.738 127.037 230.704 126.31 230.465 125.639C230.145 124.74 229.482 124.005 228.621 123.595C227.76 123.185 226.771 123.134 225.872 123.452Z" fill="white"/>
<path d="M255.825 123.604C254.6 124.038 253.275 124.1 252.015 123.781C250.756 123.462 249.619 122.776 248.749 121.811C247.879 120.846 247.315 119.645 247.128 118.359C246.941 117.073 247.139 115.761 247.698 114.588C248.257 113.415 249.151 112.434 250.267 111.769C251.384 111.104 252.672 110.785 253.97 110.853C255.267 110.92 256.516 111.371 257.557 112.148C258.598 112.925 259.386 113.993 259.82 115.218C260.4 116.86 260.305 118.665 259.556 120.237C258.807 121.809 257.466 123.02 255.825 123.604ZM252.425 114.026C251.754 114.264 251.168 114.695 250.742 115.266C250.315 115.837 250.068 116.521 250.031 117.232C249.994 117.943 250.169 118.65 250.533 119.262C250.898 119.874 251.435 120.364 252.079 120.67C252.722 120.976 253.441 121.085 254.146 120.982C254.851 120.879 255.509 120.57 256.038 120.092C256.567 119.615 256.942 118.992 257.117 118.301C257.291 117.611 257.257 116.884 257.018 116.213C256.698 115.314 256.035 114.579 255.174 114.169C254.313 113.759 253.324 113.708 252.425 114.026Z" fill="white"/>
<path d="M226.641 107.819C226.285 107.945 225.894 107.931 225.547 107.78C225.201 107.628 224.925 107.351 224.776 107.003L213.77 81.217C213.616 80.8543 213.611 80.4451 213.758 80.0793C213.905 79.7135 214.192 79.421 214.554 79.266C214.732 79.1815 214.926 79.1347 215.123 79.1287C215.321 79.1227 215.517 79.1576 215.7 79.2311C215.883 79.3046 216.049 79.4153 216.188 79.556C216.326 79.6968 216.434 79.8646 216.504 80.049L227.51 105.84C227.665 106.203 227.669 106.612 227.522 106.977C227.375 107.343 227.089 107.636 226.727 107.791C226.698 107.804 226.667 107.815 226.64 107.824" fill="white"/>
<path d="M241.411 102.576C241.386 102.585 241.359 102.594 241.331 102.601C241.144 102.656 240.947 102.673 240.753 102.652C240.559 102.631 240.372 102.572 240.2 102.478C240.029 102.385 239.878 102.258 239.756 102.106C239.634 101.954 239.543 101.779 239.488 101.592L231.598 74.699C231.535 74.5118 231.512 74.3137 231.529 74.117C231.546 73.9204 231.604 73.7294 231.699 73.5562C231.794 73.3831 231.923 73.2313 232.08 73.1107C232.236 72.99 232.415 72.9029 232.607 72.855C232.794 72.8001 232.991 72.7828 233.185 72.8039C233.379 72.825 233.567 72.8841 233.738 72.9779C233.909 73.0717 234.06 73.1983 234.182 73.3505C234.304 73.5028 234.395 73.6776 234.45 73.865L242.34 100.758C242.446 101.122 242.409 101.513 242.237 101.851C242.064 102.189 241.769 102.448 241.411 102.575" fill="white"/>
<path d="M207.175 99.881C206.991 99.9472 206.796 99.9765 206.601 99.9673C206.406 99.9581 206.214 99.9105 206.037 99.8273C205.861 99.7441 205.702 99.6269 205.571 99.4824C205.439 99.3379 205.337 99.1689 205.271 98.985C205.205 98.8012 205.176 98.6061 205.185 98.4109C205.194 98.2157 205.242 98.0242 205.325 97.8474C205.408 97.6706 205.525 97.512 205.67 97.3805C205.814 97.2489 205.983 97.1472 206.167 97.081L251.13 80.63H251.144C251.328 80.5638 251.523 80.5345 251.718 80.5437C251.913 80.5529 252.105 80.6005 252.282 80.6837C252.458 80.7669 252.617 80.8841 252.749 81.0286C252.88 81.1731 252.982 81.3422 253.048 81.526C253.114 81.7099 253.144 81.9049 253.134 82.1001C253.125 82.2953 253.078 82.4868 252.994 82.6636C252.911 82.8404 252.794 82.9991 252.649 83.1306C252.505 83.2621 252.336 83.3638 252.152 83.43L207.188 99.875H207.175" fill="white"/>
<path d="M374.664 194.841H269.204C267.647 194.841 266.154 194.222 265.053 193.121C263.952 192.02 263.333 190.527 263.333 188.97V55.912C263.333 54.3549 263.952 52.8616 265.053 51.7606C266.154 50.6596 267.647 50.041 269.204 50.041H374.664C376.221 50.041 377.714 50.6596 378.815 51.7606C379.916 52.8616 380.535 54.3549 380.535 55.912V188.97C380.535 190.527 379.916 192.02 378.815 193.121C377.714 194.222 376.221 194.841 374.664 194.841Z" fill="white"/>
<path d="M380.535 67.013H263.335V54.945C263.335 53.6455 263.851 52.3991 264.77 51.4802C265.689 50.5613 266.935 50.045 268.235 50.045H375.631C376.931 50.045 378.177 50.5613 379.096 51.4802C380.015 52.3991 380.531 53.6455 380.531 54.945L380.535 67.013Z" fill="#E0E0E0"/>
<path d="M375.722 194.842C375.722 194.842 375.834 194.829 376.056 194.814C376.386 194.79 376.713 194.73 377.03 194.635C377.653 194.452 378.233 194.146 378.734 193.733C379.236 193.321 379.649 192.811 379.948 192.235C380.153 191.833 380.303 191.406 380.394 190.964C380.473 190.468 380.503 189.966 380.483 189.464C380.483 188.404 380.48 187.246 380.473 185.989C380.473 183.477 380.462 180.58 380.455 177.318C380.439 164.263 380.417 145.383 380.389 122.055C380.381 110.389 380.372 97.611 380.364 83.893C380.364 77.0343 380.361 69.948 380.354 62.634C380.354 60.8067 380.354 58.9667 380.354 57.114C380.34 56.197 380.382 55.236 380.324 54.346C380.225 53.4422 379.861 52.5878 379.278 51.8897C378.696 51.1915 377.92 50.6807 377.049 50.421C376.138 50.2259 375.205 50.1606 374.276 50.227H368.528L268.167 50.244C267.094 50.2403 266.054 50.6117 265.226 51.2939C264.398 51.9761 263.834 52.9263 263.633 53.98C263.552 54.5136 263.524 55.0539 263.549 55.593V60.557C263.549 64.953 263.549 69.3197 263.549 73.657C263.549 82.3237 263.549 90.8593 263.549 99.264C263.549 116.052 263.54 132.246 263.536 147.672C263.536 155.385 263.533 162.9 263.527 170.215C263.527 173.869 263.527 177.469 263.527 181.015C263.527 182.787 263.527 184.545 263.527 186.289C263.527 187.161 263.527 188.029 263.527 188.894C263.468 189.737 263.537 190.583 263.732 191.405C263.98 192.191 264.431 192.897 265.039 193.454C265.646 194.01 266.39 194.396 267.195 194.573C268.015 194.681 268.843 194.716 269.669 194.678H272.163L281.904 194.684L300.216 194.698L355.458 194.757L370.482 194.795L374.389 194.816C375.269 194.823 375.72 194.838 375.72 194.838C375.72 194.838 375.269 194.852 374.389 194.859L370.482 194.879L355.458 194.923L300.198 194.989L281.886 195.003L272.145 195.009H269.658C268.808 195.049 267.957 195.013 267.114 194.9C266.249 194.711 265.45 194.297 264.797 193.7C264.143 193.103 263.659 192.344 263.393 191.5C263.185 190.646 263.11 189.764 263.169 188.887C263.169 188.02 263.169 187.152 263.169 186.282C263.169 184.539 263.169 182.781 263.169 181.008C263.169 177.463 263.169 173.863 263.169 170.208C263.169 162.9 263.166 155.386 263.16 147.665C263.16 132.239 263.152 116.045 263.147 99.257C263.147 90.863 263.147 82.3273 263.147 73.65C263.147 69.3167 263.147 64.95 263.147 60.55V55.599C263.122 55.0337 263.152 54.4672 263.239 53.908C263.459 52.7598 264.073 51.7246 264.975 50.981C265.878 50.2373 267.011 49.832 268.18 49.835L368.541 49.851H374.289H375.714C376.206 49.855 376.696 49.926 377.169 50.062C378.11 50.3437 378.948 50.8966 379.577 51.6515C380.206 52.4065 380.599 53.3302 380.706 54.307C380.768 55.279 380.723 56.181 380.736 57.116C380.736 58.9687 380.736 60.8087 380.736 62.636C380.732 69.9427 380.729 77.029 380.726 83.895C380.716 97.613 380.709 110.395 380.701 122.057C380.673 145.385 380.651 164.265 380.635 177.32C380.628 180.582 380.621 183.479 380.616 185.991C380.616 187.247 380.613 188.405 380.607 189.466C380.624 189.974 380.591 190.483 380.507 190.985C380.41 191.434 380.254 191.868 380.042 192.276C379.734 192.858 379.312 193.37 378.799 193.783C378.287 194.196 377.696 194.499 377.062 194.676C376.741 194.766 376.411 194.82 376.078 194.835C375.855 194.843 375.742 194.841 375.742 194.841" fill="#263238"/>
<path d="M275.269 58.523C275.269 59.0604 275.11 59.5857 274.811 60.0325C274.513 60.4793 274.088 60.8275 273.592 61.0332C273.095 61.2388 272.549 61.2926 272.022 61.1878C271.495 61.083 271.011 60.8242 270.631 60.4442C270.251 60.0642 269.992 59.5801 269.887 59.0531C269.782 58.526 269.836 57.9797 270.042 57.4832C270.247 56.9868 270.596 56.5624 271.042 56.2639C271.489 55.9653 272.015 55.806 272.552 55.806C273.273 55.806 273.964 56.0923 274.473 56.6018C274.983 57.1113 275.269 57.8024 275.269 58.523Z" fill="white"/>
<path d="M283.104 58.523C283.104 59.0604 282.945 59.5857 282.646 60.0325C282.347 60.4793 281.923 60.8275 281.427 61.0332C280.93 61.2388 280.384 61.2926 279.857 61.1878C279.33 61.083 278.846 60.8242 278.466 60.4442C278.086 60.0642 277.827 59.5801 277.722 59.0531C277.617 58.526 277.671 57.9797 277.877 57.4832C278.082 56.9868 278.431 56.5624 278.877 56.2639C279.324 55.9653 279.85 55.806 280.387 55.806C281.108 55.806 281.799 56.0923 282.308 56.6018C282.818 57.1113 283.104 57.8024 283.104 58.523Z" fill="white"/>
<path d="M290.938 58.523C290.938 59.0604 290.779 59.5857 290.48 60.0325C290.181 60.4793 289.757 60.8275 289.261 61.0332C288.764 61.2388 288.218 61.2926 287.691 61.1878C287.164 61.083 286.68 60.8242 286.3 60.4442C285.92 60.0642 285.661 59.5801 285.556 59.0531C285.451 58.526 285.505 57.9797 285.711 57.4832C285.916 56.9868 286.265 56.5624 286.711 56.2639C287.158 55.9653 287.684 55.806 288.221 55.806C288.941 55.806 289.633 56.0923 290.142 56.6018C290.652 57.1113 290.938 57.8024 290.938 58.523Z" fill="white"/>
<path d="M337.121 109.214H310.964C310.153 109.214 309.376 108.892 308.802 108.319C308.229 107.745 307.907 106.968 307.907 106.157V79.998C307.908 79.1878 308.231 78.4112 308.804 77.8386C309.377 77.266 310.154 76.9443 310.964 76.944H337.118C337.929 76.9443 338.706 77.2666 339.28 77.84C339.853 78.4135 340.175 79.1911 340.175 80.002V106.156C340.175 106.967 339.853 107.744 339.28 108.318C338.706 108.891 337.929 109.213 337.118 109.213" fill="#FC6B37"/>
<path d="M317.667 118.638H281.645V123.45H317.667V118.638Z" fill="#E0E0E0"/>
<path d="M362.229 118.638H348.207V123.45H362.229V118.638Z" fill="#E0E0E0"/>
<path d="M328.204 128.856H281.644V133.668H328.204V128.856Z" fill="#E0E0E0"/>
<path d="M362.229 128.856H348.207V133.668H362.229V128.856Z" fill="#E0E0E0"/>
<path d="M303.444 139.073H281.645V143.884H303.444V139.073Z" fill="#E0E0E0"/>
<path d="M362.229 139.073H348.207V143.884H362.229V139.073Z" fill="#E0E0E0"/>
<path d="M362.229 148.796H348.207V153.608H362.229V148.796Z" fill="#455A64"/>
<path d="M333.596 181.734H307.549C305.546 181.733 303.624 180.936 302.208 179.519C300.792 178.102 299.996 176.181 299.996 174.177V173.363C299.996 171.359 300.792 169.437 302.209 168.019C303.627 166.602 305.549 165.806 307.553 165.806H333.596C334.589 165.806 335.571 166.001 336.488 166.381C337.405 166.761 338.238 167.318 338.94 168.019C339.641 168.721 340.198 169.554 340.578 170.471C340.958 171.388 341.153 172.371 341.153 173.363V174.177C341.153 175.169 340.958 176.152 340.578 177.069C340.198 177.986 339.641 178.819 338.94 179.521C338.238 180.222 337.405 180.779 336.488 181.159C335.571 181.539 334.589 181.734 333.596 181.734Z" fill="#FC6B37"/>
<path d="M330.412 85.774C330.359 85.774 330.311 85.7648 330.27 85.7466C330.229 85.7281 330.196 85.7028 330.172 85.6706C330.149 85.6382 330.137 85.6008 330.136 85.5584H330.291C330.292 85.5762 330.297 85.5918 330.308 85.6053C330.319 85.6185 330.333 85.6288 330.351 85.6362C330.369 85.6435 330.39 85.6472 330.412 85.6472C330.436 85.6472 330.456 85.643 330.474 85.6347C330.492 85.6265 330.506 85.615 330.517 85.6003C330.527 85.5856 330.532 85.5687 330.532 85.5495C330.532 85.5301 330.526 85.5129 330.515 85.498C330.505 85.4829 330.489 85.471 330.469 85.4625C330.449 85.454 330.426 85.4497 330.398 85.4497H330.33V85.3368H330.398C330.421 85.3368 330.442 85.3328 330.46 85.3247C330.478 85.3167 330.492 85.3056 330.502 85.2914C330.512 85.2769 330.517 85.2601 330.517 85.2409C330.517 85.2227 330.512 85.2067 330.503 85.193C330.495 85.179 330.483 85.1681 330.467 85.1603C330.452 85.1525 330.434 85.1486 330.413 85.1486C330.392 85.1486 330.373 85.1524 330.356 85.16C330.339 85.1673 330.325 85.1778 330.314 85.1916C330.304 85.2053 330.298 85.2214 330.298 85.2399H330.15C330.151 85.198 330.163 85.161 330.186 85.1291C330.209 85.0971 330.241 85.0721 330.28 85.0541C330.32 85.0359 330.364 85.0268 330.414 85.0268C330.464 85.0268 330.508 85.0359 330.546 85.0541C330.583 85.0724 330.613 85.097 330.633 85.128C330.654 85.1588 330.665 85.1933 330.665 85.2317C330.665 85.2724 330.652 85.3064 330.627 85.3336C330.601 85.3608 330.568 85.3781 330.528 85.3855V85.3911C330.581 85.398 330.622 85.4166 330.65 85.4469C330.678 85.477 330.692 85.5146 330.692 85.5598C330.692 85.6012 330.68 85.6381 330.656 85.6703C330.632 85.7025 330.599 85.7278 330.557 85.7463C330.515 85.7647 330.466 85.774 330.412 85.774Z" fill="#FF725E"/>
<path d="M428.102 165.702L461.366 204.619L469.166 196.158L431.921 161.314L428.102 165.702Z" fill="#E0E0E0"/>
<path d="M461.365 204.617L436.209 207.747L416.365 170.828L428.101 165.7L461.365 204.617Z" fill="#E0E0E0"/>
<path d="M461.367 204.618C461.137 203.869 460.972 203.101 460.874 202.324C460.619 200.894 460.292 198.906 459.951 196.685L459.917 196.46L460.145 196.447L460.629 196.42C462.984 196.29 465.118 196.196 466.663 196.148C467.497 196.082 468.335 196.085 469.169 196.157C468.348 196.321 467.515 196.416 466.679 196.441C465.138 196.564 463.007 196.704 460.651 196.834L460.168 196.86L460.361 196.623C460.696 198.846 460.975 200.84 461.161 202.282C461.299 203.053 461.37 203.835 461.373 204.619" fill="#263238"/>
<path d="M430.066 163.427C430.151 163.35 436.956 170.727 445.266 179.9C453.576 189.073 460.241 196.576 460.157 196.653C460.073 196.73 453.269 189.353 444.957 180.179C436.645 171.005 429.983 163.504 430.068 163.428" fill="#263238"/>
<path d="M461.366 204.618L436.21 207.748L416.366 170.829L428.102 165.701L461.366 204.618Z" fill="black"/>
<path d="M459.803 210.38L448.278 220.203L427.978 170.344L428.969 169.734L459.803 210.38Z" fill="#455A64"/>
<path d="M448.278 220.202L429.908 215.674L416.008 172.998L427.97 170.342L448.278 220.202Z" fill="#455A64"/>
<path d="M448.278 220.203L429.908 215.675L416.008 172.999L427.97 170.343L448.278 220.203Z" fill="black"/>
<path d="M448.279 220.203C448.274 219.931 448.305 219.659 448.372 219.395C448.459 218.881 448.597 218.139 448.772 217.224C449.131 215.395 449.655 212.873 450.26 210.094C450.353 209.667 450.445 209.247 450.532 208.848L450.574 208.655L450.768 208.689C453.277 209.133 455.495 209.545 457.085 209.86C457.945 209.991 458.794 210.186 459.625 210.443C458.756 210.404 457.891 210.3 457.038 210.132C455.438 209.889 453.209 209.526 450.698 209.095L450.934 208.936C450.848 209.336 450.757 209.756 450.665 210.183C450.065 212.963 449.49 215.474 449.058 217.283C448.842 218.19 448.658 218.922 448.524 219.426C448.475 219.694 448.391 219.954 448.273 220.2" fill="#263238"/>
<path d="M428.443 170.144C428.543 170.087 433.614 178.715 439.77 189.414C445.926 200.113 450.839 208.834 450.739 208.891C450.639 208.948 445.569 200.322 439.411 189.62C433.253 178.918 428.344 170.201 428.443 170.144Z" fill="#263238"/>
<path d="M424.081 169.218L440.146 206.439L426.986 211.006L423.033 169.442L424.081 169.218Z" fill="#FC6B37"/>
<path d="M426.986 211.006L414.78 208.246L413.107 170.755L423.032 169.443L426.986 211.006Z" fill="#FF725E"/>
<path d="M426.987 211.006L414.781 208.246L413.108 170.755L423.033 169.443L426.987 211.006Z" fill="black"/>
<path d="M426.986 211.005C427.42 210.302 427.912 209.636 428.458 209.015C429.408 207.815 430.743 206.186 432.237 204.399L432.724 203.817L432.816 203.708L432.95 203.754C434.987 204.454 436.795 205.104 438.089 205.586C438.799 205.809 439.487 206.095 440.146 206.44C439.414 206.308 438.695 206.111 437.998 205.852C436.68 205.439 434.856 204.84 432.815 204.145L433.04 204.082L432.554 204.665C431.06 206.452 429.69 208.056 428.683 209.203C428.168 209.85 427.599 210.452 426.983 211.003" fill="#263238"/>
<path d="M423.569 169.327C423.68 169.298 425.854 177.027 428.426 186.583C430.998 196.139 432.994 203.918 432.883 203.948C432.772 203.978 430.598 196.248 428.025 186.69C425.452 177.132 423.458 169.356 423.569 169.326" fill="#263238"/>
<path d="M431.921 161.314L418.448 167.503L419.805 169.328L428.105 165.702L431.921 161.314Z" fill="#263238"/>
<path d="M428.965 169.731L424.696 170.637L424.89 171.025L427.974 170.34L428.965 169.731Z" fill="#263238"/>
<path d="M424.465 116.556C424.465 116.556 428.986 122.392 429.473 126.088C429.873 129.144 432.084 145.703 433.208 153.501C433.459 155.076 433.378 156.687 432.971 158.229C432.565 159.771 431.841 161.212 430.846 162.459C428.899 164.817 425.955 166.477 421.973 163.686C419.236 161.768 412.234 153.936 412.234 153.936L423.75 117.861" fill="#FC6B37"/>
<path d="M411.993 66.594C410.874 66.2549 409.699 66.1422 408.536 66.2624C407.373 66.3826 406.246 66.7333 405.22 67.294C404.649 66.5596 403.892 65.991 403.027 65.6469C402.163 65.3027 401.222 65.1955 400.303 65.3363C399.383 65.477 398.518 65.8606 397.796 66.4476C397.074 67.0345 396.522 67.8034 396.196 68.675C395.213 68.2777 394.121 68.2465 393.117 68.587C392.113 68.9275 391.265 69.6171 390.727 70.5303C390.188 71.4435 389.996 72.5196 390.184 73.5628C390.373 74.6059 390.929 75.5467 391.753 76.214C390.955 76.5455 390.243 77.0547 389.671 77.703C389.099 78.3512 388.683 79.1214 388.453 79.9549C388.224 80.7883 388.188 81.6631 388.348 82.5126C388.508 83.3621 388.86 84.1639 389.376 84.857C387.676 85.682 387.382 87.987 387.633 89.862C387.884 91.737 388.425 93.747 387.584 95.442C386.935 96.752 385.595 97.561 384.678 98.7C383.761 99.839 383.441 101.8 384.678 102.571C384.148 102.642 383.637 102.821 383.178 103.095C382.718 103.37 382.319 103.735 382.005 104.168C381.691 104.601 381.468 105.094 381.35 105.616C381.232 106.138 381.221 106.679 381.318 107.205C381.415 107.731 381.618 108.233 381.914 108.678C382.211 109.124 382.595 109.505 383.042 109.797C383.49 110.09 383.993 110.289 384.52 110.382C385.048 110.475 385.588 110.459 386.109 110.337C385.796 111.092 385.678 111.915 385.768 112.727C385.858 113.54 386.153 114.317 386.624 114.985C387.589 116.315 388.949 117.307 390.51 117.818C392.738 118.578 395.145 118.642 397.411 118.003C399.677 117.364 401.695 116.052 403.198 114.24L417.183 70.996C416.652 69.9536 415.919 69.0275 415.026 68.272C414.134 67.5165 413.099 66.9467 411.983 66.596" fill="#7E7E7E"/>
<path d="M418.645 78.575L418.832 76.242L404.962 72.73C400.662 72.011 395.725 76.066 395.19 80.391C394.596 85.196 394.06 91.091 394.415 94.72C395.129 102.026 400.62 103.281 400.62 103.281L400.22 110.467L416.212 111.63L418.645 78.575Z" fill="#FAC5B4"/>
<path d="M396.886 87.282C396.869 87.5239 396.947 87.7628 397.104 87.9478C397.261 88.1327 397.484 88.2491 397.725 88.272C397.843 88.2885 397.962 88.2814 398.077 88.2509C398.192 88.2205 398.299 88.1674 398.393 88.0948C398.487 88.0222 398.565 87.9316 398.623 87.8282C398.682 87.7248 398.719 87.6109 398.732 87.493C398.749 87.2513 398.671 87.0126 398.515 86.8275C398.359 86.6424 398.136 86.5256 397.895 86.502C397.777 86.4855 397.658 86.4927 397.543 86.5231C397.428 86.5536 397.321 86.6068 397.227 86.6795C397.133 86.7522 397.054 86.8429 396.996 86.9464C396.938 87.0499 396.901 87.164 396.887 87.282" fill="#263238"/>
<path d="M396.535 83.556C396.642 83.684 397.377 83.206 398.376 83.269C399.375 83.332 400.076 83.875 400.192 83.759C400.249 83.708 400.145 83.483 399.839 83.231C399.425 82.9056 398.92 82.7163 398.394 82.689C397.875 82.656 397.359 82.7891 396.92 83.069C396.598 83.286 396.481 83.499 396.535 83.557" fill="#263238"/>
<path d="M405.644 87.824C405.627 88.0659 405.705 88.3048 405.862 88.4898C406.019 88.6747 406.242 88.7911 406.483 88.814C406.6 88.8305 406.72 88.8233 406.835 88.7929C406.949 88.7625 407.057 88.7094 407.151 88.6368C407.244 88.5642 407.323 88.4736 407.381 88.3702C407.439 88.2668 407.476 88.1529 407.49 88.035C407.507 87.7933 407.429 87.5546 407.273 87.3695C407.116 87.1844 406.894 87.0676 406.653 87.044C406.535 87.0275 406.416 87.0347 406.301 87.0651C406.186 87.0956 406.078 87.1488 405.984 87.2215C405.89 87.2942 405.812 87.3849 405.754 87.4884C405.695 87.5919 405.658 87.706 405.645 87.824" fill="#263238"/>
<path d="M406.341 84.334C406.449 84.462 407.184 83.984 408.182 84.047C409.18 84.11 409.882 84.653 409.999 84.537C410.055 84.486 409.952 84.261 409.646 84.009C409.232 83.6831 408.728 83.4934 408.202 83.466C407.683 83.4331 407.166 83.5662 406.727 83.846C406.406 84.063 406.289 84.277 406.342 84.334" fill="#263238"/>
<path d="M402.271 91.522C401.756 91.3262 401.218 91.1952 400.671 91.132C400.417 91.09 400.178 91.025 400.147 90.849C400.141 90.5841 400.217 90.3239 400.363 90.103L401.233 88.203C402.032 86.6003 402.701 84.936 403.233 83.226C402.306 84.759 401.503 86.3642 400.833 88.026C400.54 88.693 400.26 89.326 399.993 89.937C399.814 90.2348 399.746 90.5859 399.8 90.929C399.832 91.0218 399.884 91.106 399.954 91.1754C400.023 91.2447 400.107 91.2973 400.2 91.329C400.339 91.3754 400.484 91.4043 400.63 91.415C401.172 91.5178 401.724 91.5514 402.274 91.515" fill="#263238"/>
<path d="M400.622 103.298C404.108 103.563 407.6 102.872 410.722 101.298C410.722 101.298 407.973 106.218 400.522 105.105L400.622 103.298Z" fill="#6F4439"/>
<path d="M406.572 80.886C406.672 81.158 407.672 81.029 408.843 81.17C410.02 81.289 410.967 81.632 411.122 81.388C411.192 81.271 411.022 81.016 410.644 80.752C410.133 80.4288 409.556 80.2263 408.955 80.1599C408.355 80.0935 407.747 80.165 407.178 80.369C406.747 80.542 406.53 80.757 406.572 80.885" fill="#263238"/>
<path d="M396.777 81.084C396.937 81.323 397.641 81.135 398.469 81.184C399.298 81.201 399.985 81.441 400.163 81.215C400.241 81.105 400.147 80.87 399.856 80.635C399.462 80.3502 398.993 80.1887 398.507 80.1709C398.021 80.1531 397.541 80.2798 397.128 80.535C396.819 80.748 396.707 80.975 396.777 81.091" fill="#263238"/>
<path d="M395.217 75.186C396.87 73.035 399.196 71.4994 401.823 70.824L413.54 72.298L414.54 72.28C414.76 71.542 416.005 71.155 416.005 71.155C417.105 70.311 420.92 70.265 423.578 73.043C424.599 74.4831 425.176 76.1901 425.239 77.954C425.248 78.479 424.685 79.199 425.124 79.487C425.655 79.556 426.189 79.5941 426.724 79.601C429.704 80.254 431.566 82.895 431.024 86.846C430.973 87.0417 430.951 87.2439 430.96 87.446C431.055 87.7506 431.236 88.0208 431.483 88.223C432.181 88.9897 432.632 89.9484 432.779 90.9748C432.925 92.0013 432.759 93.0479 432.303 93.979C431.948 94.5095 431.678 95.0922 431.503 95.706C431.322 96.833 432.145 97.838 432.783 98.784C434.695 101.622 435.106 105.747 432.862 108.33C432.23 108.874 431.733 109.557 431.409 110.325C431.336 110.726 431.314 111.134 431.344 111.54C431.358 113.602 430.271 115.909 428.256 116.34C427.137 116.581 425.779 116.266 424.982 117.088C424.678 117.484 424.437 117.924 424.268 118.394C423.822 119.238 423.101 119.903 422.224 120.281C421.348 120.658 420.368 120.724 419.449 120.468C417.631 119.908 417.028 112.531 417.292 110.647C415.092 109.847 413.461 109.705 413.563 107.364C413.563 107.364 413.904 103.336 413.252 101.373C412.6 99.41 413.908 95.234 414.652 93.206C415.396 91.178 414.509 86.455 414.31 84.578C414.298 84.0384 414.35 83.4993 414.465 82.972V82.966C414.547 82.51 414.654 81.996 414.779 81.445C414.825 80.932 415.248 78.192 415.24 77.712C415.211 75.937 413.009 76.886 411.327 77.452C410.92 77.5901 410.495 77.6666 410.065 77.679C409.37 77.6924 408.682 77.5445 408.054 77.2469C407.426 76.9493 406.876 76.5102 406.446 75.964C405.638 76.8034 404.618 77.4089 403.494 77.7164C402.37 78.0239 401.184 78.022 400.061 77.711C399.211 79.0142 398.193 80.1992 397.032 81.235C395.853 82.2754 394.31 82.8059 392.741 82.71C392.701 79.9975 393.571 77.3499 395.211 75.189" fill="#7E7E7E"/>
<path d="M402.994 93.945C403.169 93.7012 403.402 93.5059 403.673 93.3775C403.944 93.2491 404.244 93.1918 404.543 93.211C404.76 93.2194 404.973 93.2716 405.17 93.3646C405.366 93.4576 405.542 93.5894 405.686 93.752C405.825 93.9086 405.913 94.1041 405.937 94.3121C405.961 94.5201 405.921 94.7306 405.822 94.915C405.673 95.0987 405.473 95.2338 405.247 95.3031C405.021 95.3724 404.78 95.3727 404.554 95.304C404.083 95.1633 403.645 94.9308 403.264 94.62C403.149 94.5473 403.05 94.4536 402.97 94.344C402.931 94.292 402.909 94.2295 402.906 94.1646C402.903 94.0997 402.919 94.0354 402.953 93.98" fill="#6F4439"/>
<path d="M405.379 92.138C405.218 92.138 405.27 93.2 404.398 94C403.526 94.8 402.388 94.74 402.387 94.889C402.376 94.957 402.65 95.083 403.129 95.072C403.752 95.0495 404.347 94.808 404.81 94.39C405.254 93.9883 405.525 93.4295 405.564 92.832C405.582 92.386 405.45 92.132 405.379 92.138Z" fill="#263238"/>
<path d="M383.145 282.763L384.464 296.496C384.464 296.496 369.495 302.088 369.333 304.854L397.633 304.931L397.617 302.861L396.43 295.796L394.681 282.073L383.145 282.763Z" fill="#455A64"/>
<path d="M392.982 294.365C393.261 294.449 393.499 294.633 393.65 294.882C393.802 295.131 393.856 295.427 393.803 295.713C393.729 295.994 393.55 296.237 393.303 296.39C393.056 296.544 392.759 296.597 392.474 296.538C392.178 296.449 391.927 296.253 391.767 295.988C391.608 295.723 391.553 295.409 391.612 295.106C391.719 294.82 391.933 294.587 392.208 294.455C392.484 294.323 392.799 294.304 393.089 294.4" fill="#E0E0E0"/>
<path d="M397.631 304.932L397.615 302.862L370.472 303.383C370.472 303.383 369.184 303.947 369.333 304.854L397.631 304.932Z" fill="#263238"/>
<path d="M383.995 296.349C383.995 296.491 384.707 296.549 385.404 297.005C386.113 297.44 386.473 298.051 386.604 297.995C386.734 297.967 386.521 297.123 385.667 296.589C384.813 296.055 383.967 296.219 383.995 296.349Z" fill="#263238"/>
<path d="M380.959 297.613C380.927 297.75 381.54 297.989 382.022 298.586C382.522 299.168 382.643 299.815 382.784 299.808C382.918 299.83 383.013 299.002 382.4 298.271C381.787 297.54 380.962 297.478 380.959 297.613Z" fill="#263238"/>
<path d="M379.245 320.469C379.373 320.498 379.569 319.792 379.204 319.018C378.839 318.244 378.177 317.938 378.117 318.056C378.037 318.172 378.468 318.587 378.758 319.227C379.064 319.86 379.105 320.456 379.246 320.469" fill="#263238"/>
<path d="M382.992 293.048C383.052 293.177 383.7 292.98 384.499 293.032C385.299 293.069 385.923 293.332 385.999 293.214C386.08 293.114 385.471 292.589 384.529 292.542C383.587 292.495 382.929 292.942 382.995 293.049" fill="#263238"/>
<path d="M417.921 283.151L419.134 296.651C419.134 296.651 404.395 302.051 404.219 304.772L432.019 305.018V302.985L430.896 296.038L429.26 282.546L417.921 283.151Z" fill="#455A64"/>
<path d="M427.514 294.608C427.788 294.692 428.021 294.874 428.168 295.119C428.316 295.365 428.368 295.656 428.314 295.937C428.239 296.213 428.062 296.449 427.818 296.598C427.574 296.747 427.282 296.797 427.003 296.737C426.713 296.647 426.467 296.453 426.312 296.192C426.158 295.931 426.105 295.622 426.165 295.325C426.272 295.045 426.483 294.817 426.755 294.689C427.027 294.562 427.337 294.544 427.621 294.641" fill="#E0E0E0"/>
<path d="M432.018 305.017V302.984L405.345 303.328C405.345 303.328 404.076 303.875 404.216 304.767L432.018 305.017Z" fill="#263238"/>
<path d="M418.673 296.504C418.673 296.643 419.373 296.704 420.053 297.157C420.747 297.588 421.098 298.191 421.225 298.137C421.353 298.11 421.149 297.279 420.314 296.749C419.479 296.219 418.644 296.375 418.673 296.503" fill="#263238"/>
<path d="M415.684 297.727C415.651 297.862 416.252 298.1 416.722 298.689C417.209 299.264 417.322 299.9 417.464 299.895C417.594 299.918 417.694 299.104 417.096 298.383C416.498 297.662 415.688 297.595 415.684 297.727Z" fill="#263238"/>
<path d="M413.977 301.293C414.104 301.323 414.299 300.629 413.945 299.868C413.591 299.107 412.945 298.8 412.883 298.916C412.804 299.03 413.225 299.44 413.506 300.07C413.787 300.7 413.839 301.279 413.977 301.293Z" fill="#263238"/>
<path d="M417.706 293.252C417.764 293.378 418.406 293.189 419.187 293.246C419.973 293.287 420.587 293.552 420.656 293.433C420.737 293.333 420.142 292.816 419.216 292.763C418.29 292.71 417.638 293.143 417.706 293.252Z" fill="#263238"/>
<path d="M382.533 163.334C382.533 163.334 375.826 182.761 375.594 197.213C375.362 211.665 375.132 234.643 378.138 259.992C381.144 285.341 382.533 295.528 382.533 295.528H397.799C398.767 285.528 399.23 275.486 399.187 265.44C398.955 251.226 397.845 246.725 399.209 231.089C400.573 215.453 402.735 206.06 405.009 201.323C408.977 196.204 411.331 190.019 411.772 183.557C411.967 177.045 410.889 170.557 408.599 164.457L382.533 163.334Z" fill="#263238"/>
<path d="M396.099 190.589C396.353 191.37 400.883 223.218 404.188 237.266C407.493 251.314 411.169 255.032 411.814 266.459C412.556 279.602 416.164 295.529 416.164 295.529H432.419C432.419 295.529 430.134 271.234 427.847 252.243C425.56 233.252 422.259 209.843 422.768 202.815C423.277 195.787 424.546 187.115 422.768 177.276C420.99 167.437 417.146 164.84 417.146 164.84L403.356 164.216L396.099 190.589Z" fill="#263238"/>
<path d="M411.399 172.372C411.497 172.529 411.581 172.695 411.651 172.866C411.876 173.35 412.061 173.852 412.203 174.366C412.669 176.269 412.85 178.231 412.739 180.187C412.619 183.084 412.17 185.958 411.402 188.754C410.962 190.413 410.368 192.028 409.628 193.576C408.775 195.206 407.793 196.764 406.691 198.237C404.726 201.165 403.327 204.434 402.564 207.877C401.872 210.675 401.356 213.514 401.021 216.377C400.721 218.822 400.541 220.808 400.406 222.177C400.339 222.839 400.287 223.366 400.248 223.757C400.237 223.942 400.211 224.125 400.17 224.306C400.158 224.121 400.161 223.935 400.18 223.751C400.203 223.358 400.235 222.829 400.275 222.166C400.37 220.79 400.513 218.798 400.783 216.345C401.086 213.466 401.579 210.61 402.261 207.797C402.672 206.133 403.185 204.497 403.798 202.897C404.129 202.05 404.508 201.223 404.933 200.419C405.382 199.599 405.876 198.804 406.411 198.037C407.504 196.578 408.481 195.035 409.33 193.422C410.065 191.894 410.658 190.302 411.101 188.665C411.877 185.891 412.347 183.041 412.501 180.165C412.632 178.228 412.489 176.283 412.077 174.386C411.949 173.876 411.787 173.374 411.591 172.886C411.514 172.718 411.451 172.544 411.402 172.365" fill="#455A64"/>
<path d="M346.775 123.667C349.292 124.988 351.925 126.074 354.641 126.912L360.316 122.376C360.316 122.376 356.256 114.957 354.95 112.853C354.516 112.146 354.161 111.394 353.892 110.609C353.453 109.029 352.292 109.702 352.081 110.946C352.097 111.627 352.216 112.301 352.434 112.946C352.734 113.711 352.87 114.531 352.834 115.352C352.834 115.352 352.42 115 351.4 114.314C350.289 113.566 346.532 110.434 344.946 109.123C342.575 107.164 341.381 108.378 341.691 109.136C342.075 110.077 347.959 114.197 347.749 114.903C347.749 114.903 346.616 115.547 346.456 116.28C346.363 116.762 346.367 117.258 346.467 117.739C346.467 117.739 345.405 117.839 345.121 118.525C344.973 119.067 345.001 119.642 345.201 120.167C345.201 120.167 344.217 120.258 344.101 120.793C343.985 121.328 344.668 122.405 346.777 123.666" fill="#FAC5B4"/>
<path d="M359.369 120.339C359.454 120.595 371.538 132.967 371.538 132.967C371.538 132.967 381.622 121.607 384.692 117.429C387.762 113.251 392.418 108.129 396.426 107.166C400.434 106.203 406.003 108.788 406.003 108.788L398.903 123.388L389.941 135.71C389.941 135.71 380.256 147.875 375.651 149.75C371.046 151.625 366.535 148.932 364.574 146.885C362.613 144.838 350.974 127.152 350.974 127.152L359.369 120.339Z" fill="#FC6B37"/>
<path d="M426.694 111.984L398.887 107.166C398.887 107.166 391.166 120.759 388.277 135.042C385.388 149.325 382.096 163.596 382.096 163.596L407.782 166.761C410.457 167.09 413.164 167.053 415.828 166.65L418.504 166.245L416.304 157.176C419.476 149.542 422.129 141.702 424.245 133.71C427.697 119.677 426.693 111.985 426.693 111.985" fill="#FC6B37"/>
<path d="M398.241 125.569C398.115 125.789 397.963 125.993 397.789 126.178L396.489 127.771C395.389 129.115 393.895 130.995 392.242 133.071C390.589 135.147 389.062 137.008 387.911 138.316C387.337 138.97 386.863 139.491 386.523 139.841C386.36 140.036 386.175 140.211 385.971 140.362C386.097 140.142 386.249 139.938 386.423 139.753L387.723 138.16C388.823 136.816 390.317 134.936 391.971 132.86C393.625 130.784 395.15 128.924 396.301 127.617C396.876 126.962 397.351 126.441 397.69 126.092C397.853 125.897 398.038 125.723 398.241 125.571" fill="#263238"/>
<path d="M415.882 157.589C415.323 157.825 414.737 157.993 414.138 158.089C411.27 158.695 408.319 158.809 405.412 158.426C404.807 158.377 404.21 158.254 403.634 158.06C404.236 158.063 404.838 158.106 405.434 158.189C408.322 158.438 411.23 158.326 414.091 157.856C414.68 157.727 415.278 157.638 415.879 157.589" fill="#263238"/>
<path d="M371.269 159.55C371.117 158.382 371.077 157.202 371.15 156.026C371.111 154.849 371.184 153.67 371.369 152.507C371.521 153.675 371.56 154.855 371.488 156.031C371.527 157.208 371.454 158.387 371.269 159.55Z" fill="#263238"/>
<path d="M429.79 104.43L414.963 87.93C415.506 92.117 413.928 96.284 412.032 100.056C410.953 102.204 409.749 104.756 410.882 106.876C409.905 107.864 409.08 108.991 408.433 110.221C408.114 110.839 407.934 111.519 407.907 112.214C407.879 112.909 408.004 113.602 408.274 114.243C408.567 114.873 409.077 115.377 409.71 115.665C410.343 115.952 411.058 116.003 411.726 115.808C411.417 116.656 411.368 117.576 411.586 118.452C411.805 119.327 412.28 120.117 412.95 120.72C413.621 121.324 414.457 121.712 415.351 121.837C416.245 121.961 417.155 121.815 417.965 121.418C418.324 123.151 419.311 124.69 420.737 125.738C421.454 126.245 422.298 126.544 423.174 126.601C424.051 126.659 424.926 126.472 425.703 126.063C426.459 125.617 427.025 124.91 427.295 124.075C427.564 123.24 427.519 122.336 427.167 121.532C430.429 120.811 432.467 117.295 432.567 113.955C432.667 110.615 431.258 107.43 429.79 104.43Z" fill="#7E7E7E"/>
<path d="M399.127 77.219C399.127 77.23 399.047 77.264 398.883 77.319C398.636 77.3826 398.38 77.4002 398.127 77.371C397.657 77.3088 397.209 77.1364 396.819 76.8679C396.429 76.5994 396.108 76.2423 395.883 75.826C395.563 75.2425 395.454 74.5667 395.573 73.912C395.712 73.1676 396.066 72.4803 396.592 71.935C397.164 71.3258 397.905 70.9004 398.72 70.713C399.586 70.5176 400.486 70.5265 401.348 70.739C401.846 70.8589 402.33 71.0308 402.792 71.252L402.564 71.34C403.156 69.9182 404.266 68.7744 405.669 68.14C406.601 67.7281 407.625 67.5668 408.639 67.672C409.653 67.7773 410.622 68.1454 411.45 68.74C411.628 68.8656 411.795 69.0058 411.95 69.159C412.05 69.264 412.105 69.323 412.097 69.331C412.089 69.339 411.852 69.142 411.384 68.842C410.72 68.4207 409.982 68.1314 409.209 67.99C408.055 67.7708 406.862 67.9191 405.797 68.414C404.477 69.032 403.436 70.1213 402.878 71.468L402.811 71.633L402.65 71.557C402.209 71.3485 401.747 71.1856 401.273 71.071C400.461 70.8706 399.615 70.8593 398.798 71.038C398.043 71.2071 397.355 71.5949 396.819 72.153C396.328 72.6514 395.992 73.281 395.851 73.966C395.731 74.5605 395.818 75.1781 396.096 75.717C396.299 76.1108 396.589 76.453 396.945 76.7176C397.3 76.9823 397.711 77.1623 398.147 77.244C398.474 77.2843 398.805 77.2776 399.13 77.224" fill="#455A64"/>
<path d="M430.56 87.596C430.533 87.583 430.684 87.29 430.843 86.721C431.063 85.9144 431.107 85.0702 430.974 84.245C430.787 83.0079 430.173 81.8754 429.237 81.045C428.661 80.5369 427.988 80.1521 427.258 79.9142C426.527 79.6764 425.756 79.5905 424.992 79.662L424.744 79.688L424.814 79.447C424.957 78.9508 425.042 78.4397 425.069 77.924C425.153 76.185 424.578 74.4783 423.458 73.145C422.529 72.07 421.278 71.322 419.892 71.011C418.957 70.7907 417.988 70.7608 417.041 70.923C416.371 71.044 416.014 71.183 416.003 71.152C416.079 71.0981 416.164 71.0572 416.254 71.031C416.501 70.9317 416.756 70.8528 417.016 70.795C418.22 70.5291 419.472 70.5878 420.646 70.9653C421.82 71.3427 422.872 72.0252 423.695 72.943C424.884 74.3296 425.496 76.1189 425.406 77.943C425.378 78.4851 425.287 79.0221 425.135 79.543L424.957 79.328C425.766 79.2534 426.583 79.3475 427.354 79.6045C428.125 79.8615 428.835 80.2757 429.438 80.821C430.41 81.7038 431.034 82.9052 431.197 84.208C431.315 85.0632 431.235 85.9342 430.961 86.753C430.89 86.9726 430.8 87.1855 430.691 87.389C430.615 87.527 430.572 87.597 430.562 87.589" fill="#455A64"/>
<path d="M416.402 115.86C416.395 115.87 416.324 115.826 416.195 115.733C416.007 115.597 415.831 115.446 415.668 115.281C414.917 114.512 414.383 113.557 414.121 112.515C413.859 111.472 413.877 110.379 414.175 109.346C414.654 107.827 415.697 106.55 417.088 105.775C417.654 105.454 418.269 105.229 418.909 105.11L418.816 105.386C418.366 104.876 418.033 104.275 417.837 103.624C417.642 102.973 417.59 102.287 417.684 101.614C417.839 100.533 418.391 99.5479 419.232 98.851C419.776 98.389 420.422 98.0636 421.117 97.902C421.302 97.8579 421.49 97.8311 421.68 97.822C421.81 97.822 421.88 97.822 421.88 97.83C421.88 97.858 421.614 97.88 421.15 98.018C420.493 98.2178 419.888 98.5591 419.378 99.018C418.607 99.6976 418.11 100.634 417.978 101.653C417.9 102.281 417.956 102.919 418.143 103.524C418.331 104.129 418.645 104.687 419.065 105.161L419.265 105.382L418.971 105.438C418.368 105.554 417.789 105.767 417.255 106.07C415.938 106.804 414.946 108.007 414.474 109.439C414.117 110.616 414.138 111.875 414.535 113.039C414.801 113.829 415.219 114.558 415.765 115.187C416.159 115.629 416.423 115.831 416.403 115.856" fill="#455A64"/>
<path d="M416.159 79.555L415.696 77.463C414.121 80.479 413.597 83.9345 414.207 87.282C414.493 88.823 415.007 90.482 414.339 91.897C413.883 92.866 412.948 93.529 412.413 94.457C411.736 95.631 412.236 98.722 412.061 99.331C411.661 100.717 410.322 101.603 410.006 103.279C409.69 104.955 410.092 106.979 411.597 107.779C414.431 103.105 417.329 98.248 417.997 92.824C418.547 88.357 417.528 83.842 416.159 79.555Z" fill="#263238"/>
<path d="M424.749 90.755C424.67 90.7752 424.588 90.7799 424.507 90.769C424.276 90.7602 424.046 90.7362 423.819 90.697C422.965 90.5668 422.163 90.2058 421.499 89.653C421.042 89.2545 420.693 88.7472 420.484 88.178C420.227 87.5126 420.24 86.7734 420.519 86.117C420.676 85.7537 420.916 85.4325 421.22 85.1794C421.524 84.9262 421.883 84.7483 422.269 84.66C422.693 84.5697 423.136 84.6328 423.518 84.838C423.725 84.9507 423.893 85.1234 424 85.3335C424.107 85.5436 424.149 85.7812 424.118 86.015C424.076 86.2612 423.94 86.4811 423.737 86.627C423.543 86.7546 423.317 86.8259 423.085 86.833C422.664 86.8429 422.248 86.7433 421.877 86.544C421.2 86.1981 420.598 85.7224 420.104 85.144C419.399 84.3338 418.935 83.3418 418.766 82.2809C418.597 81.2201 418.73 80.1331 419.149 79.144C419.24 78.9316 419.347 78.7264 419.469 78.53C419.556 78.398 419.606 78.33 419.616 78.337C419.642 78.352 419.471 78.637 419.271 79.192C418.993 79.9747 418.88 80.8066 418.94 81.635C419.017 82.6035 419.341 83.536 419.881 84.3435C420.421 85.151 421.159 85.8064 422.025 86.247C422.345 86.4179 422.704 86.5037 423.067 86.496C423.231 86.5064 423.393 86.4581 423.525 86.3597C423.656 86.2613 423.748 86.1192 423.784 85.959C423.803 85.7923 423.771 85.6236 423.693 85.4752C423.615 85.3268 423.493 85.2054 423.345 85.127C423.032 84.962 422.672 84.9111 422.326 84.983C421.991 85.06 421.678 85.214 421.413 85.4329C421.147 85.6518 420.936 85.9295 420.797 86.244C420.543 86.8276 420.524 87.4865 420.743 88.084C420.927 88.6151 421.24 89.0923 421.653 89.473C422.277 90.0171 423.03 90.3933 423.84 90.566C424.415 90.7 424.746 90.724 424.74 90.753" fill="#455A64"/>
<path d="M417.983 165.716C417.889 165.512 417.818 165.298 417.771 165.078C417.642 164.601 417.478 163.991 417.277 163.248C416.858 161.601 416.288 159.358 415.61 156.689L415.598 156.642L415.613 156.593C416.441 153.921 417.504 150.781 418.713 147.455C420.501 142.525 422.233 138.107 423.501 134.917L425.028 131.148L425.463 130.131C425.506 130.008 425.565 129.892 425.64 129.786C425.624 129.915 425.591 130.041 425.54 130.161C425.44 130.445 425.321 130.79 425.177 131.206L423.777 135.022C422.577 138.24 420.892 142.673 419.105 147.596C417.899 150.918 416.819 154.045 415.957 156.696V156.596C416.577 159.279 417.097 161.534 417.48 163.19C417.642 163.944 417.774 164.559 417.88 165.043C417.939 165.26 417.974 165.483 417.985 165.707" fill="#263238"/>
<path d="M422.183 152.988C422.249 152.998 422.126 154.019 422.115 155.674C422.096 157.83 422.247 159.984 422.568 162.116C422.849 164.248 423.437 166.329 424.313 168.293C424.725 169.081 425.201 169.834 425.735 170.545C425.716 170.566 425.524 170.395 425.189 170.061C424.744 169.566 424.364 169.017 424.057 168.426C423.084 166.463 422.444 164.352 422.163 162.179C421.832 160.025 421.719 157.843 421.825 155.666C421.856 155.007 421.923 154.349 422.025 153.697C422.044 153.454 422.1 153.215 422.191 152.988" fill="#263238"/>
<path d="M422.263 152.635C422.181 152.847 422.074 153.049 421.944 153.235C421.689 153.787 421.488 154.362 421.344 154.952C420.873 156.919 420.617 158.93 420.579 160.952C420.495 162.972 420.611 164.996 420.926 166.993C421.18 168.522 421.539 169.422 421.47 169.449C421.339 169.262 421.237 169.055 421.17 168.836C421.064 168.59 420.977 168.337 420.909 168.078C420.8 167.741 420.711 167.397 420.643 167.049C420.238 165.039 420.079 162.987 420.17 160.938C420.204 158.886 420.507 156.847 421.07 154.873C421.245 154.272 421.496 153.695 421.816 153.157C422.08 152.795 422.259 152.626 422.275 152.642" fill="#263238"/>
<path d="M422.624 153.388C421.879 152.207 421.253 150.955 420.755 149.651C420.131 148.403 419.632 147.097 419.265 145.751C420.635 148.18 421.76 150.74 422.624 153.392" fill="#263238"/>
</svg>
