<svg width="72" height="72" viewBox="0 0 72 72" fill="none" xmlns="http://www.w3.org/2000/svg">
<path opacity="0.6" d="M25.7327 0L22.5848 25.2505H29.4942L37.4206 1.4669L25.7327 0ZM40.5363 1.29815L32.5614 25.2505L56.7282 25.2668L62.2655 8.61644L40.5363 1.29815ZM22.4395 3.02468L10.8323 4.29686L13.1085 25.2505H19.6789L22.4395 3.02468ZM3.713 20.3825C1.8565 20.3825 0.616682 21.8105 0.279282 23.1735C0.11139 23.855 0.206637 24.4068 0.39713 24.7151C0.586009 25.0071 0.847534 25.2505 1.77578 25.2505H10.1865L9.65381 20.3825H3.713ZM61.4099 20.3825L59.7955 25.2505H67.4637C67.0439 24.4392 66.8664 23.5792 66.9794 22.7192C67.0924 21.8754 67.4152 21.1127 67.835 20.3825H61.4099ZM0 28.1714V68.2354C0 69.063 0.450403 70.0366 1.18978 70.783C1.93076 71.5294 2.90583 71.9838 3.713 71.9838L65.704 72C66.5112 72 67.4798 71.5457 68.2224 70.7992C68.965 70.0528 69.417 69.0792 69.417 68.2516V56.7306H55.3722C48.2691 56.7306 48.2691 43.4246 55.3722 43.4246H69.417V28.1876L0 28.1714ZM55.3722 46.3454C52.1435 46.3454 52.1435 53.8097 55.3722 53.8097H58.9722C57.5193 53.1931 56.5022 51.7489 56.5022 50.0776C56.5022 48.4062 57.5193 46.962 58.9722 46.3454H55.3722ZM62.104 46.3454C63.557 46.962 64.574 48.4062 64.574 50.0776C64.574 51.7489 63.557 53.1931 62.104 53.8097H72V46.3454H62.104ZM60.5381 48.9417C59.8924 48.9417 59.4081 49.4285 59.4081 50.0776C59.4081 50.7266 59.8924 51.2134 60.5381 51.2134C61.1839 51.2134 61.6682 50.7266 61.6682 50.0776C61.6682 49.4285 61.1839 48.9417 60.5381 48.9417Z" fill="white"/>
</svg>
