<svg width="78" height="72" viewBox="0 0 78 72" fill="none" xmlns="http://www.w3.org/2000/svg">
<path opacity="0.6" d="M75.4788 25.7153H70.5881V12.8584C70.5881 12.1765 70.3225 11.5224 69.8497 11.0402C69.3769 10.558 68.7357 10.2871 68.0671 10.2871H7.56301C6.89439 10.2871 6.25317 10.0162 5.78039 9.53394C5.30761 9.05171 5.042 8.39768 5.042 7.71571C5.042 7.03374 5.30761 6.3797 5.78039 5.89748C6.25317 5.41525 6.89439 5.14434 7.56301 5.14434H67.0587C67.7273 5.14434 68.3685 4.87343 68.8413 4.3912C69.314 3.90898 69.5797 3.25494 69.5797 2.57297C69.5797 1.891 69.314 1.23697 68.8413 0.754743C68.3685 0.272518 67.7273 0.00160621 67.0587 0.00160621H7.56301C6.58963 -0.0188623 5.62183 0.156473 4.71491 0.517596C3.80798 0.878719 2.9797 1.41855 2.27736 2.10626C1.57503 2.79397 1.01242 3.61608 0.621663 4.52562C0.230906 5.43516 0.0196622 6.41431 0 7.40714V61.4058C0.00329972 62.8026 0.276715 64.185 0.804587 65.4739C1.33246 66.7627 2.10442 67.9327 3.07625 68.9167C4.04809 69.9008 5.20071 70.6797 6.4681 71.2087C7.73549 71.7378 9.09275 72.0066 10.4622 71.9999H68.0671C68.7357 71.9999 69.3769 71.729 69.8497 71.2467C70.3225 70.7645 70.5881 70.1105 70.5881 69.4285V56.5717H75.4788C75.797 56.5962 76.1168 56.5543 76.4185 56.4484C76.7203 56.3425 76.9976 56.1749 77.2336 55.9558C77.4697 55.7367 77.6593 55.4708 77.7911 55.1744C77.9228 54.8779 77.9939 54.5572 77.9998 54.2317V28.5181C78.0081 27.8114 77.752 27.1281 77.2836 26.6073C76.8152 26.0866 76.1698 25.7676 75.4788 25.7153ZM73.1091 51.4289H51.4789C48.8953 51.3351 46.4538 50.1992 44.6907 48.2707C42.9276 46.3422 41.987 43.7788 42.0755 41.1435C41.987 38.5082 42.9276 35.9448 44.6907 34.0163C46.4538 32.0878 48.8953 30.9519 51.4789 30.858H73.1091V51.4289Z" fill="white"/>
</svg>
