<svg xmlns="http://www.w3.org/2000/svg" width="18.02" height="18.027" viewBox="0 0 18.02 18.027">
  <g id="manage_Store_light" data-name="manage Store_light" transform="translate(-1153.287 -937.227)">
    <path id="Path_21006" data-name="Path 21006" d="M1163.532,952.973h-9.69c-.469,0-.555-.084-.555-.546q0-7.33,0-14.659c0-.455.084-.539.536-.539H1168.5c.433,0,.526.093.526.527q0,4.748,0,9.5v.313a.5.5,0,0,1,.606.192c.327.342.668.672,1,1.009.244.247.241.412-.006.665-.088.09-.184.174-.265.27a.222.222,0,0,0-.049.162c.005.028.087.057.136.059.15.008.3,0,.45,0,.269.008.4.128.4.389q.008.829,0,1.658a.351.351,0,0,1-.385.382c-.15.005-.3,0-.45,0-.055,0-.137.028-.154.066s.018.118.054.159c.1.113.213.211.315.321a.358.358,0,0,1,0,.562q-.571.584-1.154,1.157a.364.364,0,0,1-.579-.01c-.109-.1-.209-.215-.321-.315a.171.171,0,0,0-.142-.041.169.169,0,0,0-.069.129c-.009.157,0,.316,0,.473a.351.351,0,0,1-.377.39q-.84.011-1.681,0a.342.342,0,0,1-.371-.37c-.008-.15,0-.3-.006-.45a.655.655,0,0,0-.07-.181.781.781,0,0,0-.176.088c-.107.093-.2.2-.305.3a.351.351,0,0,1-.544,0c-.4-.386-.794-.77-1.167-1.177A1.493,1.493,0,0,1,1163.532,952.973Zm-9.166-1h8.733c0-.685-.013-1.092,0-1.76a.3.3,0,0,1,.323-.286c.141-.009.285,0,.426-.009a1.337,1.337,0,0,0,.236-.062,1.134,1.134,0,0,0-.112-.211c-.08-.1-.179-.178-.265-.27a.356.356,0,0,1,0-.562q.571-.584,1.155-1.155a.36.36,0,0,1,.579.006c.109.1.209.216.321.315a.169.169,0,0,0,.139.043.171.171,0,0,0,.071-.13c.009-.157,0-.316.005-.473.01-.266.129-.394.4-.4.641-.007,1.021,0,1.658,0v-8.79l-6.51.006c0,.1,0-.091,0-.006,0,.71,0,1.421,0,2.131,0,.294-.167.459-.41.431-.207-.024-.321-.176-.322-.449,0-.7,0-1.405,0-2.108,0-.091,0,.088,0,0h-6.424Zm10.127,1.174.689.691c.227-.125.332-.532.715-.393a1.624,1.624,0,0,1,.7.358c.136.164.105.467.15.716h.948c-.033-.428-.025-.753.495-.97a.77.77,0,0,1,1.024.3l.714-.687a.772.772,0,0,1-.324-1.03c.207-.542.567-.514.968-.5v-.971c-.738-.066-.732-.069-1.043-.753-.2-.436.244-.554.379-.8l-.672-.7c-.276.324-.516.542-1.034.333s-.537-.552-.509-.966h-1a.838.838,0,0,1-1.509.663l-.7.694a.752.752,0,0,1,.308,1.02c-.207.521-.542.528-.962.5v.995c.435-.042.754-.01.966.5A.757.757,0,0,1,1164.493,953.145Z" transform="translate(0 0)" fill="#dee4fe"/>
    <path id="Path_21007" data-name="Path 21007" d="M1186.531,1142c-.671,0-1.342,0-2.013,0-.174,0-.335-.053-.372-.226a.568.568,0,0,1,.076-.384.392.392,0,0,1,.291-.109q2.013-.01,4.026,0c.258,0,.411.141.412.356s-.163.363-.432.364C1187.857,1142,1187.194,1142,1186.531,1142Z" transform="translate(-28.903 -191.165)" fill="#dee4fe"/>
    <path id="Path_21008" data-name="Path 21008" d="M1186.332,1117.877c-.671,0-1.342.01-2.013-.009a.54.54,0,0,1-.363-.2.375.375,0,0,1,.016-.344.429.429,0,0,1,.311-.166c1.358-.011,2.715-.01,4.073-.006a.355.355,0,0,1,.392.354.368.368,0,0,1-.4.37C1187.674,1117.88,1187,1117.877,1186.332,1117.877Z" transform="translate(-28.7 -168.56)" fill="#dee4fe"/>
    <path id="Path_21009" data-name="Path 21009" d="M1337.934,1124.161a2.252,2.252,0,1,1,2.248,2.262A2.248,2.248,0,0,1,1337.934,1124.161Zm.721.005a1.53,1.53,0,1,0,1.543-1.528A1.547,1.547,0,0,0,1338.655,1124.167Z" transform="translate(-172.987 -173.029)" fill="#dee4fe"/>
  </g>
</svg>
