<svg xmlns="http://www.w3.org/2000/svg" viewBox="0 0 349.08 252.54"><defs><style>.cls-1{fill:#e0e0e0;}.cls-2{fill:#f5f5f5;}.cls-3{fill:#fff;}.cls-4{fill:#ebebeb;}.cls-5{fill:#263238;}.cls-6{fill:#fafafa;}.cls-7{fill:#fe7490;}.cls-8{fill:#5a5db7;}.cls-9{fill:#ff725e;}.cls-10{fill:#455a64;}</style></defs><title>no record</title><g id="Layer_2" data-name="Layer 2"><g id="Magnifying_Glass" data-name="Magnifying Glass"><path class="cls-1" d="M45.89,239.26l.24-.08.68-.2,2.62-.75,9.8-2.75-.09.16-1.67-5.58,0-.09.08-.07a31.49,31.49,0,0,0,6.83-8,22.08,22.08,0,0,0,2.29-5.48A16,16,0,0,0,67,210.1a19.79,19.79,0,0,0-6.44-11.76,23.7,23.7,0,0,0-13.34-5.74,19.54,19.54,0,0,0-10.72,2.14,21.41,21.41,0,0,0-8,6.72,19.33,19.33,0,0,0-3.43,9.13c0,.79-.17,1.57-.15,2.34l.07,2.3a23.69,23.69,0,0,0,.78,4.35,20.31,20.31,0,0,0,1.59,3.86,19.08,19.08,0,0,0,2.26,3.21A21.18,21.18,0,0,0,35.11,231a28.18,28.18,0,0,0,9.72,3.36h.06v.05l.75,3.56.19.92a3.11,3.11,0,0,1,.06.32,2.27,2.27,0,0,1-.08-.29l-.22-.89-.84-3.59.07.06A27.8,27.8,0,0,1,35,231.27a21.34,21.34,0,0,1-5.56-4.43,19.32,19.32,0,0,1-2.32-3.25,20.58,20.58,0,0,1-1.64-3.92,24,24,0,0,1-.81-4.41l-.07-2.33c0-.79.1-1.58.15-2.38a19.69,19.69,0,0,1,3.48-9.32,21.79,21.79,0,0,1,8.13-6.86,19.94,19.94,0,0,1,10.94-2.19A24.07,24.07,0,0,1,60.86,198a19.56,19.56,0,0,1,4.4,5.58,12,12,0,0,1,.75,1.57,11.13,11.13,0,0,1,.62,1.6c.17.54.34,1.08.49,1.62l.29,1.65a16.38,16.38,0,0,1-.4,6.42A22.37,22.37,0,0,1,64.67,222a31.6,31.6,0,0,1-7,8.1l.05-.16,1.63,5.59,0,.12-.12,0-9.91,2.64-2.61.68-.67.17Z"/><ellipse class="cls-1" cx="53.61" cy="241.15" rx="7.12" ry="0.21" transform="translate(-61.77 22.71) rotate(-15.31)"/><path class="cls-1" d="M57.45,245.68a5.58,5.58,0,0,1-2.36,1,5.58,5.58,0,0,1-2.53.22,12,12,0,0,1,2.43-.64A12,12,0,0,1,57.45,245.68Z"/><path class="cls-1" d="M48.7,238.49a1,1,0,0,1-.08-.22l-.18-.66L47.78,235l-2.35-9.46L43.83,219a4.53,4.53,0,0,0-.69-1.62,1.14,1.14,0,0,0-1.43-.48,1.66,1.66,0,0,0-.74,1.49,2.56,2.56,0,0,0,.7,1.69,4.13,4.13,0,0,0,3.63,1.2,4.22,4.22,0,0,0,3.18-2.41,6.31,6.31,0,0,0,.45-4.25,3.77,3.77,0,0,0-1-1.92,1.55,1.55,0,0,0-1.88-.26,1.57,1.57,0,0,0-.35,1.87,4.26,4.26,0,0,0,1.46,1.6,7.89,7.89,0,0,0,4,1.65,4.45,4.45,0,0,0,2.06-.31,4.17,4.17,0,0,0,1.6-1.25,3.26,3.26,0,0,0,.72-1.82A2.36,2.36,0,0,0,55,212.5a1.59,1.59,0,0,0-1.61-.55,2,2,0,0,0-1.19,1.24,8.4,8.4,0,0,0,.09,3.62c.38,2.38.81,4.6,1.2,6.61L55.41,233l.53,2.6.13.68a1,1,0,0,1,0,.23,1,1,0,0,1-.07-.22l-.17-.67-.6-2.58c-.51-2.24-1.24-5.49-2.06-9.52-.41-2-.85-4.23-1.25-6.62-.09-.6-.19-1.21-.25-1.84a4.55,4.55,0,0,1,.16-2,2.33,2.33,0,0,1,1.44-1.48,2,2,0,0,1,2,.66,2.76,2.76,0,0,1,.7,2,3.67,3.67,0,0,1-.8,2,4.57,4.57,0,0,1-1.76,1.38,4.86,4.86,0,0,1-2.25.35,8.29,8.29,0,0,1-4.23-1.73,4.65,4.65,0,0,1-1.6-1.78,2,2,0,0,1,.5-2.39,2,2,0,0,1,2.42.29,4.17,4.17,0,0,1,1.1,2.13,6.73,6.73,0,0,1-.49,4.54,4.64,4.64,0,0,1-3.5,2.62,4.53,4.53,0,0,1-4-1.35,3,3,0,0,1-.79-2,2,2,0,0,1,1-1.83,1.37,1.37,0,0,1,1.08-.05,1.77,1.77,0,0,1,.81.64,4.86,4.86,0,0,1,.74,1.76l1.55,6.55L47.94,235l.58,2.58.14.67A1,1,0,0,1,48.7,238.49Z"/><ellipse class="cls-1" cx="54.4" cy="243.72" rx="5.78" ry="0.21" transform="translate(-62.31 22.96) rotate(-15.28)"/><circle class="cls-2" cx="310.65" cy="214.11" r="38.43"/><path class="cls-3" d="M310.65,246.09a32,32,0,1,1,32-32A32,32,0,0,1,310.65,246.09Zm0-58.5a26.51,26.51,0,1,0,26.51,26.51A26.54,26.54,0,0,0,310.65,187.59Z"/><path class="cls-3" d="M310.43,225a11.78,11.78,0,1,1,11.78-11.78A11.79,11.79,0,0,1,310.43,225Zm0-18.09a6.31,6.31,0,1,0,6.31,6.31A6.31,6.31,0,0,0,310.43,207Z"/><rect class="cls-1" x="0.2" y="0.2" width="306.39" height="19.63"/><rect class="cls-3" x="0.16" y="37.86" width="306.39" height="171.83"/><polygon class="cls-4" points="0.2 19.68 42.27 19.68 46.44 7.54 114.64 7.54 118.8 19.68 306.6 19.68 306.6 38.27 0.2 38.27 0.2 19.68"/><circle class="cls-5" cx="8.01" cy="8.03" r="2.3"/><circle class="cls-5" cx="15.14" cy="8.03" r="2.3"/><circle class="cls-5" cx="22.27" cy="8.03" r="2.3"/><path class="cls-6" d="M272.73,34.58H62.52a5.83,5.83,0,0,1-5.83-5.83h0a5.83,5.83,0,0,1,5.83-5.83h210.2a5.83,5.83,0,0,1,5.83,5.83h0A5.83,5.83,0,0,1,272.73,34.58Z"/><path class="cls-1" d="M67.56,29.52v2h-1V29.67c0-.56-.26-.81-.7-.81s-.83.29-.83.93v1.7H64V26.74h1v1.66A1.51,1.51,0,0,1,66.13,28,1.35,1.35,0,0,1,67.56,29.52Z"/><path class="cls-1" d="M70.68,31.32a1.43,1.43,0,0,1-.81.22,1.14,1.14,0,0,1-1.29-1.24V28.89H68v-.77h.53v-.84h1v.84h.86v.77h-.86v1.4a.4.4,0,0,0,.43.45.67.67,0,0,0,.4-.13Z"/><path class="cls-1" d="M73.39,31.32a1.43,1.43,0,0,1-.81.22,1.14,1.14,0,0,1-1.29-1.24V28.89h-.53v-.77h.53v-.84h1v.84h.86v.77h-.86v1.4a.4.4,0,0,0,.43.45.67.67,0,0,0,.4-.13Z"/><path class="cls-1" d="M77.7,29.77A1.67,1.67,0,0,1,76,31.54a1.34,1.34,0,0,1-1-.42v1.61H74V28h1v.4A1.34,1.34,0,0,1,76,28,1.67,1.67,0,0,1,77.7,29.77Zm-1,0a.88.88,0,1,0-.88,1A.87.87,0,0,0,76.69,29.77Z"/><path class="cls-1" d="M78.13,28.62a.62.62,0,0,1,1.24,0,.62.62,0,1,1-1.24,0Zm0,2.3a.62.62,0,0,1,1.24,0,.62.62,0,1,1-1.24,0Z"/><path class="cls-1" d="M81.82,26.1h.89l-2.11,6h-.89Z"/><path class="cls-1" d="M83.87,26.1h.89l-2.11,6h-.89Z"/><path class="cls-6" d="M272.54,68.76H89.4A10.34,10.34,0,0,1,79.06,58.42h0A10.34,10.34,0,0,1,89.4,48.08H272.54a10.34,10.34,0,0,1,10.34,10.34h0A10.34,10.34,0,0,1,272.54,68.76Z"/><path class="cls-5" d="M272.54,68.76a10.9,10.9,0,0,0,4.23-1,10.4,10.4,0,0,0,5.56-6.3,10.44,10.44,0,0,0,.43-3.79,10.17,10.17,0,0,0-4.25-7.6,10.14,10.14,0,0,0-4.74-1.85,23.88,23.88,0,0,0-2.74-.08h-2.86l-26.33,0-152.45.06a10.14,10.14,0,0,0-4.74,19.1,10.42,10.42,0,0,0,5.09,1.18h51.1l68.54,0,46.21.06,12.56,0,3.27,0,1.11,0-1.11,0-3.27,0-12.56,0-46.21.06-68.54,0H89.75a10.83,10.83,0,0,1-5.28-1.22,10.55,10.55,0,0,1,4.93-19.87l152.45.06,26.33,0H271a24,24,0,0,1,2.76.09,10.34,10.34,0,0,1,4.82,1.9,10.36,10.36,0,0,1,2.28,14.61,10.33,10.33,0,0,1-4.11,3.31,10.69,10.69,0,0,1-3.15.84C272.92,68.76,272.54,68.76,272.54,68.76Z"/><path class="cls-1" d="M93.59,60.63l.39-.87a2.92,2.92,0,0,0,1.64.52c.68,0,1-.23,1-.53,0-.93-2.89-.29-2.89-2.14,0-.85.68-1.55,2.1-1.55a3.34,3.34,0,0,1,1.73.44l-.36.87A2.81,2.81,0,0,0,95.78,57c-.68,0-.95.26-.95.57,0,.92,2.89.28,2.89,2.11,0,.83-.69,1.54-2.11,1.54A3.55,3.55,0,0,1,93.59,60.63Z"/><path class="cls-1" d="M102.17,59.52H99.27a1,1,0,0,0,1.09.77,1.3,1.3,0,0,0,1-.37l.59.64a2.23,2.23,0,0,1-3.76-1.35,2,2,0,0,1,2-2,1.89,1.89,0,0,1,2,2C102.19,59.3,102.17,59.42,102.17,59.52Zm-2.91-.65h1.88a1,1,0,0,0-1.88,0Z"/><path class="cls-1" d="M106.2,58.93v2.18h-1v-.48a1.25,1.25,0,0,1-1.17.53c-.9,0-1.43-.5-1.43-1.16s.48-1.14,1.64-1.14h.88c0-.48-.28-.75-.88-.75a1.84,1.84,0,0,0-1.1.36l-.4-.77a2.94,2.94,0,0,1,1.65-.46C105.53,57.24,106.2,57.78,106.2,58.93Zm-1.11,1v-.39h-.76c-.52,0-.68.19-.68.45s.23.46.63.46A.82.82,0,0,0,105.1,59.91Z"/><path class="cls-1" d="M109.58,57.24v1h-.25a.94.94,0,0,0-1,1.07v1.8h-1.11V57.29h1.06v.5A1.54,1.54,0,0,1,109.58,57.24Z"/><path class="cls-1" d="M109.92,59.2a2,2,0,0,1,2.13-2,1.76,1.76,0,0,1,1.71,1l-.86.46a1,1,0,0,0-.86-.53,1.06,1.06,0,0,0,0,2.12.94.94,0,0,0,.86-.53l.86.47a1.77,1.77,0,0,1-1.71,1A2,2,0,0,1,109.92,59.2Z"/><path class="cls-1" d="M118.29,58.93v2.19h-1.11v-2c0-.62-.28-.9-.77-.9s-.92.33-.92,1v1.89h-1.11V55.84h1.11v1.85a1.68,1.68,0,0,1,1.21-.45A1.5,1.5,0,0,1,118.29,58.93Z"/><path class="cls-1" d="M121,60.48a.69.69,0,0,1,1.38,0,.69.69,0,1,1-1.38,0Z"/><path class="cls-1" d="M122.9,60.48a.69.69,0,0,1,1.38,0,.69.69,0,1,1-1.38,0Z"/><path class="cls-1" d="M124.76,60.48a.69.69,0,0,1,1.38,0,.69.69,0,1,1-1.38,0Z"/><ellipse cx="41.32" cy="86.76" rx="16.42" ry="0.2"/><rect class="cls-7" x="24.9" y="106.29" width="11.88" height="66.48"/><rect class="cls-7" x="45.89" y="144.67" width="11.88" height="28.1"/><rect class="cls-8" x="66.89" y="116.78" width="11.88" height="55.99"/><rect class="cls-7" x="87.88" y="106.29" width="11.88" height="66.48"/><rect class="cls-7" x="108.87" y="126.4" width="11.88" height="46.37"/><rect class="cls-8" x="129.87" y="115.04" width="11.88" height="57.73"/><rect class="cls-7" x="150.86" y="137.72" width="11.88" height="35.05"/><path class="cls-5" d="M306.6,210.1c0-1.34-.06-82.15-.16-209.9l.16.16L.23.41h0L.41.2c0,74.92,0,146.11,0,209.9l-.19-.19,306.39.19L.2,210.29H0v-.19C0,146.31,0,75.13,0,.2V0H.23L306.59,0h.16V.2C306.66,128,306.6,208.76,306.6,210.1Z"/><ellipse cx="82.2" cy="15.41" rx="24.16" ry="0.2"/><rect class="cls-8" x="19.86" y="54" width="42.91" height="12.93"/><ellipse class="cls-9" cx="108.96" cy="87.85" rx="29.8" ry="0.2"/><path class="cls-9" d="M268.6,61.86a5,5,0,1,1,5-5A5,5,0,0,1,268.6,61.86Zm0-9.18a4.2,4.2,0,1,0,4.2,4.2A4.2,4.2,0,0,0,268.6,52.69Z"/><path class="cls-9" d="M274.72,64.07a.39.39,0,0,1-.28-.11l-3.25-3.22a.39.39,0,0,1,.55-.56L275,63.4a.39.39,0,0,1-.28.67Z"/><path class="cls-5" d="M183.38,187a47.26,47.26,0,1,1,61.77-65.44h0A47.25,47.25,0,0,1,183.38,187Zm39.39-82.4a44.06,44.06,0,1,0,19.61,18.49A44.07,44.07,0,0,0,222.77,104.58Z"/><path class="cls-5" d="M263.12,238.63h0a5.87,5.87,0,0,1-8.08-1.91l-30.91-50.08a1,1,0,0,1,.33-1.39l6.59-4.07a1,1,0,0,1,1.37.3l32.51,48.9A5.87,5.87,0,0,1,263.12,238.63Z"/><path class="cls-10" d="M184.51,184.59a47.26,47.26,0,1,1,61.77-65.44h0a47.25,47.25,0,0,1-61.77,65.44Zm39.39-82.4a44.06,44.06,0,1,0,19.61,18.49A44.07,44.07,0,0,0,223.9,102.19Z"/><path class="cls-10" d="M241.65,175.83h9.73a0,0,0,0,1,0,0v62.3a4.87,4.87,0,0,1-4.87,4.87h0a4.87,4.87,0,0,1-4.87-4.87v-62.3a0,0,0,0,1,0,0Z" transform="translate(-73.24 160.61) rotate(-31.67)"/><path class="cls-1" d="M169.61,130.74a9.25,9.25,0,0,1,.26-1.46,13.27,13.27,0,0,1,.44-1.69,21.83,21.83,0,0,1,.74-2.19l.5-1.25c.18-.43.41-.86.62-1.32a32.09,32.09,0,0,1,1.54-2.82,33.68,33.68,0,0,1,10.21-10.49,32.1,32.1,0,0,1,2.78-1.62c.45-.23.87-.47,1.3-.66l1.24-.53a21.82,21.82,0,0,1,2.17-.8,13.25,13.25,0,0,1,1.67-.48,9.23,9.23,0,0,1,1.45-.3,9.35,9.35,0,0,1-1.4.47,15.58,15.58,0,0,0-1.64.55c-.63.24-1.36.48-2.12.85l-1.21.55c-.42.19-.83.44-1.27.67-.89.45-1.78,1-2.72,1.64a34.78,34.78,0,0,0-10.08,10.36c-.57,1-1.14,1.86-1.56,2.77-.22.45-.46.87-.64,1.29l-.52,1.23c-.36.77-.57,1.51-.79,2.14a15.55,15.55,0,0,0-.51,1.65A9.36,9.36,0,0,1,169.61,130.74Z"/></g></g></svg>