<svg xmlns="http://www.w3.org/2000/svg" width="16.347" height="19.415" viewBox="0 0 16.347 19.415">
  <path id="Path_19711" data-name="Path 19711" d="M1180.013,934.98a6.137,6.137,0,0,1-5.864,5.09c-.685.025-1.372.007-2.058.008h-.293c.116.1.179.152.245.2l7.637,5.845c.076.058.154.114.227.175a.5.5,0,0,1,.191.571.508.508,0,0,1-.485.36c-.04,0-.08,0-.12,0-.582,0-1.165.013-1.747-.008a.9.9,0,0,1-.5-.169q-4.483-3.568-8.953-7.154a1.021,1.021,0,0,1,.646-1.859c1.659,0,3.318,0,4.977,0a4.085,4.085,0,0,0,3.841-2.59c.055-.139.1-.283.163-.472h-9.357c-.552,0-.718-.164-.718-.709,0-.223,0-.447,0-.67,0-.488.178-.667.66-.667h9.4a3.673,3.673,0,0,0-.742-1.509,3.983,3.983,0,0,0-3.2-1.551c-1.819-.013-3.637,0-5.456,0-.481,0-.659-.18-.661-.666,0-.263,0-.527,0-.79a.535.535,0,0,1,.6-.59c.048,0,.1,0,.144,0h14.86c.586,0,.742.154.743.732,0,.239,0,.479,0,.718a.534.534,0,0,1-.611.6q-2.369,0-4.738,0h-.3a6.263,6.263,0,0,1,1.475,3.064h3.53c.466,0,.646.183.649.654,0,.255,0,.511,0,.766-.005.433-.2.625-.634.625q-1.639,0-3.278,0Z" transform="translate(-1167.845 -927.823)" fill="#fff"/>
</svg>
