<svg xmlns="http://www.w3.org/2000/svg" width="18.523" height="19.028" viewBox="0 0 18.523 19.028">
  <g id="Group_36345" data-name="Group 36345" transform="translate(0.199 0.2)">
    <g id="Group_36346" data-name="Group 36346">
      <path id="Path_19400" data-name="Path 19400" d="M1.568,18.628a5,5,0,0,1-.832-.377,1.647,1.647,0,0,1-.728-1.4C-.005,15.776,0,14.7,0,13.617a.372.372,0,0,1,.369-.407.373.373,0,0,1,.357.419q0,1.546,0,3.092A1.1,1.1,0,0,0,1.913,17.9H14.757a1.1,1.1,0,0,0,1.183-1.177c0-.69,0-1.381,0-2.1h-.222q-2.647,0-5.294,0a2.69,2.69,0,0,1-.053-5.38c1.777-.012,3.554,0,5.331,0h.227c0-.064.01-.116.011-.169q0-.973,0-1.946a1.094,1.094,0,0,0-1.151-1.156H1.89A1.1,1.1,0,0,0,.731,7.138q0,1.5,0,3c0,.055,0,.109,0,.164a.362.362,0,0,1-.361.358.357.357,0,0,1-.363-.355C0,10.136,0,9.966,0,9.8Q0,8.477,0,7.158a1.832,1.832,0,0,1,1.886-1.92.424.424,0,0,0,.261-.121Q4.6,2.68,7.042.234C7.127.149,7.225.078,7.317,0h.218c.1.086.205.166.3.259.318.314.632.632.973.973.118-.13.222-.256.339-.37.3-.29.6-.575.9-.862h.218c.1.081.2.157.288.245q2.594,2.589,5.185,5.181a2.276,2.276,0,0,0,.2.182,1.8,1.8,0,0,1,.728,1.476c0,.649,0,1.3,0,1.946v.211h1c.333,0,.459.128.459.465q0,1.782,0,3.565c0,.315,0,.63,0,.946a.367.367,0,0,1-.4.409c-.121,0-.243,0-.364,0h-.689c0,.75.006,1.471,0,2.192A1.818,1.818,0,0,1,15.4,18.544c-.1.031-.195.056-.292.084ZM17.387,9.97h-5.5c-.515,0-1.031-.011-1.546,0a1.962,1.962,0,0,0,.085,3.923q3.4.006,6.8,0c.052,0,.1-.007.155-.01ZM10.187.947,5.9,5.229H14.47L10.187.947M7.459.941l-4.3,4.3c.452,0,.943,0,1.433,0a.38.38,0,0,0,.3-.127Q6.518,3.483,8.153,1.852c.038-.038.074-.079.1-.111l-.8-.8" transform="translate(0)" fill="#dee4ff" stroke="#dee4ff" stroke-width="0.4"/>
      <path id="Path_19401" data-name="Path 19401" d="M.805,238.922a.363.363,0,0,1-.725.015.369.369,0,0,1,.364-.371.369.369,0,0,1,.361.356" transform="translate(-0.076 -226.993)" fill="#dee4ff" stroke="#dee4ff" stroke-width="0.4"/>
      <path id="Path_19402" data-name="Path 19402" d="M194.267,224.649a1.091,1.091,0,1,1-1.078-1.1,1.092,1.092,0,0,1,1.078,1.1m-.729,0a.363.363,0,1,0-.725-.01.363.363,0,0,0,.725.01" transform="translate(-182.767 -212.704)" fill="#dee4ff" stroke="#dee4ff" stroke-width="0.4"/>
    </g>
  </g>
</svg>
