<svg xmlns="http://www.w3.org/2000/svg" width="27.36" height="30.683" viewBox="0 0 27.36 30.683">
  <g id="Redeem_Coupon" data-name="Redeem Coupon" transform="matrix(0.996, 0.087, -0.087, 0.996, 2.422, -0.649)">
    <g id="Group_35484" data-name="Group 35484" transform="translate(0 0)">
      <path id="Path_18504" data-name="Path 18504" d="M4.334,209.57a6.861,6.861,0,0,1-1.221-.528,2.485,2.485,0,0,1-1.066-2.18q-.008-5.9,0-11.8a.87.87,0,0,1,.92-.979q3.77-.006,7.539,0c.046,0,.093.006.162.011.006.1.017.194.017.286q0,7.466,0,14.932c0,.086-.012.171-.019.257Z" transform="translate(-1.896 -180.097)" fill="#fff"/>
      <path id="Path_18505" data-name="Path 18505" d="M193.568,233c.007-.124.021-.247.021-.371q0-6.443,0-12.886v-.409c.137.043.235.07.33.1q4.021,1.462,8.042,2.922a.346.346,0,0,1,.275.387q-.013,3.725,0,7.45a2.607,2.607,0,0,1-1.494,2.543,5.614,5.614,0,0,1-.782.26Z" transform="translate(-179.618 -203.528)" fill="#fff"/>
      <path id="Path_18506" data-name="Path 18506" d="M145.646,216.641c.007-.124.019-.248.019-.372q0-7.073,0-14.145v-.42c.576.21,1.112.4,1.645.6.039.015.071.084.08.133a1.265,1.265,0,0,1,.006.229q0,6.828,0,13.656c0,.1-.014.209-.022.313Z" transform="translate(-135.15 -187.168)" fill="#fff"/>
      <path id="Path_18507" data-name="Path 18507" d="M9.483,51.161l-3.51-1.274L.764,47.99c-.739-.269-.915-.656-.643-1.406.35-.963.7-1.926,1.049-2.888a2.562,2.562,0,0,1,3.384-1.67c2.4.838,4.789,1.733,7.181,2.6a.751.751,0,0,1,.1.062L9.483,51.161" transform="translate(0 -38.841)" fill="#fff"/>
      <path id="Path_18508" data-name="Path 18508" d="M199.256,112.166l2.351-6.455c.089.025.169.043.245.07q3.455,1.255,6.91,2.513a2.522,2.522,0,0,1,1.828,2.274,3.186,3.186,0,0,1-.175,1.207c-.335,1.018-.719,2.02-1.09,3.026a.869.869,0,0,1-1.224.6q-4.375-1.583-8.744-3.183a.931.931,0,0,1-.1-.056" transform="translate(-184.896 -98.093)" fill="#fff"/>
      <path id="Path_18509" data-name="Path 18509" d="M110.305,4.947l-7.028-2.558a3.087,3.087,0,0,1,.864-1.4A3.33,3.33,0,0,1,107.653.2a3.39,3.39,0,0,1,2.357,2.791c.115.629.193,1.265.3,1.954" transform="translate(-95.834 0)" fill="#fff"/>
      <path id="Path_18510" data-name="Path 18510" d="M208.907,43.615a26.4,26.4,0,0,1,2.182-1.72,3.455,3.455,0,0,1,4.891,4.292l-7.074-2.572" transform="translate(-193.852 -38.456)" fill="#fff"/>
      <path id="Path_18511" data-name="Path 18511" d="M156.477,89.075l1.624.591-2.362,6.489-1.623-.59,2.361-6.491" transform="translate(-143.009 -82.656)" fill="#fff"/>
    </g>
  </g>
</svg>
