<svg xmlns="http://www.w3.org/2000/svg" width="18.029" height="17.924" viewBox="0 0 18.029 17.924">
  <g id="Group_36834" data-name="Group 36834" transform="translate(-0.28 -6.793)">
    <g id="Group_35467" data-name="Group 35467">
      <path id="Path_18478" data-name="Path 18478" d="M12.012,135.319a1.258,1.258,0,0,1-.242-.356.439.439,0,0,1,.368-.6c.263-.009.527,0,.808,0v-.284c0-1.272.02-2.544-.007-3.815-.021-.982.5-1.533,1.124-1.491.5.034,1.012.006,1.519.007.683,0,1.075.515,1.078,1.42,0,1.28,0,2.559,0,3.839,0,.095,0,.19,0,.3h2.011v-.272q0-3.946,0-7.892c0-.72.286-1.226.77-1.369a1.108,1.108,0,0,1,.305-.034c.518,0,1.037,0,1.555,0,.7,0,1.09.517,1.09,1.429q0,3.922,0,7.845v.3H24.41v-.3q0-7.356,0-14.711a1.41,1.41,0,0,1,.554-1.305,1.02,1.02,0,0,1,.507-.129c.53-.016,1.061-.008,1.591-.005.673,0,1.061.517,1.063,1.411,0,1.152,0,2.3,0,3.457v11.6H28.8a.412.412,0,0,1,.465.341.564.564,0,0,1-.249.612Zm15.388-.965v-2.28q0-6.353,0-12.707c0-.442-.055-.514-.389-.514H25.529c-.345,0-.395.067-.395.527q0,7.355,0,14.709v.265Zm-5.739,0c0-.049.007-.079.007-.11q0-4.05,0-8.1c0-.295-.093-.409-.325-.41-.512,0-1.024,0-1.536,0-.348,0-.413.085-.413.538q0,3.907,0,7.815v.268Zm-5.742,0a.605.605,0,0,0,.014-.085c0-1.382,0-2.764,0-4.147,0-.276-.093-.383-.305-.385-.536,0-1.072,0-1.609,0-.278,0-.351.1-.351.467q0,1.966,0,3.932c0,.069.005.138.008.217Z" transform="translate(-11.216 -110.853)" fill="#fff" stroke="#fff" stroke-width="0.5"/>
    </g>
  </g>
</svg>
