<svg xmlns="http://www.w3.org/2000/svg" width="21" height="21" viewBox="0 0 21 21"><defs><style>.a{fill:#fff;}</style></defs><g transform="translate(-106.698 -229.89)"><path class="a" d="M116.584,229.89h1.23a1.407,1.407,0,0,0,.178.035,9.484,9.484,0,0,1,3.1.719,10.373,10.373,0,0,1,6.448,7.958c.076.386.109.781.162,1.172V241a1.4,1.4,0,0,0-.035.177,9.718,9.718,0,0,1-1.2,4.136,10.309,10.309,0,0,1-8.824,5.554,9.617,9.617,0,0,1-5.345-1.209,10.29,10.29,0,0,1-5.576-8.83,9.731,9.731,0,0,1,1.215-5.365,10.344,10.344,0,0,1,7.437-5.411C115.77,229.979,116.179,229.944,116.584,229.89Zm-1.64,13.24a2.457,2.457,0,0,0-.173-.228q-1.1-1.1-2.2-2.2a1.438,1.438,0,0,0-.2-.177.745.745,0,0,0-1.174.653.857.857,0,0,0,.307.581q1.4,1.4,2.8,2.8a.784.784,0,0,0,1.288.005l7.274-7.274a1.443,1.443,0,0,0,.19-.214.708.708,0,0,0,.03-.792.717.717,0,0,0-.682-.372.87.87,0,0,0-.6.316q-3.331,3.334-6.664,6.667C115.083,242.945,115.037,243.015,114.944,243.13Z" transform="translate(0 0)"/></g></svg>