<svg xmlns="http://www.w3.org/2000/svg" width="29.472" height="29.472" viewBox="0 0 29.472 29.472">
  <g id="Total_Coupon" data-name="Total Coupon" transform="translate(12.011 0.001) rotate(45)">
    <g id="Group_35479" data-name="Group 35479" transform="translate(0 -0.001)">
      <path id="Path_18483" data-name="Path 18483" d="M24.693,1.308V15.68a1.634,1.634,0,0,1-1.914,1.3q-7.065,0-14.13,0a1.031,1.031,0,0,1-.814-.335c-.282-.3-.58-.6-.886-.908-.321.325-.619.617-.905.92a.987.987,0,0,1-.771.323c-1.2-.008-2.4,0-3.593,0A1.56,1.56,0,0,1,0,15.294q0-6.8,0-13.6A1.56,1.56,0,0,1,1.68.006C2.845,0,4.011.017,5.176,0a1.148,1.148,0,0,1,.937.393c.262.289.548.556.834.843C7.277.9,7.584.6,7.887.287A.886.886,0,0,1,8.553,0q7.27,0,14.54.009A2,2,0,0,1,23.855.2a1.568,1.568,0,0,1,.838,1.113M19.338,3.095a.918.918,0,0,0-.747.4q-3.1,3.732-6.215,7.46-.686.824-1.371,1.649a.75.75,0,0,0-.14.81.739.739,0,0,0,.647.471.845.845,0,0,0,.756-.386q3.229-3.88,6.462-7.756c.38-.457.763-.911,1.139-1.372a.773.773,0,0,0-.53-1.278M15.431,5.443A2.313,2.313,0,1,0,13.077,7.72a2.334,2.334,0,0,0,2.354-2.277M17.75,9.268a2.313,2.313,0,1,0,2.312,2.321A2.336,2.336,0,0,0,17.75,9.268M6.191,4.616H7.7V3.1H6.191Zm0,3.087H7.7V6.19H6.19ZM7.7,9.285H6.186V10.8H7.7Zm-1.509,4.6H7.7V12.362H6.191Z" transform="translate(0 0)" fill="#fff"/>
      <path id="Path_18484" data-name="Path 18484" d="M205.2,78.319a.77.77,0,1,1,.775-.759.774.774,0,0,1-.775.759" transform="translate(-192.085 -72.141)" fill="#fff"/>
      <path id="Path_18485" data-name="Path 18485" d="M281.889,178.982a.77.77,0,1,1-.8.727.774.774,0,0,1,.8-.727" transform="translate(-264.105 -168.17)" fill="#fff"/>
    </g>
  </g>
</svg>
