<svg xmlns="http://www.w3.org/2000/svg" width="15.291" height="17.648" viewBox="0 0 15.291 17.648">
  <g id="Total_Transactions" data-name="Total Transactions" transform="translate(0)">
    <g id="Group_35459" data-name="Group 35459" transform="translate(0 0)">
      <path id="Path_18473" data-name="Path 18473" d="M12.936,14.1c.315.016.606.007.89.049a1.758,1.758,0,0,1-.135,3.484c-.1.008-.209.013-.313.013q-5.467,0-10.934,0A2.333,2.333,0,0,1,.143,16.1a2.425,2.425,0,0,1-.137-.775Q-.006,7.977,0,.634A.582.582,0,0,1,.632,0q4.987,0,9.973,0a2.337,2.337,0,0,1,2.33,2.366q0,5.754,0,11.509V14.1m-1.178.016v-.18q0-5.763,0-11.526a1.45,1.45,0,0,0-.022-.294A1.169,1.169,0,0,0,10.5,1.179H1.375c-.06,0-.12.006-.2.01v.246q0,6.853,0,13.706a3.111,3.111,0,0,0,.011.314,1.149,1.149,0,0,0,1.161,1c0-.077,0-.155,0-.233a4.637,4.637,0,0,1,.047-.716,1.735,1.735,0,0,1,1.759-1.391q3.684,0,7.369,0h.235M3.526,16.473H13.4a1.553,1.553,0,0,0,.166,0,.589.589,0,0,0,.543-.612.578.578,0,0,0-.594-.559q-4.7,0-9.4,0a.564.564,0,0,0-.593.537c-.016.2,0,.4,0,.638" transform="translate(0 0)" fill="#dee4fe"/>
      <path id="Path_18474" data-name="Path 18474" d="M51.888,96.635q-1.754,0-3.509,0a.58.58,0,0,1-.588-.461.57.57,0,0,1,.346-.66,1.052,1.052,0,0,1,.361-.053q2.715,0,5.429,0c.48,0,.96,0,1.44,0a.6.6,0,0,1,.626.466.585.585,0,0,1-.561.71c-.166.006-.332,0-.5,0H51.888" transform="translate(-45.426 -90.755)" fill="#dee4fe"/>
      <path id="Path_18475" data-name="Path 18475" d="M51.87,48.99q-1.717,0-3.435,0a.594.594,0,0,1-.659-.509.578.578,0,0,1,.522-.658c.067-.006.135-.005.2-.005q3.389,0,6.777,0a1.2,1.2,0,0,1,.311.027.584.584,0,0,1-.1,1.136,2.055,2.055,0,0,1-.24.01H51.87" transform="translate(-45.418 -45.461)" fill="#dee4fe"/>
      <path id="Path_18476" data-name="Path 18476" d="M50.071,144.494c-.579,0-1.157,0-1.736,0a.6.6,0,0,1-.59-.417.566.566,0,0,1,.23-.648.7.7,0,0,1,.343-.107q1.754-.011,3.509,0a.588.588,0,1,1,0,1.175c-.585.007-1.17,0-1.754,0" transform="translate(-45.37 -136.257)" fill="#dee4fe"/>
    </g>
  </g>
</svg>
