<svg xmlns="http://www.w3.org/2000/svg" width="19.482" height="16.6" viewBox="0 0 19.482 16.6">
  <g id="Group_36351" data-name="Group 36351" transform="translate(0.3 0.3)">
    <g id="Group_36352" data-name="Group 36352" transform="translate(0 0)">
      <path id="Path_19404" data-name="Path 19404" d="M0,14.28V1.72c.042-.155.075-.313.126-.463A1.742,1.742,0,0,1,1.828,0H17.053c.061,0,.123,0,.184,0a1.789,1.789,0,0,1,1.572,1.433c.023.094.048.188.072.281V14.28c-.042.154-.075.313-.126.463A1.737,1.737,0,0,1,17.053,16H1.847q-.092,0-.184,0A1.611,1.611,0,0,1,.47,15.369,2.509,2.509,0,0,1,0,14.28m8.4,1.036h8.66c.771,0,1.236-.543,1.236-1.439,0-2.527,0-3.173,0-5.7V7.951h-9.5c.06.079.1.132.141.183l1.861,2.311a1.071,1.071,0,0,1,.14.2.342.342,0,0,1-.06.406.246.246,0,0,1-.356.031.9.9,0,0,1-.147-.161Q9.459,9.8,8.554,8.672c-.044-.054-.084-.113-.159-.215Zm0-10.693a1.449,1.449,0,0,1,2.27-.25,1.921,1.921,0,0,1,.562,1.165,1.981,1.981,0,0,1-.577,1.7h7.641V7c0-1-.018-3.876.006-4.872A1.308,1.308,0,0,0,17.041.676C13.286.693,12.356.684,8.6.684H8.395ZM7.784,8.476c-.064.071-.108.116-.148.164-.322.392-.642.785-.965,1.176-.153.184-.322.208-.453.071a.386.386,0,0,1,.029-.542c.337-.415.675-.827,1.012-1.241.035-.043.065-.091.113-.16H.589v.243c0,2.526,0,3.17,0,5.7,0,.892.467,1.431,1.24,1.432.977,0,4.777,0,5.754,0,.065,0,.13-.007.2-.011Zm0-3.524V.684H7.606c-1,0-4.814,0-5.809,0C1.061.687.59,1.237.589,2.09c0,1.018,0,3.918,0,4.935v.2H5.314a2.055,2.055,0,0,1-.009-2.85c.773-.758,1.724-.549,2.477.575M7.559,7.2c-.076-.564-.138-1.1-.227-1.626a1.407,1.407,0,0,0-.2-.475.853.853,0,0,0-.983-.453,1.066,1.066,0,0,0-.8.921A1.1,1.1,0,0,0,5.728,6.7a1.621,1.621,0,0,0,.6.3c.39.092.79.129,1.228.2m.865.008c.472-.08.91-.137,1.341-.236a1.286,1.286,0,0,0,.493-.27,1.167,1.167,0,0,0,.353-1.226,1.073,1.073,0,0,0-.9-.849c-.538-.04-.974.357-1.1,1.049-.087.491-.128.993-.195,1.531" transform="translate(0.001 0)" fill="#dee4ff" stroke="#dee4ff" stroke-width="0.6"/>
    </g>
  </g>
</svg>
