<svg xmlns="http://www.w3.org/2000/svg" width="37.821" height="37.821" viewBox="0 0 37.821 37.821">
  <g id="Group_37220" data-name="Group 37220" transform="translate(-1104 -888)">
    <path id="Path_20996" data-name="Path 20996" d="M1104,1021.891V999.878a1.54,1.54,0,0,0,.064-.171,2.912,2.912,0,0,1,2.984-2.352q14.2-.007,28.392,0a2.931,2.931,0,0,1,3.056,3.077q.005,2.289,0,4.578c0,.107-.012.214-.021.347h-.424c-1.587,0-3.175-.013-4.763,0a5.535,5.535,0,0,0-.1,11.069c1.624.026,3.249.007,4.874.009h.391a.677.677,0,0,1,.04.14c0,1.686.04,3.373-.016,5.057a2.757,2.757,0,0,1-1.667,2.471,7.452,7.452,0,0,1-.825.3h-29.474a9.381,9.381,0,0,1-1.229-.537A3.046,3.046,0,0,1,1104,1021.891Z" transform="translate(0 -98.582)" fill="#fff"/>
    <path id="Path_20997" data-name="Path 20997" d="M1161.8,888c1.039.28,1.2,1.184,1.479,2.06-.478,0-.919-.011-1.36,0a3.674,3.674,0,0,0-3.587,3.632c-.015.935,0,1.87,0,2.862h-.409c-3.213,0-6.425-.005-9.638.008a.452.452,0,0,1-.519-.375c-.151-.48-.345-.947-.512-1.422a1.478,1.478,0,0,1,.946-2.013q6.442-2.345,12.886-4.685a.9.9,0,0,0,.125-.069Z" transform="translate(-38.894)" fill="#fff"/>
    <path id="Path_20998" data-name="Path 20998" d="M1379.829,1106.888a1.36,1.36,0,0,1-1.439.836c-2.387-.027-4.774.008-7.161-.023a3.314,3.314,0,0,1,.065-6.626c2.46-.031,4.922-.011,7.382-.007a1.191,1.191,0,0,1,1.152.871Zm-8.495-1.394a1.1,1.1,0,0,0,1.107-1.091,1.107,1.107,0,1,0-2.214,0A1.1,1.1,0,0,0,1371.334,1105.494Z" transform="translate(-238.008 -192.073)" fill="#fff"/>
    <path id="Path_20999" data-name="Path 20999" d="M1283.209,935.608c0-.99-.026-1.95.008-2.908a1.433,1.433,0,0,1,1.522-1.345c1.957-.007,3.914,0,5.871,0,1.3,0,2.61,0,3.914,0a1.474,1.474,0,0,1,1.607,1.606c0,.873,0,1.747,0,2.648Z" transform="translate(-161.55 -39.081)" fill="#fff"/>
  </g>
</svg>
