<svg xmlns="http://www.w3.org/2000/svg" width="18.119" height="17" viewBox="0 0 18.119 17"><defs><style>.a{fill:#fff;}</style></defs><path class="a" d="M93,262.834c.129-.282.243-.574.391-.844q3.824-7.009,7.656-14.013a1.088,1.088,0,0,1,1.373-.638,1.262,1.262,0,0,1,.65.628q1.608,2.95,3.221,5.9,2.305,4.217,4.611,8.433a1.42,1.42,0,0,1,.191,1,1.143,1.143,0,0,1-.956.954,2.079,2.079,0,0,1-.265.016q-7.813,0-15.625,0a1.093,1.093,0,0,1-1-.471,3.527,3.527,0,0,1-.249-.573Zm9.82-7.12h.017c.024-.858.052-1.716.07-2.575a.733.733,0,0,0-.589-.8,1.289,1.289,0,0,0-.455-.01.733.733,0,0,0-.649.839q.076,2.6.167,5.207a.48.48,0,0,0,.38.512,1.291,1.291,0,0,0,.472.025c.347-.052.5-.256.511-.643Q102.784,256.991,102.82,255.713Zm-.759,6.1a1,1,0,0,0,.018-1.987.951.951,0,0,0-.9.973A.963.963,0,0,0,102.061,261.817Z" transform="translate(-93 -247.268)"/></svg>