<svg xmlns="http://www.w3.org/2000/svg" width="17.143" height="25.279" viewBox="0 0 17.143 25.279">
  <g id="Group_36339" data-name="Group 36339" transform="translate(-269.707 -553.055)">
    <path id="Path_13580" data-name="Path 13580" d="M0,11.369Q0,6.578,0,1.787A1.638,1.638,0,0,1,1.782,0H12.863a1.636,1.636,0,0,1,1.78,1.79q0,9.594,0,19.189a1.641,1.641,0,0,1-1.8,1.8H1.793A1.64,1.64,0,0,1,0,20.976q0-4.8,0-9.607m7.322,8.969c.263,0,.525,0,.788,0a.812.812,0,1,0,.011-1.624q-.8-.01-1.6,0a.812.812,0,1,0-.011,1.624c.271.007.542,0,.813,0" transform="translate(270.957 554.305)" fill="none" stroke="#6379e0" stroke-width="1"/>
    <rect id="Rectangle_3532" data-name="Rectangle 3532" width="14.643" height="22.779" rx="2" transform="translate(270.957 554.305)" fill="none" stroke="#6379e0" stroke-width="2.5"/>
  </g>
</svg>
